<?xml version="1.0" encoding="UTF-8" standalone="no"?>
<!-- Generator: Adobe Illustrator 22.0.1, SVG Export Plug-In . SVG Version: 6.00 Build 0)  -->

<svg
   version="1.1"
   id="Layer_1"
   x="0px"
   y="0px"
   viewBox="0 0 30 30"
   style="enable-background:new 0 0 30 30;"
   xml:space="preserve"
   sodipodi:docname="wi-day-rain.svg"
   inkscape:version="1.4.2 (f4327f4, 2025-05-13)"
   xmlns:inkscape="http://www.inkscape.org/namespaces/inkscape"
   xmlns:sodipodi="http://sodipodi.sourceforge.net/DTD/sodipodi-0.dtd"
   xmlns="http://www.w3.org/2000/svg"
   xmlns:svg="http://www.w3.org/2000/svg"><defs
   id="defs1" /><sodipodi:namedview
   id="namedview1"
   pagecolor="#ffffff"
   bordercolor="#000000"
   borderopacity="0.25"
   inkscape:showpageshadow="2"
   inkscape:pageopacity="0.0"
   inkscape:pagecheckerboard="0"
   inkscape:deskcolor="#d1d1d1"
   inkscape:zoom="32"
   inkscape:cx="20.796875"
   inkscape:cy="10.640625"
   inkscape:window-width="2400"
   inkscape:window-height="1261"
   inkscape:window-x="-9"
   inkscape:window-y="-9"
   inkscape:window-maximized="1"
   inkscape:current-layer="Layer_1" />
<path
   d="m 24.72,11.58 c 0,0.24 0.09,0.43 0.26,0.59 0.18,0.18 0.38,0.26 0.62,0.26 h 2.03 c 0.24,0 0.44,-0.08 0.61,-0.25 0.17,-0.17 0.25,-0.37 0.25,-0.6 0,-0.24 -0.08,-0.44 -0.25,-0.61 -0.17,-0.17 -0.37,-0.26 -0.61,-0.26 H 25.6 c -0.24,0 -0.44,0.09 -0.62,0.26 -0.18,0.17 -0.26,0.37 -0.26,0.61 z"
   id="path10"
   style="fill:#f8b602;fill-opacity:1" /><path
   d="m 23.26,17.91 c 0,0.24 0.08,0.45 0.24,0.63 l 0.65,0.63 c 0.18,0.14 0.38,0.21 0.6,0.21 l 0.02,0.02 c 0.23,0 0.42,-0.08 0.58,-0.24 0.16,-0.16 0.24,-0.37 0.24,-0.61 0,-0.24 -0.09,-0.43 -0.26,-0.58 l -0.62,-0.66 c -0.18,-0.16 -0.39,-0.24 -0.62,-0.24 -0.23,0 -0.43,0.08 -0.59,0.25 -0.16,0.17 -0.24,0.35 -0.24,0.59 z"
   id="path9"
   style="fill:#f8b602;fill-opacity:1" /><path
   d="m 22.45,6.06 c 0,0.24 0.09,0.44 0.27,0.59 0.14,0.16 0.32,0.24 0.55,0.26 0.23,0.02 0.44,-0.07 0.62,-0.26 l 1.44,-1.43 c 0.18,-0.17 0.26,-0.38 0.26,-0.63 0,-0.24 -0.08,-0.45 -0.25,-0.61 -0.17,-0.16 -0.37,-0.24 -0.61,-0.24 -0.21,0 -0.4,0.08 -0.58,0.25 L 22.72,5.43 C 22.54,5.6 22.45,5.81 22.45,6.06 Z"
   id="path8"
   style="fill:#f8b602;fill-opacity:1" /><path
   d="m 16.92,3.78 c 0,0.23 0.08,0.43 0.25,0.59 0.17,0.16 0.37,0.24 0.61,0.24 0.23,0 0.43,-0.08 0.59,-0.23 0.16,-0.16 0.24,-0.35 0.24,-0.59 V 1.73 C 18.61,1.47 18.53,1.26 18.38,1.1 18.22,0.94 18.03,0.86 17.79,0.86 c -0.25,0 -0.46,0.08 -0.62,0.25 -0.16,0.17 -0.24,0.37 -0.24,0.62 v 2.05 z"
   id="path7"
   style="fill:#f8b602;fill-opacity:1" /><path
   id="path15"
   d="M 21.890625 14.960938 L 20.792969 13.431641 C 20.791528 13.434162 20.790509 13.436932 20.789062 13.439453 C 19.819063 12.469453 18.660781 11.990234 17.300781 11.990234 L 16.970703 11.990234 C 16.714031 10.868484 16.196053 9.9259701 15.423828 9.1484375 L 13.861328 8.0410156 C 13.051485 7.6144391 12.164229 7.4003906 11.189453 7.4003906 C 9.7794532 7.4003906 8.5196875 7.8407031 7.4296875 8.7207031 C 6.3396875 9.6007031 5.6400781 10.720078 5.3300781 12.080078 C 4.2200781 12.340078 3.3098437 12.920313 2.5898438 13.820312 C 1.8698436 14.720314 1.5097656 15.740625 1.5097656 16.890625 C 1.5097656 18.220625 1.9703906 19.370078 2.9003906 20.330078 C 3.8303906 21.290078 4.9605469 21.799375 6.3105469 21.859375 C 6.4205469 21.859375 6.4804687 21.799453 6.4804688 21.689453 L 6.4804688 20.349609 C 6.4804688 20.239609 6.4205469 20.179688 6.3105469 20.179688 C 5.4505469 20.139688 4.7191406 19.790391 4.1191406 19.150391 C 3.5191406 18.510391 3.2207031 17.750625 3.2207031 16.890625 C 3.2207031 16.070625 3.5003125 15.350469 4.0703125 14.730469 C 4.6403125 14.110469 5.3399219 13.760156 6.1699219 13.660156 L 6.6992188 13.609375 C 6.8292187 13.609375 6.9003906 13.549453 6.9003906 13.439453 L 6.9707031 12.900391 C 7.0807031 11.820391 7.5298438 10.909686 8.3398438 10.179688 C 9.1498437 9.449687 10.099453 9.0800781 11.189453 9.0800781 C 12.279453 9.0800781 13.230781 9.449687 14.050781 10.179688 C 14.870781 10.909687 15.329219 11.820391 15.449219 12.900391 L 15.519531 13.470703 C 15.519531 13.590703 15.579453 13.660156 15.689453 13.660156 L 17.310547 13.660156 C 18.200547 13.660156 18.959375 13.979141 19.609375 14.619141 C 20.259375 15.259141 20.580078 16.010625 20.580078 16.890625 C 20.580078 17.760625 20.279688 18.510391 19.679688 19.150391 C 19.079687 19.790391 18.35 20.129687 17.5 20.179688 C 17.38 20.179688 17.310547 20.239609 17.310547 20.349609 L 17.310547 21.689453 C 17.310547 21.799453 17.37 21.859375 17.5 21.859375 C 18.83 21.819375 19.960625 21.309609 20.890625 20.349609 C 21.820625 19.379609 22.279297 18.230391 22.279297 16.900391 C 22.279297 16.207549 22.149894 15.561164 21.890625 14.960938 z "
   style="fill:#7c7c7c;fill-opacity:1" /><path
   id="path13"
   d="m 17.735103,6.331361 c -1.557395,0 -2.843904,0.5782451 -3.873047,1.734375 l 1.396484,0.9921875 0.07813,0.060547 c -0.02668,-0.026352 -0.05281,-0.052155 -0.08008,-0.078125 0.71,-0.67 1.528516,-1 2.478516,-1 0.98,0 1.82,0.3510156 2.5,1.0410156 0.69,0.69 1.03125,1.529532 1.03125,2.519532 0,0.613453 -0.167191,1.22632 -0.509766,1.830078 l 1.0625,1.464844 c 0.777247,-0.968748 1.166016,-2.066878 1.166016,-3.304688 0,-0.95 -0.238985,-1.8306254 -0.708985,-2.6406254 -0.469999,-0.81 -1.109921,-1.4499218 -1.919921,-1.9199219 -0.81,-0.4699999 -1.681094,-0.6992187 -2.621094,-0.6992187 z"
   style="fill:#f8b602;fill-opacity:1" /><path
   d="m 13.67,23.77 c 0,0.16 0.05,0.32 0.15,0.47 0.1,0.15 0.26,0.26 0.46,0.32 0.11,0.02 0.2,0.04 0.25,0.04 0.17,0 0.34,-0.05 0.49,-0.15 0.15,-0.1 0.25,-0.26 0.3,-0.49 l 1.58,-5.88 c 0.06,-0.23 0.04,-0.45 -0.07,-0.64 -0.11,-0.2 -0.28,-0.33 -0.5,-0.4 -0.24,-0.07 -0.45,-0.05 -0.65,0.07 -0.2,0.11 -0.33,0.28 -0.39,0.51 l -1.58,5.91 c -0.02,0.15 -0.04,0.23 -0.04,0.24 z"
   id="path5"
   style="fill:#1999e0;fill-opacity:1" /><path
   d="m 9.94,4.6 c 0,0.24 0.08,0.44 0.25,0.61 l 0.65,0.66 c 0.19,0.15 0.4,0.22 0.62,0.22 0.21,0 0.41,-0.08 0.58,-0.23 C 12.21,5.7 12.3,5.51 12.3,5.27 12.3,5.03 12.22,4.81 12.06,4.63 L 11.42,3.98 C 11.24,3.81 11.04,3.73 10.82,3.73 10.58,3.73 10.37,3.82 10.2,3.99 10.03,4.16 9.94,4.37 9.94,4.6 Z"
   id="path4"
   style="fill:#f8b602;fill-opacity:1" /><path
   d="m 9.52,26.83 c 0,0.19 0.05,0.36 0.15,0.52 0.1,0.16 0.27,0.26 0.52,0.3 0.11,0.02 0.2,0.04 0.26,0.04 0.16,0 0.31,-0.06 0.45,-0.17 0.14,-0.12 0.23,-0.28 0.27,-0.48 l 2.4,-8.93 c 0.06,-0.23 0.04,-0.45 -0.07,-0.64 -0.11,-0.19 -0.28,-0.33 -0.5,-0.4 -0.23,-0.07 -0.45,-0.05 -0.65,0.07 -0.2,0.11 -0.34,0.28 -0.4,0.51 l -2.4,8.93 c -0.02,0.15 -0.03,0.24 -0.03,0.25 z"
   id="path3"
   style="fill:#1999e0;fill-opacity:1" /><path
   d="m 6.91,23.75 c 0,0.17 0.05,0.33 0.16,0.49 0.11,0.16 0.27,0.27 0.49,0.33 0.11,0.02 0.2,0.04 0.27,0.04 0.39,0 0.65,-0.21 0.77,-0.64 l 1.58,-5.88 C 10.25,17.85 10.22,17.63 10.1,17.42 9.98,17.21 9.8,17.09 9.57,17.04 9.35,16.97 9.14,16.99 8.94,17.11 8.74,17.22 8.6,17.39 8.53,17.62 l -1.58,5.91 c -0.02,0.13 -0.04,0.2 -0.04,0.22 z"
   id="path2"
   style="fill:#1999e0;fill-opacity:1" />
</svg>
