<?xml version="1.0" encoding="UTF-8" standalone="no"?>
<!-- Generator: Adobe Illustrator 22.0.1, SVG Export Plug-In . SVG Version: 6.00 Build 0)  -->

<svg
   version="1.1"
   id="Layer_1"
   x="0px"
   y="0px"
   viewBox="0 0 30 30"
   style="enable-background:new 0 0 30 30;"
   xml:space="preserve"
   sodipodi:docname="wi-day-thunderstorm.svg"
   inkscape:export-filename="C:\Users\a00540149\OneDrive - ONEVIRTUALOFFICE\Documents\inky-frame-app\public\wi-day-thunderstorm.svg"
   inkscape:export-xdpi="96"
   inkscape:export-ydpi="96"
   inkscape:version="1.4.2 (f4327f4, 2025-05-13)"
   xmlns:inkscape="http://www.inkscape.org/namespaces/inkscape"
   xmlns:sodipodi="http://sodipodi.sourceforge.net/DTD/sodipodi-0.dtd"
   xmlns="http://www.w3.org/2000/svg"
   xmlns:svg="http://www.w3.org/2000/svg"><defs
   id="defs1" /><sodipodi:namedview
   id="namedview1"
   pagecolor="#ffffff"
   bordercolor="#000000"
   borderopacity="0.25"
   inkscape:showpageshadow="2"
   inkscape:pageopacity="0.0"
   inkscape:pagecheckerboard="0"
   inkscape:deskcolor="#d1d1d1"
   inkscape:zoom="22.627417"
   inkscape:cx="12.197592"
   inkscape:cy="11.954524"
   inkscape:window-width="2400"
   inkscape:window-height="1261"
   inkscape:window-x="-9"
   inkscape:window-y="-9"
   inkscape:window-maximized="1"
   inkscape:current-layer="Layer_1" />
<path
   d="m 24.7,11.58 c 0,0.23 0.09,0.43 0.27,0.6 0.18,0.18 0.38,0.27 0.61,0.27 h 2.03 c 0.23,0 0.43,-0.09 0.6,-0.26 0.17,-0.17 0.26,-0.38 0.26,-0.61 0,-0.23 -0.08,-0.43 -0.25,-0.59 -0.17,-0.16 -0.37,-0.24 -0.61,-0.24 h -2.03 c -0.25,0 -0.46,0.08 -0.63,0.24 -0.17,0.16 -0.25,0.36 -0.25,0.59 z"
   id="path30"
   style="fill:#f8b602;fill-opacity:1" /><path
   d="m 23.25,17.93 c 0,0.22 0.08,0.42 0.24,0.6 l 0.66,0.63 c 0.12,0.14 0.31,0.23 0.54,0.24 l 0.01,0.01 c 0.01,0 0.03,0 0.05,0 0.02,0 0.03,0 0.05,0 0.19,0 0.36,-0.09 0.53,-0.26 0.17,-0.16 0.26,-0.36 0.26,-0.6 0,-0.23 -0.09,-0.43 -0.26,-0.61 l -0.65,-0.61 c -0.16,-0.18 -0.36,-0.27 -0.58,-0.27 -0.23,0 -0.43,0.08 -0.6,0.25 -0.17,0.18 -0.25,0.39 -0.25,0.62 z"
   id="path29"
   style="fill:#f8b602;fill-opacity:1" /><path
   d="m 22.44,6.07 c 0,0.24 0.09,0.44 0.26,0.6 0.14,0.17 0.33,0.25 0.57,0.25 0.24,0 0.44,-0.08 0.6,-0.25 L 25.31,5.22 C 25.48,5.06 25.57,4.87 25.57,4.63 25.57,4.39 25.49,4.19 25.32,4.02 25.15,3.85 24.95,3.77 24.71,3.77 24.49,3.77 24.3,3.86 24.14,4.03 L 22.7,5.47 c -0.17,0.16 -0.26,0.36 -0.26,0.6 z"
   id="path28"
   style="fill:#f8b602;fill-opacity:1" /><path
   d="m 16.91,3.79 c 0,0.23 0.09,0.43 0.26,0.6 0.17,0.17 0.37,0.26 0.6,0.26 0.24,0 0.43,-0.08 0.59,-0.25 0.16,-0.17 0.23,-0.37 0.23,-0.61 V 1.73 C 18.59,1.49 18.51,1.29 18.36,1.12 18.21,0.95 18.01,0.87 17.77,0.87 17.54,0.87 17.34,0.95 17.17,1.12 17,1.29 16.91,1.49 16.91,1.73 Z"
   id="path27"
   style="fill:#f8b602;fill-opacity:1" /><path
   id="path35"
   d="m 5.6660156,20.064453 -0.625,1.570313 c 0.00207,6.27e-4 0.00379,0.0013 0.00586,0.002 L 4.40625,23.335938 c -0.04,0.14 6.25e-4,0.210937 0.140625,0.210937 h 2.1289063 l -1.25,3.949219 h 0.2910156 l 4.1699218,-5.390625 c 0.04,-0.04 0.039766,-0.08867 0.00977,-0.138672 -0.02,-0.05 -0.070625,-0.07031 -0.140625,-0.07031 H 7.5859375 l 2.4707035,-4.63086 c 0.07,-0.14 0.01937,-0.21875 -0.1406254,-0.21875 H 6.9765625 c -0.09,0 -0.1704688,0.04867 -0.2304688,0.138672 l -1.0703124,2.880859 c -0.0031,-7.86e-4 -0.00667,-0.0012 -0.00977,-0.002 z"
   style="fill:#e87502;fill-opacity:1" /><path
   id="path36"
   d="M 11.199219 7.4101562 C 9.7892181 7.4101562 8.5294531 7.8507031 7.4394531 8.7207031 C 6.3494531 9.5907031 5.6498437 10.710078 5.3398438 12.080078 C 4.2298438 12.340078 3.319375 12.910547 2.609375 13.810547 C 1.899375 14.710547 1.5195313 15.750391 1.5195312 16.900391 C 1.5195312 18.010391 1.85 18.989375 2.5 19.859375 C 3.146427 20.724593 4.0007448 21.313559 5.0527344 21.634766 L 5.6777344 20.064453 C 4.9769847 19.882152 4.3951042 19.494403 3.9296875 18.910156 C 3.4596875 18.320156 3.2304687 17.650391 3.2304688 16.900391 C 3.2304688 16.070391 3.5100781 15.350469 4.0800781 14.730469 C 4.6500781 14.110469 5.3496875 13.760156 6.1796875 13.660156 L 6.6992188 13.599609 C 6.8292187 13.599609 6.9003906 13.539922 6.9003906 13.419922 L 6.9609375 12.910156 C 7.0709375 11.830156 7.5298435 10.919453 8.3398438 10.189453 C 9.1498436 9.4594533 10.109219 9.0898438 11.199219 9.0898438 C 12.289219 9.0898438 13.240781 9.4594533 14.050781 10.189453 C 14.860781 10.919453 15.329219 11.830156 15.449219 12.910156 L 15.509766 13.490234 C 15.509766 13.600234 15.569453 13.660156 15.689453 13.660156 L 17.300781 13.660156 C 18.210781 13.660156 18.979141 13.979375 19.619141 14.609375 C 20.259141 15.239375 20.580078 16.000391 20.580078 16.900391 C 20.580078 17.750391 20.279453 18.489375 19.689453 19.109375 C 19.099453 19.729375 18.37 20.080391 17.5 20.150391 C 17.37 20.150391 17.300781 20.210078 17.300781 20.330078 L 17.300781 21.699219 C 17.300781 21.809219 17.37 21.869141 17.5 21.869141 C 18.83 21.829141 19.960625 21.319375 20.890625 20.359375 C 21.820625 19.399375 22.279297 18.250156 22.279297 16.910156 C 22.279297 16.170156 22.139609 15.500391 21.849609 14.900391 L 21.849609 14.898438 L 20.808594 13.425781 L 20.802734 13.416016 C 20.8019 13.417474 20.801618 13.418463 20.800781 13.419922 C 19.810781 12.439922 18.640781 11.949219 17.300781 11.949219 L 16.990234 11.949219 C 16.682506 10.787793 16.118922 9.8239097 15.318359 9.0566406 L 13.902344 8.0585938 L 13.900391 8.0605469 C 13.090391 7.6305469 12.189219 7.4101562 11.199219 7.4101562 z "
   style="fill:#7c7c7c;fill-opacity:1" /><path
   id="path33"
   d="m 17.748047,6.3613281 c -1.539491,0 -2.837126,0.5792718 -3.876953,1.7285159 l 1.412109,0.96875 c 0.667588,-0.631898 1.481217,-0.957031 2.464844,-0.957031 0.97,0 1.81,0.339531 2.5,1.019531 0.69,0.68 1.041015,1.510469 1.041015,2.480468 0,0.609947 -0.163383,1.2199 -0.501953,1.820313 l 1.046875,1.490234 c 0.779067,-0.955301 1.164063,-2.049472 1.164063,-3.300781 0,-0.94 -0.238985,-1.80914 -0.708985,-2.61914 -0.469999,-0.81 -1.109921,-1.4518755 -1.919921,-1.9218755 -0.81,-0.47 -1.681094,-0.7089844 -2.621094,-0.7089844 z"
   style="fill:#f8b602;fill-opacity:1" /><path
   d="m 13.77,23.43 c 0,0.12 0.04,0.24 0.11,0.38 0.13,0.2 0.29,0.34 0.5,0.43 0.07,0.03 0.17,0.05 0.3,0.05 0.15,0 0.26,-0.02 0.33,-0.06 0.2,-0.08 0.34,-0.28 0.41,-0.58 l 1.49,-5.55 c 0.06,-0.24 0.04,-0.45 -0.07,-0.65 -0.11,-0.19 -0.28,-0.32 -0.51,-0.39 -0.23,-0.07 -0.45,-0.05 -0.64,0.07 -0.2,0.11 -0.33,0.28 -0.39,0.51 l -1.5,5.56 c 0,0.02 -0.01,0.06 -0.02,0.11 -0.01,0.06 -0.01,0.09 -0.01,0.12 z"
   id="path25"
   style="fill:#1999e0;fill-opacity:1" /><path
   d="m 9.94,4.63 c 0,0.24 0.08,0.43 0.25,0.59 l 0.64,0.66 c 0.17,0.17 0.37,0.25 0.61,0.26 0.24,0 0.43,-0.08 0.57,-0.26 0.19,-0.15 0.28,-0.35 0.28,-0.6 0,-0.24 -0.08,-0.43 -0.25,-0.59 L 11.41,4.03 C 11.24,3.87 11.03,3.79 10.8,3.79 c -0.25,0 -0.46,0.08 -0.62,0.24 -0.16,0.16 -0.24,0.36 -0.24,0.6 z"
   id="path24"
   style="fill:#f8b602;fill-opacity:1" /><path
   d="m 9.61,26.48 c -0.01,0.15 0.03,0.3 0.14,0.44 0.11,0.14 0.26,0.25 0.46,0.33 0.07,0.02 0.14,0.03 0.21,0.03 0.17,0 0.34,-0.05 0.51,-0.15 0.17,-0.1 0.28,-0.26 0.34,-0.47 l 2.29,-8.57 c 0.06,-0.23 0.04,-0.45 -0.07,-0.64 -0.11,-0.2 -0.27,-0.33 -0.49,-0.4 -0.23,-0.07 -0.45,-0.05 -0.65,0.07 -0.2,0.11 -0.34,0.28 -0.4,0.51 l -2.31,8.6 C 9.62,26.3 9.61,26.39 9.61,26.48 Z"
   id="path23"
   style="fill:#1999e0;fill-opacity:1" />
</svg>
