<?xml version="1.0" encoding="UTF-8" standalone="no"?>
<!-- Generator: Adobe Illustrator 22.0.1, SVG Export Plug-In . SVG Version: 6.00 Build 0)  -->

<svg
   version="1.1"
   id="Layer_1"
   x="0px"
   y="0px"
   viewBox="0 0 30 30"
   style="enable-background:new 0 0 30 30;"
   xml:space="preserve"
   sodipodi:docname="wi-day-snow.svg"
   inkscape:version="1.4.2 (f4327f4, 2025-05-13)"
   xmlns:inkscape="http://www.inkscape.org/namespaces/inkscape"
   xmlns:sodipodi="http://sodipodi.sourceforge.net/DTD/sodipodi-0.dtd"
   xmlns="http://www.w3.org/2000/svg"
   xmlns:svg="http://www.w3.org/2000/svg"><defs
   id="defs1" /><sodipodi:namedview
   id="namedview1"
   pagecolor="#ffffff"
   bordercolor="#000000"
   borderopacity="0.25"
   inkscape:showpageshadow="2"
   inkscape:pageopacity="0.0"
   inkscape:pagecheckerboard="0"
   inkscape:deskcolor="#d1d1d1"
   inkscape:zoom="36.439569"
   inkscape:cx="12.500148"
   inkscape:cy="13.433199"
   inkscape:window-width="2400"
   inkscape:window-height="1261"
   inkscape:window-x="-9"
   inkscape:window-y="-9"
   inkscape:window-maximized="1"
   inkscape:current-layer="Layer_1" />
<path
   d="m 24.67,11.6 c 0,0.24 0.09,0.43 0.26,0.59 0.17,0.18 0.38,0.27 0.62,0.27 h 2.02 c 0.23,0 0.43,-0.08 0.6,-0.25 0.17,-0.17 0.25,-0.37 0.25,-0.61 0,-0.24 -0.08,-0.44 -0.25,-0.6 C 28,10.84 27.8,10.75 27.57,10.75 h -2.02 c -0.24,0 -0.44,0.08 -0.62,0.25 -0.18,0.17 -0.26,0.37 -0.26,0.6 z"
   id="path14"
   style="fill:#f8b602;fill-opacity:1" /><path
   d="m 23.22,17.91 c 0,0.25 0.08,0.46 0.24,0.62 l 0.64,0.63 c 0.24,0.16 0.46,0.24 0.64,0.24 0.21,0 0.39,-0.09 0.56,-0.26 0.17,-0.17 0.25,-0.38 0.25,-0.61 0,-0.23 -0.09,-0.42 -0.26,-0.58 L 24.67,17.3 c -0.18,-0.16 -0.38,-0.24 -0.61,-0.24 -0.23,0 -0.43,0.08 -0.59,0.25 -0.17,0.16 -0.25,0.36 -0.25,0.6 z"
   id="path13"
   style="fill:#f8b602;fill-opacity:1" /><path
   d="m 22.42,6.11 c 0,0.23 0.08,0.43 0.25,0.59 0.15,0.16 0.34,0.24 0.56,0.26 0.22,0.02 0.43,-0.07 0.62,-0.26 L 25.28,5.27 C 25.46,5.09 25.54,4.89 25.54,4.66 25.54,4.42 25.45,4.22 25.28,4.05 25.11,3.88 24.91,3.8 24.68,3.8 24.46,3.8 24.27,3.88 24.1,4.05 l -1.43,1.46 c -0.17,0.16 -0.25,0.36 -0.25,0.6 z"
   id="path12"
   style="fill:#f8b602;fill-opacity:1" /><path
   d="m 16.9,3.84 c 0,0.23 0.08,0.43 0.25,0.58 0.17,0.15 0.37,0.23 0.61,0.23 0.24,0 0.43,-0.08 0.59,-0.23 0.16,-0.16 0.23,-0.35 0.23,-0.58 V 1.8 C 18.58,1.56 18.5,1.36 18.34,1.19 18.18,1.02 18,0.94 17.77,0.94 17.54,0.94 17.34,1.03 17.17,1.2 17,1.37 16.91,1.57 16.91,1.8 v 2.04 z"
   id="path11"
   style="fill:#f8b602;fill-opacity:1" /><path
   id="path17"
   d="M 21.898438 14.986328 C 21.897842 14.985 21.897081 14.983749 21.896484 14.982422 L 20.777344 13.423828 C 20.774439 13.429002 20.772461 13.434283 20.769531 13.439453 C 19.819531 12.479453 18.660781 12 17.300781 12 L 16.980469 12 C 16.686293 10.852716 16.141824 9.8892979 15.347656 9.1074219 L 13.916016 8.0917969 C 13.910643 8.0976925 13.90575 8.1034491 13.900391 8.109375 C 13.090391 7.669375 12.190937 7.4492187 11.210938 7.4492188 C 9.800937 7.4492188 8.5607031 7.8897656 7.4707031 8.7597656 C 6.3807031 9.6297656 5.6908594 10.749609 5.3808594 12.099609 C 4.2608594 12.379609 3.350625 12.959609 2.640625 13.849609 C 1.930625 14.749609 1.5800781 15.769687 1.5800781 16.929688 C 1.5800781 17.789687 1.7907031 18.599844 2.2207031 19.339844 C 2.6407031 20.079844 3.2209375 20.680859 3.9609375 21.130859 C 4.6909375 21.580859 5.499375 21.819844 6.359375 21.839844 C 6.469375 21.839844 6.5292969 21.779922 6.5292969 21.669922 L 6.5292969 20.339844 C 6.5292969 20.219844 6.469375 20.150391 6.359375 20.150391 C 5.509375 20.110391 4.7796875 19.770859 4.1796875 19.130859 C 3.5796875 18.490859 3.2792969 17.759922 3.2792969 16.919922 C 3.2792969 16.099922 3.5608594 15.379766 4.1308594 14.759766 C 4.7008594 14.149766 5.3904686 13.789453 6.2304688 13.689453 L 6.7597656 13.630859 C 6.8797656 13.630859 6.9394531 13.569453 6.9394531 13.439453 L 7.0195312 12.929688 C 7.1295313 11.839688 7.5808594 10.929219 8.3808594 10.199219 C 9.1808594 9.4692185 10.130469 9.109375 11.230469 9.109375 C 12.320469 9.109375 13.270078 9.4692186 14.080078 10.199219 C 14.900078 10.929219 15.360937 11.830391 15.460938 12.900391 L 15.529297 13.480469 C 15.529297 13.590469 15.589219 13.650391 15.699219 13.650391 L 17.310547 13.650391 C 18.210547 13.650391 18.979141 13.969375 19.619141 14.609375 C 20.259141 15.249375 20.580078 16.010391 20.580078 16.900391 C 20.580078 17.740391 20.279687 18.469375 19.679688 19.109375 C 19.079687 19.739375 18.349766 20.080859 17.509766 20.130859 C 17.389766 20.130859 17.320313 20.190312 17.320312 20.320312 L 17.320312 21.650391 C 17.320312 21.760391 17.379766 21.820312 17.509766 21.820312 C 18.839766 21.780313 19.960625 21.280313 20.890625 20.320312 C 21.820625 19.360312 22.279297 18.230156 22.279297 16.910156 C 22.279297 16.194337 22.155153 15.559105 21.898438 14.986328 z "
   style="fill:#7c7c7c;fill-opacity:1" /><path
   id="path15"
   d="m 17.759829,6.4099668 c -1.527524,0 -2.808171,0.5696726 -3.84375,1.7011718 l 1.376953,0.9765626 c 0.689679,-0.6590194 1.507511,-0.9882813 2.466797,-0.9882813 0.97,0 1.800469,0.3490625 2.480469,1.0390625 0.69,0.69 1.029297,1.5302336 1.029297,2.4902336 0,0.610623 -0.164355,1.220988 -0.494141,1.8125 l 1.064453,1.466797 c 0.749014,-0.9296 1.150391,-2.030148 1.150391,-3.279297 0,-0.94 -0.229219,-1.8093742 -0.699219,-2.6093742 -0.47,-0.8 -1.110156,-1.4401563 -1.910156,-1.9101563 -0.8,-0.47 -1.681094,-0.6992187 -2.621094,-0.6992187 z"
   style="fill:#f8b602;fill-opacity:1" /><path
   d="m 14.32,24.61 c 0,0.21 0.08,0.4 0.23,0.57 0.18,0.16 0.38,0.24 0.6,0.24 0.24,0 0.43,-0.08 0.59,-0.23 0.16,-0.16 0.23,-0.35 0.23,-0.58 0,-0.24 -0.08,-0.43 -0.24,-0.59 -0.16,-0.16 -0.35,-0.23 -0.59,-0.23 -0.24,0 -0.44,0.08 -0.6,0.24 -0.14,0.15 -0.22,0.35 -0.22,0.58 z"
   id="path9"
   style="fill:#f9f9f9;fill-opacity:1" /><path
   d="m 14.32,20.98 c 0,0.24 0.08,0.44 0.24,0.61 0.16,0.17 0.36,0.25 0.59,0.25 0.23,0 0.43,-0.08 0.59,-0.25 0.16,-0.17 0.24,-0.37 0.24,-0.61 0,-0.23 -0.08,-0.42 -0.24,-0.58 -0.16,-0.16 -0.35,-0.24 -0.59,-0.24 -0.24,0 -0.43,0.08 -0.59,0.24 -0.16,0.16 -0.24,0.36 -0.24,0.58 z"
   id="path8"
   style="fill:#f9f9f9;fill-opacity:1" /><path
   d="m 11.1,26.56 c 0,0.22 0.08,0.41 0.24,0.57 0.17,0.17 0.36,0.25 0.58,0.25 0.24,0 0.44,-0.08 0.6,-0.23 0.17,-0.16 0.25,-0.35 0.25,-0.59 0,-0.24 -0.08,-0.44 -0.25,-0.6 -0.17,-0.17 -0.37,-0.25 -0.6,-0.25 -0.22,0 -0.41,0.08 -0.58,0.25 -0.16,0.17 -0.24,0.37 -0.24,0.6 z"
   id="path7"
   style="fill:#f9f9f9;fill-opacity:1" /><path
   d="m 11.1,19.3 c 0,0.23 0.08,0.42 0.24,0.58 0.16,0.16 0.36,0.24 0.58,0.24 0.24,0 0.44,-0.08 0.6,-0.24 0.17,-0.16 0.25,-0.35 0.25,-0.59 0,-0.23 -0.08,-0.43 -0.25,-0.59 -0.17,-0.16 -0.37,-0.24 -0.6,-0.24 -0.23,0 -0.42,0.08 -0.58,0.24 -0.16,0.16 -0.24,0.37 -0.24,0.6 z"
   id="path6"
   style="fill:#f9f9f9;fill-opacity:1" /><path
   d="m 11.1,22.9 c 0,0.22 0.08,0.42 0.24,0.6 0.16,0.16 0.36,0.24 0.58,0.24 0.24,0 0.44,-0.08 0.6,-0.24 0.16,-0.16 0.25,-0.36 0.25,-0.6 0,-0.23 -0.08,-0.43 -0.25,-0.6 -0.17,-0.17 -0.37,-0.25 -0.6,-0.25 -0.23,0 -0.42,0.08 -0.58,0.25 -0.16,0.17 -0.24,0.37 -0.24,0.6 z"
   id="path5"
   style="fill:#f9f9f9;fill-opacity:1" /><path
   d="m 9.97,4.68 c 0,0.24 0.08,0.44 0.24,0.59 l 0.66,0.66 c 0.16,0.16 0.34,0.25 0.53,0.25 0.21,0.03 0.41,-0.04 0.61,-0.22 0.2,-0.18 0.3,-0.39 0.3,-0.63 0,-0.24 -0.08,-0.46 -0.24,-0.64 L 11.43,4.08 C 11.28,3.91 11.09,3.83 10.85,3.83 10.6,3.83 10.39,3.91 10.22,4.08 10.05,4.24 9.97,4.44 9.97,4.68 Z"
   id="path4"
   style="fill:#f8b602;fill-opacity:1" /><path
   d="m 7.92,24.61 c 0,0.21 0.08,0.4 0.24,0.57 0.18,0.16 0.37,0.24 0.58,0.24 0.24,0 0.43,-0.08 0.59,-0.23 0.16,-0.16 0.23,-0.35 0.23,-0.58 0,-0.24 -0.08,-0.43 -0.24,-0.59 C 9.16,23.86 8.97,23.79 8.73,23.79 8.5,23.79 8.3,23.87 8.14,24.02 8,24.17 7.92,24.37 7.92,24.61 Z"
   id="path3"
   style="fill:#f9f9f9;fill-opacity:1" /><path
   d="m 7.92,20.98 c 0,0.24 0.08,0.44 0.24,0.61 0.16,0.17 0.35,0.25 0.59,0.25 0.23,0 0.43,-0.08 0.59,-0.25 C 9.5,21.42 9.58,21.22 9.58,20.98 9.58,20.75 9.5,20.56 9.34,20.4 9.18,20.24 8.99,20.16 8.75,20.16 8.52,20.16 8.32,20.24 8.16,20.4 8,20.56 7.92,20.76 7.92,20.98 Z"
   id="path2"
   style="fill:#f9f9f9;fill-opacity:1" />
</svg>
