<?xml version="1.0" encoding="UTF-8" standalone="no"?>
<!-- Generator: Adobe Illustrator 22.0.1, SVG Export Plug-In . SVG Version: 6.00 Build 0)  -->

<svg
   version="1.1"
   id="Layer_1"
   x="0px"
   y="0px"
   viewBox="0 0 30 30"
   style="enable-background:new 0 0 30 30;"
   xml:space="preserve"
   sodipodi:docname="dust.svg"
   inkscape:version="1.4.2 (f4327f4, 2025-05-13)"
   xmlns:inkscape="http://www.inkscape.org/namespaces/inkscape"
   xmlns:sodipodi="http://sodipodi.sourceforge.net/DTD/sodipodi-0.dtd"
   xmlns="http://www.w3.org/2000/svg"
   xmlns:svg="http://www.w3.org/2000/svg"><defs
   id="defs1" /><sodipodi:namedview
   id="namedview1"
   pagecolor="#ffffff"
   bordercolor="#000000"
   borderopacity="0.25"
   inkscape:showpageshadow="2"
   inkscape:pageopacity="0.0"
   inkscape:pagecheckerboard="0"
   inkscape:deskcolor="#d1d1d1"
   inkscape:zoom="25.766667"
   inkscape:cx="15"
   inkscape:cy="15"
   inkscape:window-width="2148"
   inkscape:window-height="1701"
   inkscape:window-x="4542"
   inkscape:window-y="0"
   inkscape:window-maximized="0"
   inkscape:current-layer="Layer_1" />
<path
   d="m 21.03,10.67 c 0,-0.22 0.07,-0.4 0.22,-0.55 0.15,-0.15 0.33,-0.22 0.55,-0.22 0.27,0 0.48,0.07 0.64,0.22 0.16,0.14 0.24,0.33 0.24,0.55 0,0.27 -0.08,0.48 -0.24,0.64 -0.16,0.16 -0.37,0.24 -0.64,0.24 -0.23,0 -0.41,-0.08 -0.55,-0.24 -0.15,-0.16 -0.22,-0.37 -0.22,-0.64 z"
   id="path12"
   style="fill:#0d5fa7;fill-opacity:1" /><path
   d="m 18.29,13.61 c 0,-0.22 0.09,-0.42 0.28,-0.6 0.18,-0.18 0.39,-0.28 0.6,-0.28 h 1.96 c 0.21,0 0.39,0.09 0.54,0.27 0.15,0.18 0.23,0.38 0.23,0.61 0,0.27 -0.07,0.48 -0.22,0.64 -0.14,0.16 -0.33,0.24 -0.55,0.24 h -1.96 c -0.23,0 -0.44,-0.08 -0.61,-0.24 -0.18,-0.16 -0.27,-0.37 -0.27,-0.64 z"
   id="path11"
   style="fill:#199ae0;fill-opacity:1" /><path
   d="m 17.85,16.58 c 0,-0.21 0.09,-0.4 0.27,-0.55 0.18,-0.15 0.38,-0.23 0.61,-0.23 h 3.07 c 0.22,0 0.4,0.08 0.54,0.23 0.14,0.15 0.22,0.33 0.22,0.55 0,0.27 -0.07,0.48 -0.21,0.64 -0.14,0.16 -0.32,0.23 -0.55,0.23 h -3.07 c -0.23,0 -0.44,-0.08 -0.61,-0.24 -0.18,-0.15 -0.27,-0.36 -0.27,-0.63 z"
   id="path10"
   style="fill:#4fe5fd;fill-opacity:1" /><path
   d="m 16.98,19.54 c 0,-0.23 0.08,-0.44 0.24,-0.61 0.16,-0.18 0.37,-0.27 0.63,-0.27 h 1.87 c 0.26,0 0.47,0.09 0.63,0.26 0.16,0.17 0.24,0.38 0.24,0.62 0,0.27 -0.08,0.49 -0.23,0.65 -0.15,0.16 -0.37,0.23 -0.64,0.23 h -1.87 c -0.27,0 -0.48,-0.08 -0.64,-0.23 -0.15,-0.16 -0.23,-0.38 -0.23,-0.65 z"
   id="path9"
   style="fill:#189be2;fill-opacity:1" /><path
   d="m 15.44,16.58 c 0,-0.21 0.09,-0.4 0.27,-0.55 0.18,-0.15 0.38,-0.23 0.61,-0.23 0.23,0 0.43,0.08 0.61,0.23 0.18,0.15 0.27,0.34 0.27,0.55 0,0.26 -0.09,0.47 -0.27,0.63 -0.18,0.16 -0.38,0.24 -0.61,0.24 -0.23,0 -0.44,-0.08 -0.61,-0.24 -0.18,-0.15 -0.27,-0.36 -0.27,-0.63 z"
   id="path8"
   style="fill:#4fe5fd;fill-opacity:1" /><path
   d="m 12.81,10.67 c 0,-0.22 0.08,-0.41 0.24,-0.55 0.16,-0.14 0.37,-0.22 0.64,-0.22 h 5.71 c 0.23,0 0.43,0.08 0.61,0.23 0.18,0.15 0.27,0.33 0.27,0.54 0,0.26 -0.09,0.48 -0.27,0.64 -0.18,0.16 -0.38,0.24 -0.61,0.24 h -5.71 c -0.27,0 -0.49,-0.08 -0.65,-0.24 -0.16,-0.16 -0.23,-0.37 -0.23,-0.64 z"
   id="path7"
   style="fill:#0d5fa7;fill-opacity:1" /><path
   d="m 12.05,13.61 c 0,-0.22 0.09,-0.42 0.28,-0.6 0.18,-0.18 0.39,-0.28 0.6,-0.28 h 3.83 c 0.26,0 0.47,0.09 0.63,0.27 0.16,0.18 0.24,0.38 0.24,0.61 0,0.27 -0.08,0.49 -0.23,0.65 -0.16,0.16 -0.37,0.23 -0.64,0.23 h -3.83 c -0.23,0 -0.44,-0.08 -0.61,-0.24 -0.18,-0.16 -0.27,-0.37 -0.27,-0.64 z"
   id="path6"
   style="fill:#199ae0;fill-opacity:1" /><path
   d="m 10.73,19.54 c 0,-0.23 0.08,-0.44 0.24,-0.61 0.16,-0.17 0.38,-0.27 0.64,-0.27 h 3.83 l 0.88,0.88 c 0,0.26 -0.09,0.47 -0.27,0.64 -0.18,0.17 -0.38,0.24 -0.61,0.24 h -3.83 c -0.27,0 -0.49,-0.08 -0.65,-0.24 -0.16,-0.16 -0.23,-0.37 -0.23,-0.64 z"
   id="path5"
   style="fill:#189be2;fill-opacity:1" /><path
   d="m 9.74,13.61 c 0,-0.23 0.07,-0.44 0.22,-0.61 0.15,-0.18 0.33,-0.27 0.54,-0.27 0.26,0 0.48,0.09 0.64,0.27 0.16,0.18 0.24,0.38 0.24,0.61 0,0.27 -0.08,0.49 -0.23,0.65 -0.16,0.16 -0.37,0.23 -0.65,0.23 -0.23,0 -0.41,-0.08 -0.55,-0.24 C 9.81,14.09 9.74,13.88 9.74,13.61 Z"
   id="path4"
   style="fill:#199ae0;fill-opacity:1" /><path
   d="m 8.32,19.54 c 0,-0.22 0.09,-0.42 0.28,-0.6 0.18,-0.18 0.39,-0.28 0.6,-0.28 0.26,0 0.46,0.09 0.62,0.27 0.16,0.18 0.24,0.38 0.24,0.61 0,0.27 -0.08,0.49 -0.23,0.65 C 9.68,20.35 9.47,20.42 9.2,20.42 8.97,20.42 8.76,20.34 8.59,20.18 8.4,20.01 8.32,19.8 8.32,19.54 Z"
   id="path3"
   style="fill:#189be2;fill-opacity:1" /><path
   d="m 7.33,10.67 c 0,-0.22 0.08,-0.41 0.23,-0.55 C 7.72,9.97 7.93,9.9 8.2,9.9 h 2.96 c 0.27,0 0.48,0.07 0.64,0.22 0.16,0.14 0.24,0.33 0.24,0.55 0,0.27 -0.08,0.48 -0.24,0.64 -0.16,0.16 -0.37,0.24 -0.64,0.24 H 8.2 C 7.93,11.55 7.72,11.47 7.56,11.32 7.4,11.17 7.33,10.94 7.33,10.67 Z"
   id="path2"
   style="fill:#0d5fa7;fill-opacity:1" /><path
   d="m 7.33,16.58 c 0,-0.23 0.08,-0.41 0.23,-0.56 C 7.72,15.87 7.93,15.8 8.2,15.8 h 5.71 c 0.27,0 0.48,0.07 0.64,0.22 0.16,0.15 0.23,0.33 0.23,0.56 0,0.27 -0.08,0.49 -0.23,0.64 -0.15,0.15 -0.37,0.23 -0.64,0.23 H 8.2 C 7.93,17.45 7.72,17.37 7.56,17.22 7.4,17.07 7.33,16.86 7.33,16.58 Z"
   id="path1"
   style="fill:#4fe5fd;fill-opacity:1" />
</svg>
