<?xml version="1.0" encoding="UTF-8" standalone="no"?>
<!-- Generator: Adobe Illustrator 22.0.1, SVG Export Plug-In . SVG Version: 6.00 Build 0)  -->

<svg
   version="1.1"
   id="Layer_1"
   x="0px"
   y="0px"
   viewBox="0 0 30 30"
   style="enable-background:new 0 0 30 30;"
   xml:space="preserve"
   sodipodi:docname="wi-day-cloudy-gusts.svg"
   inkscape:version="1.4.2 (f4327f4, 2025-05-13)"
   xmlns:inkscape="http://www.inkscape.org/namespaces/inkscape"
   xmlns:sodipodi="http://sodipodi.sourceforge.net/DTD/sodipodi-0.dtd"
   xmlns="http://www.w3.org/2000/svg"
   xmlns:svg="http://www.w3.org/2000/svg"><defs
   id="defs1" /><sodipodi:namedview
   id="namedview1"
   pagecolor="#ffffff"
   bordercolor="#000000"
   borderopacity="0.25"
   inkscape:showpageshadow="2"
   inkscape:pageopacity="0.0"
   inkscape:pagecheckerboard="0"
   inkscape:deskcolor="#d1d1d1"
   inkscape:zoom="32"
   inkscape:cx="15.234375"
   inkscape:cy="13.234375"
   inkscape:window-width="2400"
   inkscape:window-height="1261"
   inkscape:window-x="-9"
   inkscape:window-y="-9"
   inkscape:window-maximized="1"
   inkscape:current-layer="Layer_1" />
<path
   d="m 25.95,11.57 c 0,0.24 0.08,0.43 0.25,0.59 0.15,0.18 0.34,0.26 0.57,0.26 h 2.02 c 0.24,0 0.44,-0.08 0.61,-0.25 0.17,-0.17 0.25,-0.37 0.25,-0.6 0,-0.23 -0.09,-0.43 -0.26,-0.6 -0.17,-0.17 -0.37,-0.26 -0.6,-0.26 h -2.02 c -0.24,0 -0.43,0.08 -0.59,0.25 -0.15,0.17 -0.23,0.37 -0.23,0.61 z"
   id="path9"
   style="fill:#f8b602;fill-opacity:1" /><path
   d="m 24.44,17.89 c 0,0.23 0.08,0.43 0.25,0.6 l 0.64,0.65 c 0.2,0.16 0.41,0.24 0.62,0.24 0.19,0 0.39,-0.08 0.59,-0.24 0.17,-0.17 0.25,-0.37 0.25,-0.6 0,-0.22 -0.08,-0.42 -0.25,-0.61 L 25.9,17.28 c -0.16,-0.16 -0.36,-0.24 -0.58,-0.24 -0.25,0 -0.46,0.08 -0.63,0.25 -0.17,0.16 -0.25,0.36 -0.25,0.6 z"
   id="path8"
   style="fill:#f8b602;fill-opacity:1" /><path
   d="m 23.67,6.06 c 0,0.24 0.08,0.44 0.23,0.6 0.17,0.17 0.37,0.25 0.61,0.26 0.24,0.01 0.43,-0.08 0.57,-0.26 L 26.54,5.23 C 26.71,5.06 26.79,4.86 26.79,4.62 26.79,4.39 26.71,4.19 26.54,4.02 26.37,3.85 26.17,3.77 25.93,3.77 25.69,3.77 25.49,3.84 25.33,4 L 23.9,5.47 c -0.15,0.16 -0.23,0.35 -0.23,0.59 z"
   id="path7"
   style="fill:#f8b602;fill-opacity:1" /><path
   d="m 18.12,3.79 c 0,0.23 0.08,0.43 0.25,0.59 0.17,0.16 0.37,0.24 0.6,0.24 0.24,0 0.44,-0.08 0.61,-0.24 0.17,-0.16 0.25,-0.35 0.25,-0.59 V 1.74 C 19.83,1.5 19.75,1.3 19.58,1.13 19.41,0.96 19.21,0.88 18.97,0.88 c -0.24,0 -0.44,0.08 -0.6,0.25 -0.16,0.17 -0.25,0.37 -0.25,0.61 z"
   id="path6"
   style="fill:#f8b602;fill-opacity:1" /><path
   id="path12"
   d="M 23.123047 14.898438 L 22.033203 13.378906 C 22.02872 13.386319 22.024075 13.392991 22.019531 13.400391 C 21.059531 12.440391 19.910547 11.970703 18.560547 11.970703 L 18.220703 11.970703 C 17.990703 10.880703 17.41 9.8992969 16.5 9.0292969 C 16.504947 9.0246244 16.510668 9.0202653 16.515625 9.015625 L 15.111328 8.015625 C 14.313132 7.6080374 13.42637 7.4101562 12.449219 7.4101562 C 11.039219 7.4101562 9.8007031 7.8507031 8.7207031 8.7207031 C 7.6407031 9.5907031 6.9501563 10.710547 6.6601562 12.060547 C 5.8101562 12.260547 5.0601564 12.669063 4.4101562 13.289062 C 3.7601562 13.909064 3.3007813 14.640469 3.0507812 15.480469 L 3.0507812 15.519531 C 3.0107812 15.589531 3 15.620391 3 15.650391 C 3 15.730391 3.0599219 15.769531 3.1699219 15.769531 L 4.5996094 15.769531 C 4.6696094 15.769531 4.7307814 15.720859 4.8007812 15.630859 C 5.0207812 15.090859 5.3696094 14.639297 5.8496094 14.279297 C 6.3196094 13.929297 6.8492188 13.729687 7.4492188 13.679688 L 7.9804688 13.609375 C 8.1004688 13.609375 8.1699219 13.549453 8.1699219 13.439453 L 8.2402344 12.919922 C 8.3502344 11.839922 8.799375 10.940937 9.609375 10.210938 C 10.419375 9.480937 11.370936 9.1191406 12.460938 9.1191406 C 13.560936 9.1191406 14.510313 9.4792186 15.320312 10.199219 C 16.130313 10.919219 16.589219 11.830156 16.699219 12.910156 L 16.769531 13.490234 C 16.769531 13.610234 16.829219 13.669922 16.949219 13.669922 L 18.580078 13.669922 C 19.480078 13.669922 20.250859 13.979375 20.880859 14.609375 C 21.510859 15.239375 21.830078 16.000859 21.830078 16.880859 C 21.830078 17.770859 21.510859 18.539922 20.880859 19.169922 C 20.250859 19.799922 19.480078 20.119141 18.580078 20.119141 L 11.679688 20.119141 C 11.549686 20.119141 11.490234 20.180781 11.490234 20.300781 L 11.490234 21.669922 C 11.490234 21.779922 11.549687 21.839844 11.679688 21.839844 L 18.580078 21.839844 C 19.470078 21.839844 20.300547 21.619922 21.060547 21.169922 C 21.820547 20.729922 22.419375 20.119375 22.859375 19.359375 C 23.299375 18.599375 23.519531 17.770859 23.519531 16.880859 C 23.519531 16.160544 23.388345 15.504611 23.123047 14.898438 z "
   style="fill:#7c7c7c;fill-opacity:1" /><path
   id="path10"
   d="m 18.964844,6.3125 c -1.536341,0 -2.824725,0.5780897 -3.853516,1.7226563 l 1.398438,0.9941406 c 0.713985,-0.6643847 1.525926,-0.9960938 2.455078,-0.9960938 0.97,0 1.799765,0.3507813 2.509765,1.0507813 0.7,0.7 1.048828,1.5397656 1.048828,2.5097646 0,0.637321 -0.163727,1.236462 -0.5,1.796876 l 1.06836,1.472656 c 0.755052,-0.987585 1.123047,-2.094679 1.123047,-3.300782 0,-0.939999 -0.240938,-1.8091396 -0.710938,-2.6191396 -0.47,-0.81 -1.109922,-1.4499219 -1.919922,-1.9199219 -0.81,-0.47 -1.67914,-0.7109375 -2.61914,-0.7109375 z"
   style="fill:#f8b602;fill-opacity:1" /><path
   d="m 11.18,4.62 c 0,0.23 0.09,0.43 0.27,0.6 l 0.61,0.65 c 0.16,0.16 0.37,0.24 0.61,0.24 0.25,0 0.45,-0.08 0.61,-0.23 0.16,-0.15 0.24,-0.35 0.24,-0.6 0,-0.24 -0.07,-0.44 -0.23,-0.6 L 12.63,4.03 C 12.47,3.86 12.28,3.77 12.04,3.77 c -0.24,0 -0.44,0.08 -0.61,0.25 -0.17,0.17 -0.25,0.37 -0.25,0.6 z"
   id="path4"
   style="fill:#f8b602;fill-opacity:1" /><path
   d="m 0.35,18 c 0,0.22 0.09,0.41 0.27,0.57 0.17,0.17 0.37,0.25 0.61,0.25 H 12.2 c 0.74,0 1.37,-0.26 1.89,-0.78 0.52,-0.52 0.78,-1.15 0.78,-1.89 0,-0.74 -0.26,-1.36 -0.78,-1.88 -0.52,-0.51 -1.15,-0.77 -1.89,-0.77 -0.76,0 -1.38,0.25 -1.88,0.76 -0.16,0.16 -0.23,0.37 -0.23,0.61 0,0.24 0.08,0.44 0.23,0.6 0.15,0.15 0.35,0.23 0.6,0.23 0.24,0 0.44,-0.08 0.62,-0.23 0.19,-0.19 0.41,-0.28 0.67,-0.28 0.26,0 0.49,0.09 0.68,0.28 0.19,0.19 0.29,0.42 0.29,0.68 0,0.27 -0.1,0.5 -0.29,0.69 -0.19,0.19 -0.42,0.29 -0.68,0.29 H 1.23 c -0.24,0 -0.44,0.09 -0.62,0.26 C 0.43,17.57 0.35,17.77 0.35,18 Z"
   id="path2"
   style="fill:#35c1f1;fill-opacity:1" /><path
   d="m 0.35,21.01 c 0,0.24 0.09,0.44 0.27,0.6 0.17,0.17 0.37,0.25 0.61,0.25 h 5.88 c 0.26,0 0.48,0.09 0.68,0.28 0.2,0.19 0.3,0.42 0.3,0.68 0,0.26 -0.1,0.5 -0.3,0.69 C 7.59,23.7 7.37,23.8 7.11,23.8 6.85,23.8 6.63,23.7 6.43,23.5 6.25,23.34 6.05,23.26 5.82,23.26 c -0.24,0 -0.44,0.08 -0.6,0.24 -0.16,0.16 -0.24,0.36 -0.24,0.6 0,0.24 0.08,0.44 0.24,0.6 0.53,0.53 1.16,0.8 1.89,0.8 0.74,0 1.37,-0.26 1.88,-0.78 C 9.51,24.2 9.77,23.57 9.77,22.83 9.77,22.09 9.51,21.46 8.99,20.94 8.47,20.41 7.84,20.15 7.11,20.15 H 1.23 c -0.24,0 -0.44,0.09 -0.62,0.26 -0.18,0.17 -0.26,0.37 -0.26,0.6 z"
   id="path1"
   style="fill:#0176d1;fill-opacity:1" />
</svg>
