<?xml version="1.0" encoding="UTF-8" standalone="no"?>
<!-- Generator: Adobe Illustrator 22.0.1, SVG Export Plug-In . SVG Version: 6.00 Build 0)  -->

<svg
   version="1.1"
   id="Layer_1"
   x="0px"
   y="0px"
   viewBox="0 0 30 30"
   style="enable-background:new 0 0 30 30;"
   xml:space="preserve"
   sodipodi:docname="wi-day-sleet.svg"
   inkscape:version="1.4.2 (f4327f4, 2025-05-13)"
   xmlns:inkscape="http://www.inkscape.org/namespaces/inkscape"
   xmlns:sodipodi="http://sodipodi.sourceforge.net/DTD/sodipodi-0.dtd"
   xmlns="http://www.w3.org/2000/svg"
   xmlns:svg="http://www.w3.org/2000/svg"><defs
   id="defs1" /><sodipodi:namedview
   id="namedview1"
   pagecolor="#ffffff"
   bordercolor="#000000"
   borderopacity="0.25"
   inkscape:showpageshadow="2"
   inkscape:pageopacity="0.0"
   inkscape:pagecheckerboard="0"
   inkscape:deskcolor="#d1d1d1"
   inkscape:zoom="32"
   inkscape:cx="16.828125"
   inkscape:cy="13.890625"
   inkscape:window-width="2400"
   inkscape:window-height="1261"
   inkscape:window-x="-9"
   inkscape:window-y="-9"
   inkscape:window-maximized="1"
   inkscape:current-layer="Layer_1" />
<path
   d="m 24.73,11.61 c 0,-0.24 0.08,-0.44 0.25,-0.6 0.17,-0.16 0.37,-0.24 0.61,-0.24 h 2.06 c 0.24,0 0.45,0.08 0.61,0.24 0.16,0.16 0.25,0.36 0.25,0.6 0,0.24 -0.08,0.44 -0.25,0.61 -0.17,0.17 -0.37,0.25 -0.61,0.25 h -2.06 c -0.24,0 -0.44,-0.09 -0.6,-0.27 -0.18,-0.15 -0.26,-0.35 -0.26,-0.59 z"
   id="path14"
   style="fill:#f8b602;fill-opacity:1" /><path
   d="m 23.26,17.98 c 0,-0.24 0.08,-0.44 0.25,-0.61 0.17,-0.17 0.37,-0.25 0.6,-0.25 0.23,0 0.43,0.09 0.61,0.26 l 0.62,0.63 c 0.18,0.17 0.26,0.38 0.26,0.61 0,0.24 -0.09,0.44 -0.26,0.6 -0.14,0.17 -0.32,0.26 -0.54,0.26 l -0.02,-0.02 c -0.24,0 -0.44,-0.08 -0.62,-0.24 l -0.65,-0.64 c -0.16,-0.17 -0.25,-0.37 -0.25,-0.6 z"
   id="path13"
   style="fill:#f8b602;fill-opacity:1" /><path
   d="m 22.49,6.07 c 0,-0.24 0.08,-0.44 0.23,-0.6 l 1.44,-1.45 c 0.15,-0.17 0.34,-0.25 0.58,-0.25 0.24,0 0.44,0.08 0.6,0.25 0.18,0.16 0.26,0.36 0.26,0.6 0,0.24 -0.09,0.44 -0.26,0.6 L 23.9,6.68 C 23.71,6.87 23.5,6.95 23.27,6.94 23.04,6.92 22.86,6.84 22.72,6.68 22.56,6.52 22.49,6.32 22.49,6.07 Z"
   id="path12"
   style="fill:#f8b602;fill-opacity:1" /><path
   d="M 16.91,3.78 V 1.73 c 0,-0.24 0.08,-0.44 0.25,-0.61 0.17,-0.17 0.37,-0.26 0.6,-0.26 0.24,0 0.44,0.08 0.6,0.25 0.16,0.17 0.24,0.38 0.24,0.62 V 3.78 C 18.6,4.02 18.52,4.23 18.36,4.4 18.2,4.57 18,4.65 17.76,4.65 17.53,4.65 17.33,4.56 17.16,4.39 16.99,4.22 16.91,4.02 16.91,3.78 Z"
   id="path11"
   style="fill:#f8b602;fill-opacity:1" /><path
   id="path17"
   d="M 21.894531 14.894531 L 20.841797 13.427734 L 20.839844 13.429688 C 19.869844 12.459687 18.700312 11.980469 17.320312 11.980469 L 17.009766 11.980469 C 16.712044 10.799505 16.159469 9.8258988 15.330078 9.0683594 L 13.896484 8.0488281 C 13.077635 7.6104104 12.167905 7.390625 11.179688 7.390625 C 9.759687 7.390625 8.5101562 7.8309375 7.4101562 8.7109375 C 6.3201563 9.6009375 5.6205469 10.719844 5.3105469 12.089844 C 4.2105469 12.349844 3.2903125 12.930078 2.5703125 13.830078 C 1.8503125 14.730078 1.4902344 15.749922 1.4902344 16.919922 C 1.4902344 17.249922 1.5100781 17.540781 1.5800781 17.800781 C 1.5800781 17.804531 1.5815451 17.810827 1.5820312 17.814453 C 1.5832227 17.819277 1.5848437 17.825078 1.5898438 17.830078 L 1.5898438 17.869141 C 1.7498438 18.739141 2.1292187 19.519687 2.6992188 20.179688 C 3.2692187 20.839688 3.9805469 21.319375 4.8105469 21.609375 L 4.8105469 21.589844 C 5.2805469 21.759844 5.7690625 21.860625 6.2890625 21.890625 C 6.3990625 21.890625 6.4609375 21.830703 6.4609375 21.720703 L 6.4609375 20.380859 C 6.4609375 20.270859 6.3990625 20.210938 6.2890625 20.210938 C 5.8990625 20.190938 5.4900781 20.090391 5.0800781 19.900391 L 5.0800781 19.880859 C 4.8100781 19.750859 4.5598437 19.580625 4.3398438 19.390625 C 3.6098438 18.740625 3.2404687 17.940938 3.2304688 16.960938 L 3.1992188 16.960938 L 3.1992188 16.910156 C 3.1992188 16.070156 3.4790625 15.340469 4.0390625 14.730469 C 4.5990625 14.120469 5.3103906 13.769922 6.1503906 13.669922 L 6.6601562 13.630859 C 6.7701562 13.630859 6.8508594 13.59 6.8808594 13.5 L 6.9492188 12.910156 C 7.0492188 11.830156 7.5103125 10.919453 8.3203125 10.189453 C 9.1303125 9.4594532 10.079687 9.0898438 11.179688 9.0898438 C 12.259688 9.0898438 13.219063 9.4594532 14.039062 10.189453 C 14.859064 10.919453 15.329453 11.830156 15.439453 12.910156 L 15.519531 13.5 C 15.519531 13.61 15.579219 13.669922 15.699219 13.669922 L 17.310547 13.669922 C 18.210547 13.669922 18.969141 13.990859 19.619141 14.630859 C 20.269141 15.270859 20.589844 16.029922 20.589844 16.919922 C 20.589844 17.779922 20.289453 18.539687 19.689453 19.179688 C 19.089453 19.819688 18.369766 20.170938 17.509766 20.210938 C 17.379766 20.210937 17.310547 20.270625 17.310547 20.390625 L 17.310547 21.730469 C 17.310547 21.850469 17.379766 21.910156 17.509766 21.910156 C 18.389766 21.890156 19.199687 21.649453 19.929688 21.189453 C 20.669687 20.739453 21.249922 20.130859 21.669922 19.380859 C 22.099922 18.630859 22.310547 17.809687 22.310547 16.929688 C 22.310547 16.189688 22.170859 15.520156 21.880859 14.910156 C 21.885104 14.904794 21.89031 14.899902 21.894531 14.894531 z "
   style="fill:#7c7c7c;fill-opacity:1" /><path
   id="path15"
   d="m 17.720893,6.3884192 c -0.72,0 -1.419844,0.151172 -2.089844,0.4511718 -0.659424,0.2952648 -1.241433,0.7063953 -1.736328,1.2246094 l -0.0059,0.023437 1.40039,0.9941407 c 0.668575,-0.645004 1.485079,-0.9628907 2.441407,-0.9628907 0.98,0 1.819765,0.3492969 2.509765,1.0292969 0.69,0.69 1.041016,1.5200002 1.041016,2.5000002 0,0.654292 -0.158132,1.260363 -0.462891,1.806641 l 1.060547,1.458984 c 0.74204,-0.951914 1.111328,-2.040455 1.111328,-3.255859 0,-0.95 -0.238984,-1.8286724 -0.708984,-2.6386724 -0.47,-0.8100001 -1.109922,-1.4499219 -1.919922,-1.9199219 -0.81,-0.47 -1.690625,-0.7109375 -2.640625,-0.7109375 z"
   style="fill:#f8b602;fill-opacity:1" /><path
   d="m 14.28,21.16 c 0,-0.24 0.08,-0.43 0.23,-0.59 0.16,-0.16 0.35,-0.23 0.59,-0.23 0.24,0 0.43,0.08 0.59,0.23 0.16,0.16 0.23,0.35 0.23,0.59 0,0.23 -0.08,0.43 -0.23,0.58 -0.16,0.16 -0.35,0.23 -0.59,0.23 -0.23,0 -0.43,-0.08 -0.58,-0.25 -0.16,-0.15 -0.24,-0.34 -0.24,-0.56 z"
   id="path9"
   style="fill:#f9f9f9;fill-opacity:1" /><path
   d="m 13.54,24.1 c 0,-0.03 0,-0.07 0.01,-0.13 0.01,-0.06 0.01,-0.09 0.01,-0.11 l 0.09,-0.59 c 0.07,-0.24 0.2,-0.41 0.41,-0.53 0.2,-0.12 0.43,-0.14 0.68,-0.08 0.23,0.07 0.4,0.21 0.51,0.41 0.12,0.21 0.14,0.42 0.07,0.63 l -0.14,0.6 c -0.1,0.43 -0.35,0.65 -0.76,0.65 -0.03,0 -0.08,0 -0.15,-0.01 -0.07,-0.01 -0.11,-0.01 -0.13,-0.01 -0.2,-0.06 -0.35,-0.17 -0.45,-0.33 -0.1,-0.17 -0.15,-0.33 -0.15,-0.5 z"
   id="path8"
   style="fill:#1999e0;fill-opacity:1" /><path
   d="m 10.78,21.96 c 0,-0.09 0.01,-0.18 0.03,-0.26 l 0.23,-0.9 c 0.07,-0.23 0.21,-0.41 0.41,-0.53 0.21,-0.12 0.42,-0.15 0.64,-0.08 0.24,0.07 0.41,0.2 0.53,0.4 0.12,0.2 0.14,0.4 0.07,0.62 l -0.26,0.9 c -0.08,0.27 -0.22,0.46 -0.41,0.57 -0.19,0.11 -0.41,0.12 -0.64,0.06 -0.2,-0.04 -0.35,-0.14 -0.45,-0.3 -0.12,-0.18 -0.17,-0.33 -0.15,-0.48 z"
   id="path7"
   style="fill:#1999e0;fill-opacity:1" /><path
   d="m 10.16,24.23 c 0,-0.23 0.08,-0.43 0.23,-0.58 0.16,-0.16 0.35,-0.23 0.59,-0.23 0.24,0 0.43,0.08 0.59,0.23 0.16,0.16 0.23,0.35 0.23,0.58 0,0.24 -0.08,0.43 -0.23,0.59 -0.16,0.16 -0.35,0.23 -0.59,0.23 -0.22,0 -0.41,-0.08 -0.58,-0.25 -0.16,-0.16 -0.24,-0.35 -0.24,-0.57 z"
   id="path6"
   style="fill:#f9f9f9;fill-opacity:1" /><path
   d="m 9.9,4.62 c 0,-0.24 0.08,-0.44 0.25,-0.6 0.17,-0.16 0.38,-0.24 0.63,-0.24 0.24,0 0.44,0.08 0.6,0.24 l 0.63,0.66 c 0.17,0.17 0.25,0.37 0.25,0.6 0,0.24 -0.1,0.46 -0.3,0.64 -0.2,0.18 -0.4,0.26 -0.61,0.23 C 11.14,6.13 10.96,6.04 10.8,5.88 L 10.15,5.22 C 9.99,5.05 9.9,4.85 9.9,4.62 Z"
   id="path5"
   style="fill:#f8b602;fill-opacity:1" /><path
   d="m 9.37,27.13 c 0,-0.04 0.01,-0.11 0.04,-0.23 l 0.13,-0.58 c 0.07,-0.23 0.21,-0.4 0.41,-0.51 0.21,-0.12 0.42,-0.14 0.63,-0.07 0.23,0.04 0.41,0.17 0.53,0.37 0.12,0.2 0.15,0.43 0.08,0.68 l -0.13,0.59 c -0.1,0.41 -0.37,0.61 -0.8,0.61 -0.05,0 -0.13,-0.01 -0.24,-0.04 C 9.8,27.89 9.64,27.78 9.53,27.62 9.42,27.46 9.37,27.3 9.37,27.13 Z"
   id="path4"
   style="fill:#1999e0;fill-opacity:1" /><path
   d="m 7.73,21.15 c 0,-0.24 0.08,-0.43 0.23,-0.59 0.16,-0.16 0.35,-0.23 0.59,-0.23 0.24,0 0.43,0.08 0.59,0.23 0.16,0.16 0.23,0.35 0.23,0.59 0,0.23 -0.08,0.42 -0.23,0.58 -0.15,0.16 -0.35,0.23 -0.59,0.23 -0.23,0 -0.42,-0.08 -0.57,-0.24 C 7.81,21.56 7.73,21.37 7.73,21.15 Z"
   id="path3"
   style="fill:#f9f9f9;fill-opacity:1" /><path
   d="m 6.99,24.09 c 0,-0.03 0.01,-0.07 0.02,-0.13 0.01,-0.05 0.02,-0.09 0.02,-0.12 l 0.09,-0.59 c 0.07,-0.24 0.2,-0.41 0.41,-0.53 0.2,-0.12 0.43,-0.14 0.68,-0.08 0.23,0.07 0.39,0.2 0.51,0.41 0.11,0.2 0.13,0.41 0.07,0.62 l -0.14,0.6 c -0.1,0.44 -0.35,0.66 -0.76,0.66 -0.03,0 -0.08,0 -0.15,-0.01 C 7.67,24.91 7.63,24.91 7.61,24.91 7.4,24.85 7.25,24.74 7.15,24.58 7.04,24.43 6.99,24.26 6.99,24.09 Z"
   id="path2"
   style="fill:#1999e0;fill-opacity:1" />
</svg>
