<?xml version="1.0" encoding="UTF-8" standalone="no"?>
<!-- Generator: Adobe Illustrator 22.0.1, SVG Export Plug-In . SVG Version: 6.00 Build 0)  -->

<svg
   version="1.1"
   id="Layer_1"
   x="0px"
   y="0px"
   viewBox="0 0 30 30"
   style="enable-background:new 0 0 30 30;"
   xml:space="preserve"
   sodipodi:docname="wi-day-sunny-overcast.svg"
   inkscape:version="1.4.2 (f4327f4, 2025-05-13)"
   xmlns:inkscape="http://www.inkscape.org/namespaces/inkscape"
   xmlns:sodipodi="http://sodipodi.sourceforge.net/DTD/sodipodi-0.dtd"
   xmlns="http://www.w3.org/2000/svg"
   xmlns:svg="http://www.w3.org/2000/svg"><defs
   id="defs1" /><sodipodi:namedview
   id="namedview1"
   pagecolor="#ffffff"
   bordercolor="#000000"
   borderopacity="0.25"
   inkscape:showpageshadow="2"
   inkscape:pageopacity="0.0"
   inkscape:pagecheckerboard="0"
   inkscape:deskcolor="#d1d1d1"
   inkscape:zoom="22.627417"
   inkscape:cx="10.275145"
   inkscape:cy="11.998718"
   inkscape:window-width="2400"
   inkscape:window-height="1261"
   inkscape:window-x="-9"
   inkscape:window-y="-9"
   inkscape:window-maximized="1"
   inkscape:current-layer="Layer_1" />
<path
   d="m 23.25,13.43 c 0,0.27 0.09,0.49 0.28,0.67 0.19,0.18 0.43,0.26 0.72,0.26 h 1.69 c 0.27,0 0.5,-0.09 0.69,-0.27 0.19,-0.18 0.29,-0.4 0.29,-0.66 0,-0.29 -0.09,-0.53 -0.28,-0.71 -0.19,-0.18 -0.42,-0.28 -0.69,-0.28 h -1.69 c -0.29,0 -0.53,0.09 -0.72,0.28 -0.19,0.17 -0.29,0.41 -0.29,0.71 z"
   id="path9"
   style="fill:#f8b602;fill-opacity:1" /><path
   d="m 20.67,7.09 c 0,0.28 0.09,0.52 0.27,0.72 0.18,0.18 0.41,0.27 0.68,0.27 0.27,0 0.5,-0.09 0.68,-0.27 l 1.69,-1.69 c 0.18,-0.17 0.26,-0.39 0.26,-0.67 0,-0.28 -0.1,-0.51 -0.29,-0.69 -0.19,-0.18 -0.42,-0.28 -0.7,-0.28 -0.26,0 -0.49,0.1 -0.68,0.29 L 20.94,6.4 c -0.18,0.18 -0.27,0.41 -0.27,0.69 z"
   id="path8"
   style="fill:#f8b602;fill-opacity:1" /><path
   d="m 20.67,19.7 c 0,0.27 0.09,0.5 0.27,0.7 l 1.64,1.62 c 0.42,0.42 0.89,0.42 1.41,0 0.18,-0.17 0.26,-0.39 0.26,-0.68 0,-0.27 -0.09,-0.49 -0.26,-0.67 L 22.3,19 c -0.18,-0.17 -0.41,-0.25 -0.68,-0.25 -0.28,0 -0.5,0.09 -0.68,0.27 -0.18,0.18 -0.27,0.41 -0.27,0.68 z"
   id="path7"
   style="fill:#f8b602;fill-opacity:1" /><path
   d="m 14.35,4.47 c 0,0.27 0.1,0.51 0.29,0.7 0.19,0.19 0.42,0.29 0.69,0.29 0.28,0 0.51,-0.1 0.7,-0.29 0.19,-0.19 0.29,-0.42 0.29,-0.7 V 2.13 c 0,-0.26 -0.1,-0.48 -0.29,-0.66 -0.19,-0.18 -0.42,-0.27 -0.7,-0.27 -0.27,0 -0.5,0.09 -0.69,0.27 -0.19,0.18 -0.29,0.4 -0.29,0.66 z"
   id="path6"
   style="fill:#f8b602;fill-opacity:1" /><path
   id="path12"
   d="M 18.613281 18.378906 L 17.443359 16.818359 C 17.441865 16.819315 17.440949 16.819358 17.439453 16.820312 C 16.849453 16.330312 16.170156 16.089844 15.410156 16.089844 C 15.120156 15.209844 14.599141 14.52 13.869141 14 C 13.139141 13.48 12.310625 13.220703 11.390625 13.220703 L 11.259766 13.220703 C 11.259843 13.219499 11.259687 13.218 11.259766 13.216797 L 9.2988281 13.777344 C 8.316636 14.346757 7.6662009 15.17161 7.3496094 16.25 C 6.5896094 16.49 5.9890625 16.909531 5.5390625 17.519531 C 5.0890625 18.129531 4.859375 18.829375 4.859375 19.609375 C 4.859375 20.579375 5.2099219 21.420859 5.9199219 22.130859 C 6.6299219 22.840859 7.4596875 23.189453 8.4296875 23.189453 L 15.289062 23.189453 C 16.259062 23.189453 17.089297 22.840625 17.779297 22.140625 C 18.469297 21.440625 18.820312 20.599375 18.820312 19.609375 C 18.820312 19.129375 18.749375 18.720859 18.609375 18.380859 C 18.610393 18.38021 18.612264 18.379557 18.613281 18.378906 z M 11.380859 15.130859 C 11.960859 15.130859 12.470625 15.320937 12.890625 15.710938 C 13.320625 16.100938 13.570625 16.580391 13.640625 17.150391 L 13.720703 17.800781 C 13.780703 17.950781 13.860937 18.029297 13.960938 18.029297 L 15.279297 18.029297 C 15.709297 18.029297 16.080391 18.19 16.400391 18.5 C 16.720391 18.81 16.869141 19.179141 16.869141 19.619141 C 16.869141 20.069141 16.710391 20.449531 16.400391 20.769531 C 16.090391 21.089531 15.709297 21.25 15.279297 21.25 L 8.4296875 21.25 C 7.9796875 21.25 7.6007813 21.089531 7.3007812 20.769531 C 6.9907813 20.449531 6.8398438 20.059375 6.8398438 19.609375 C 6.8398438 19.189375 6.9702344 18.829297 7.2402344 18.529297 C 7.5102344 18.229297 7.8497656 18.059531 8.2597656 18.019531 L 8.8808594 17.939453 C 9.0108594 17.939453 9.0800781 17.860937 9.0800781 17.710938 L 9.1699219 17.150391 C 9.2399219 16.570391 9.4803906 16.090936 9.9003906 15.710938 C 10.320391 15.320937 10.810859 15.130859 11.380859 15.130859 z "
   style="fill:#7c7c7c;fill-opacity:1" /><path
   id="path10"
   d="m 15.304687,7.4589844 c -1.089998,0 -2.099531,0.2705468 -3.019531,0.8105469 -0.92,0.5399998 -1.65164,1.2696876 -2.18164,2.1796867 -0.5300008,0.92 -0.7890629,1.919766 -0.7890629,3.009766 v 0.339844 l 1.9316409,-0.560547 c 0.07427,-1.08024 0.492909,-1.993407 1.267578,-2.738281 0.77,-0.7400005 1.711016,-1.1210938 2.791015,-1.1210937 1.11,0 2.059844,0.399453 2.839844,1.1894527 0.78,0.79 1.169922,1.760625 1.169922,2.890625 0,0.7 -0.169765,1.349219 -0.509766,1.949219 -0.33672,0.594215 -0.791148,1.07285 -1.363281,1.441406 l 1.171875,1.558594 c 0.82092,-0.528671 1.47491,-1.236228 1.951172,-2.109375 0.48,-0.88 0.730469,-1.829844 0.730469,-2.839844 0,-0.81 -0.160469,-1.590078 -0.480469,-2.330078 -0.32,-0.74 -0.749297,-1.380156 -1.279297,-1.910156 -0.53,-0.53 -1.170156,-0.9592969 -1.910156,-1.2792969 -0.74,-0.32 -1.510312,-0.4804687 -2.320313,-0.4804687 z"
   style="fill:#f8b602;fill-opacity:1" /><path
   d="m 6.42,5.45 c 0,0.28 0.09,0.51 0.26,0.67 L 8.29,7.81 C 8.76,8.17 9.23,8.17 9.7,7.81 9.89,7.62 9.98,7.39 9.98,7.11 9.98,6.84 9.89,6.61 9.7,6.41 L 8.05,4.76 C 7.84,4.57 7.6,4.47 7.35,4.47 7.07,4.47 6.84,4.56 6.67,4.75 6.5,4.94 6.42,5.17 6.42,5.45 Z"
   id="path3"
   style="fill:#f8b602;fill-opacity:1" /><path
   d="m 3.09,13.43 c 0,0.27 0.09,0.49 0.28,0.67 0.19,0.18 0.43,0.26 0.72,0.26 h 1.69 c 0.27,0 0.5,-0.09 0.69,-0.27 0.19,-0.18 0.29,-0.4 0.29,-0.66 C 6.76,13.14 6.67,12.9 6.48,12.72 6.29,12.54 6.06,12.44 5.79,12.44 h -1.7 c -0.29,0 -0.53,0.09 -0.72,0.28 -0.19,0.17 -0.28,0.41 -0.28,0.71 z"
   id="path1"
   style="fill:#f8b602;fill-opacity:1" />
</svg>
