<?xml version="1.0" encoding="UTF-8" standalone="no"?>
<!-- Generator: Adobe Illustrator 22.0.1, SVG Export Plug-In . SVG Version: 6.00 Build 0)  -->

<svg
   version="1.1"
   id="Layer_1"
   x="0px"
   y="0px"
   viewBox="0 0 30 30"
   style="enable-background:new 0 0 30 30;"
   xml:space="preserve"
   sodipodi:docname="wi-day-fog.svg"
   inkscape:version="1.4.2 (f4327f4, 2025-05-13)"
   xmlns:inkscape="http://www.inkscape.org/namespaces/inkscape"
   xmlns:sodipodi="http://sodipodi.sourceforge.net/DTD/sodipodi-0.dtd"
   xmlns="http://www.w3.org/2000/svg"
   xmlns:svg="http://www.w3.org/2000/svg"><defs
   id="defs1" /><sodipodi:namedview
   id="namedview1"
   pagecolor="#ffffff"
   bordercolor="#000000"
   borderopacity="0.25"
   inkscape:showpageshadow="2"
   inkscape:pageopacity="0.0"
   inkscape:pagecheckerboard="0"
   inkscape:deskcolor="#d1d1d1"
   inkscape:zoom="32"
   inkscape:cx="9.953125"
   inkscape:cy="14.484375"
   inkscape:window-width="2400"
   inkscape:window-height="1261"
   inkscape:window-x="-9"
   inkscape:window-y="-9"
   inkscape:window-maximized="1"
   inkscape:current-layer="Layer_1" />
<path
   d="m 25.96,11.57 c 0,0.24 0.09,0.44 0.26,0.6 0.15,0.17 0.35,0.25 0.59,0.25 h 2.05 c 0.23,0 0.43,-0.08 0.59,-0.25 0.16,-0.17 0.24,-0.37 0.24,-0.6 0,-0.24 -0.08,-0.44 -0.24,-0.6 -0.16,-0.16 -0.35,-0.24 -0.59,-0.24 h -2.05 c -0.24,0 -0.44,0.08 -0.6,0.25 -0.17,0.16 -0.25,0.36 -0.25,0.59 z"
   id="path10"
   style="fill:#f8b602;fill-opacity:1" /><path
   d="m 24.48,17.88 c 0,0.24 0.09,0.44 0.26,0.6 l 0.64,0.65 c 0.16,0.16 0.36,0.24 0.58,0.24 0.21,0 0.41,-0.08 0.61,-0.24 0.16,-0.17 0.24,-0.39 0.24,-0.64 0,-0.22 -0.08,-0.41 -0.24,-0.56 l -0.65,-0.66 c -0.18,-0.16 -0.38,-0.24 -0.6,-0.24 -0.24,0 -0.44,0.08 -0.6,0.25 -0.16,0.16 -0.24,0.36 -0.24,0.6 z"
   id="path9"
   style="fill:#f8b602;fill-opacity:1" /><path
   d="m 23.67,6.08 c 0,0.22 0.08,0.43 0.24,0.6 0.37,0.36 0.78,0.36 1.23,0 l 1.43,-1.43 c 0.16,-0.18 0.24,-0.39 0.24,-0.64 0,-0.23 -0.08,-0.43 -0.24,-0.59 -0.16,-0.16 -0.36,-0.24 -0.59,-0.24 -0.24,0 -0.44,0.08 -0.6,0.24 l -1.46,1.47 c -0.17,0.18 -0.25,0.38 -0.25,0.59 z"
   id="path8"
   style="fill:#f8b602;fill-opacity:1" /><path
   d="m 18.18,3.81 c 0,0.23 0.08,0.43 0.24,0.59 0.16,0.16 0.35,0.24 0.59,0.24 0.25,0 0.46,-0.08 0.63,-0.24 0.17,-0.16 0.25,-0.35 0.25,-0.59 V 1.76 C 19.89,1.53 19.8,1.33 19.63,1.16 19.45,0.99 19.24,0.91 19,0.91 c -0.23,0 -0.43,0.08 -0.59,0.25 -0.16,0.17 -0.24,0.37 -0.24,0.6 v 2.05 z"
   id="path7"
   style="fill:#f8b602;fill-opacity:1" /><path
   id="path13"
   d="M 23.126953 14.847656 L 22.060547 13.359375 C 21.112335 12.415803 19.955025 11.949219 18.599609 11.949219 L 18.259766 11.949219 C 17.969766 10.769219 17.410078 9.7990625 16.580078 9.0390625 C 16.583169 9.0359253 16.586747 9.0324192 16.589844 9.0292969 L 15.179688 8.0292969 C 14.329688 7.6092969 13.44 7.4003906 12.5 7.4003906 C 11.1 7.4003906 9.8497656 7.8407031 8.7597656 8.7207031 C 7.6697656 9.6007031 6.9701563 10.719844 6.6601562 12.089844 C 4.8801562 12.559844 3.6800781 13.669453 3.0800781 15.439453 L 3.078125 15.441406 L 3.078125 15.443359 L 3.0761719 15.443359 L 3.0761719 15.445312 L 3.0761719 15.447266 C 3.0708081 15.461199 3.0703125 15.487031 3.0703125 15.519531 C 3.0703125 15.609531 3.1204686 15.650391 3.2304688 15.650391 L 4.6601562 15.650391 C 4.7301563 15.650391 4.7991406 15.600234 4.8691406 15.490234 C 5.1091406 14.970234 5.4596875 14.550703 5.9296875 14.220703 C 6.3996875 13.890703 6.9202344 13.700156 7.4902344 13.660156 L 8.0292969 13.589844 C 8.1392969 13.589844 8.1992188 13.530156 8.1992188 13.410156 L 8.2695312 12.900391 C 8.3795314 11.820391 8.830625 10.919453 9.640625 10.189453 C 10.450625 9.4694532 11.4 9.0996094 12.5 9.0996094 C 13.58 9.0996094 14.529844 9.459687 15.339844 10.179688 C 16.149844 10.899687 16.610703 11.789375 16.720703 12.859375 L 16.789062 13.439453 C 16.789062 13.549453 16.850469 13.609375 16.980469 13.609375 L 18.589844 13.609375 C 19.229844 13.609375 19.819609 13.780859 20.349609 14.130859 C 20.879609 14.470859 21.269297 14.93 21.529297 15.5 C 21.599297 15.61 21.660469 15.660156 21.730469 15.660156 L 23.169922 15.660156 C 23.299922 15.660156 23.350781 15.589688 23.300781 15.429688 L 23.099609 14.880859 C 23.108637 14.869694 23.118035 14.858867 23.126953 14.847656 z "
   style="fill:#7c7c7c;fill-opacity:1" /><path
   id="path11"
   d="m 18.978579,6.3748105 c -1.53513,0 -2.811942,0.5569956 -3.810547,1.6699219 l 1.410156,1 c 0.666285,-0.6670227 1.469131,-0.9902344 2.410157,-0.9902344 0.98,0 1.819765,0.3510157 2.509765,1.0410156 0.69,0.69 1.041016,1.5300004 1.041016,2.4999994 0,0.646713 -0.157754,1.243307 -0.484375,1.791016 l 1.066406,1.466797 c 0.730996,-0.928101 1.087891,-2.011996 1.087891,-3.257813 0,-0.709998 -0.140157,-1.381249 -0.410157,-2.0312494 -0.269999,-0.65 -0.639374,-1.1999218 -1.109374,-1.6699219 -0.460001,-0.47 -1.021875,-0.8391406 -1.671876,-1.1191406 -0.649999,-0.28 -1.319062,-0.4003906 -2.039062,-0.4003906 z"
   style="fill:#f8b602;fill-opacity:1" /><path
   d="m 11.26,4.66 c 0,0.24 0.08,0.43 0.23,0.59 l 0.65,0.64 c 0.17,0.18 0.36,0.27 0.58,0.27 0.22,0 0.42,-0.08 0.6,-0.25 0.17,-0.17 0.26,-0.37 0.26,-0.61 0,-0.24 -0.08,-0.45 -0.25,-0.63 L 12.69,4.06 C 12.53,3.89 12.33,3.8 12.09,3.8 c -0.24,0 -0.44,0.08 -0.6,0.25 -0.15,0.16 -0.23,0.37 -0.23,0.61 z"
   id="path5"
   style="fill:#f8b602;fill-opacity:1" /><path
   d="m 4.69,24.13 c 0,0.24 0.09,0.44 0.27,0.6 0.16,0.17 0.35,0.26 0.59,0.26 h 18.74 c 0.23,0 0.43,-0.08 0.6,-0.25 0.17,-0.17 0.25,-0.37 0.25,-0.61 0,-0.23 -0.08,-0.42 -0.25,-0.58 -0.17,-0.15 -0.37,-0.23 -0.6,-0.23 H 5.55 c -0.24,0 -0.44,0.08 -0.61,0.23 -0.17,0.16 -0.25,0.35 -0.25,0.58 z"
   id="path4"
   style="fill:#969aa5;fill-opacity:1" /><path
   d="m 2.94,17.92 c 0,0.23 0.08,0.43 0.25,0.58 0.17,0.18 0.37,0.27 0.6,0.27 h 18.72 c 0.23,0 0.43,-0.08 0.59,-0.25 0.16,-0.17 0.24,-0.37 0.24,-0.6 0,-0.23 -0.08,-0.43 -0.23,-0.59 -0.16,-0.16 -0.35,-0.24 -0.59,-0.24 H 3.8 c -0.24,0 -0.44,0.08 -0.6,0.24 -0.17,0.17 -0.26,0.36 -0.26,0.59 z"
   id="path2"
   style="fill:#969aa5;fill-opacity:1" /><path
   d="m 0.32,21.06 c 0,0.23 0.08,0.43 0.25,0.59 0.17,0.16 0.38,0.24 0.63,0.24 h 18.71 c 0.24,0 0.44,-0.08 0.61,-0.24 0.17,-0.16 0.25,-0.35 0.25,-0.59 0,-0.24 -0.08,-0.44 -0.25,-0.6 -0.17,-0.17 -0.37,-0.25 -0.61,-0.25 H 1.2 c -0.25,0 -0.46,0.08 -0.63,0.25 -0.17,0.17 -0.25,0.36 -0.25,0.6 z"
   id="path1"
   style="fill:#969aa5;fill-opacity:1" />
</svg>
