<?xml version="1.0" encoding="UTF-8" standalone="no"?>
<!-- Generator: Adobe Illustrator 22.0.1, SVG Export Plug-In . SVG Version: 6.00 Build 0)  -->

<svg
   version="1.1"
   id="Layer_1"
   x="0px"
   y="0px"
   viewBox="0 0 30 30"
   style="enable-background:new 0 0 30 30;"
   xml:space="preserve"
   sodipodi:docname="wi-day-sprinkle.svg"
   inkscape:version="1.4.2 (f4327f4, 2025-05-13)"
   xmlns:inkscape="http://www.inkscape.org/namespaces/inkscape"
   xmlns:sodipodi="http://sodipodi.sourceforge.net/DTD/sodipodi-0.dtd"
   xmlns="http://www.w3.org/2000/svg"
   xmlns:svg="http://www.w3.org/2000/svg"><defs
   id="defs1" /><sodipodi:namedview
   id="namedview1"
   pagecolor="#ffffff"
   bordercolor="#000000"
   borderopacity="0.25"
   inkscape:showpageshadow="2"
   inkscape:pageopacity="0.0"
   inkscape:pagecheckerboard="0"
   inkscape:deskcolor="#d1d1d1"
   inkscape:zoom="32"
   inkscape:cx="12.421875"
   inkscape:cy="15.390625"
   inkscape:window-width="2400"
   inkscape:window-height="1261"
   inkscape:window-x="-9"
   inkscape:window-y="-9"
   inkscape:window-maximized="1"
   inkscape:current-layer="Layer_1" />
<path
   d="m 24.67,11.6 c 0,0.22 0.08,0.42 0.25,0.58 0.17,0.16 0.38,0.24 0.63,0.24 h 2.02 c 0.24,0 0.44,-0.08 0.6,-0.24 0.17,-0.16 0.25,-0.35 0.25,-0.59 0,-0.24 -0.08,-0.44 -0.25,-0.6 C 28,10.83 27.8,10.74 27.57,10.74 h -2.02 c -0.24,0 -0.44,0.08 -0.62,0.25 -0.18,0.17 -0.26,0.38 -0.26,0.61 z"
   id="path10"
   style="fill:#f8b602;fill-opacity:1" /><path
   d="m 23.22,17.89 c 0,0.25 0.08,0.46 0.23,0.64 l 0.65,0.58 c 0.14,0.18 0.34,0.27 0.59,0.27 0.24,0 0.44,-0.09 0.58,-0.27 0.18,-0.16 0.27,-0.36 0.27,-0.58 0,-0.22 -0.09,-0.41 -0.27,-0.58 L 24.66,17.3 c -0.18,-0.16 -0.38,-0.24 -0.61,-0.24 -0.24,0 -0.44,0.08 -0.6,0.24 -0.16,0.16 -0.23,0.36 -0.23,0.59 z"
   id="path9"
   style="fill:#f8b602;fill-opacity:1" /><path
   d="m 22.42,6.11 c 0,0.24 0.08,0.44 0.25,0.59 0.17,0.16 0.36,0.24 0.56,0.24 0.17,0 0.38,-0.08 0.61,-0.24 L 25.27,5.27 C 25.45,5.09 25.54,4.88 25.54,4.65 25.54,4.41 25.46,4.2 25.29,4.04 25.12,3.88 24.92,3.8 24.68,3.8 24.46,3.8 24.27,3.88 24.1,4.05 L 22.67,5.48 C 22.5,5.65 22.42,5.86 22.42,6.11 Z"
   id="path8"
   style="fill:#f8b602;fill-opacity:1" /><path
   d="m 16.9,3.8 c 0,0.24 0.09,0.44 0.26,0.61 0.17,0.17 0.37,0.25 0.6,0.25 0.23,0 0.43,-0.08 0.58,-0.25 C 18.5,4.24 18.57,4.04 18.57,3.8 V 1.76 C 18.57,1.52 18.49,1.33 18.34,1.17 18.19,1.01 18,0.94 17.77,0.94 17.54,0.94 17.33,1.02 17.16,1.17 16.99,1.32 16.9,1.52 16.9,1.76 Z"
   id="path7"
   style="fill:#f8b602;fill-opacity:1" /><path
   id="path13"
   d="M 21.835938 14.884766 L 20.771484 13.435547 C 20.770864 13.436683 20.770153 13.438317 20.769531 13.439453 C 19.799531 12.479453 18.640781 12 17.300781 12 L 16.970703 12 C 16.680703 10.84 16.120781 9.8605469 15.300781 9.0605469 L 15.302734 9.0585938 L 13.871094 8.078125 C 13.061602 7.6519416 12.175347 7.4394531 11.220703 7.4394531 C 9.8107032 7.4394531 8.5704688 7.88 7.4804688 8.75 C 6.3904686 9.62 5.700625 10.739844 5.390625 12.089844 C 4.290625 12.349844 3.3799219 12.930313 2.6699219 13.820312 C 1.9299219 14.730314 1.5800781 15.750625 1.5800781 16.890625 C 1.5800781 17.760625 1.7907031 18.570547 2.2207031 19.310547 C 2.6407031 20.060547 3.2192187 20.659375 3.9492188 21.109375 C 4.6792186 21.559375 5.4796094 21.799844 6.3496094 21.839844 C 6.4696094 21.839844 6.5292969 21.779922 6.5292969 21.669922 L 6.5292969 20.339844 C 6.5292969 20.219844 6.4696094 20.150391 6.3496094 20.150391 C 5.4996094 20.110391 4.7699219 19.770859 4.1699219 19.130859 C 3.5699219 18.490859 3.2695313 17.750859 3.2695312 16.880859 C 3.2695312 16.060859 3.549375 15.340469 4.109375 14.730469 C 4.669375 14.120469 5.3692188 13.769922 6.1992188 13.669922 L 6.7207031 13.640625 C 6.8407031 13.640625 6.9101562 13.580936 6.9101562 13.460938 L 6.9902344 12.919922 C 7.1002344 11.839922 7.5496094 10.940937 8.3496094 10.210938 C 9.1496094 9.480937 10.099219 9.1191406 11.199219 9.1191406 C 12.269219 9.1191406 13.219063 9.480937 14.039062 10.210938 C 14.859064 10.940937 15.319453 11.840156 15.439453 12.910156 L 15.509766 13.490234 C 15.509766 13.600234 15.569688 13.660156 15.679688 13.660156 L 17.300781 13.660156 C 18.180781 13.660156 18.949844 13.979141 19.589844 14.619141 C 20.239844 15.259141 20.560547 16.010859 20.560547 16.880859 C 20.560547 17.740859 20.260156 18.490859 19.660156 19.130859 C 19.060156 19.760859 18.330469 20.100391 17.480469 20.150391 C 17.360469 20.150391 17.300781 20.209844 17.300781 20.339844 L 17.300781 21.669922 C 17.300781 21.779922 17.360469 21.839844 17.480469 21.839844 C 18.350469 21.819844 19.150859 21.579141 19.880859 21.119141 C 20.610859 20.659141 21.189375 20.070313 21.609375 19.320312 C 22.029375 18.570312 22.240234 17.760625 22.240234 16.890625 C 22.240234 16.150625 22.100078 15.490625 21.830078 14.890625 C 21.831774 14.88856 21.834246 14.886832 21.835938 14.884766 z "
   style="fill:#7c7c7c;fill-opacity:1" /><path
   id="path11"
   d="m 17.732422,6.3769531 c -1.547324,0 -2.834166,0.5785582 -3.863281,1.7246094 l 1.392578,0.9589844 C 15.920385,8.4056595 16.7365,8.078125 17.722656,8.078125 c 0.98,0 1.800235,0.3392969 2.490235,1.0292969 0.68,0.69 1.029296,1.5199991 1.029296,2.4999991 0,0.58574 -0.166832,1.191225 -0.511718,1.826172 l 1.068359,1.445313 c 0.769268,-0.945565 1.144531,-2.039773 1.144531,-3.28125 0,-0.94 -0.231172,-1.8191404 -0.701172,-2.6191404 -0.469999,-0.8 -1.098437,-1.4403906 -1.898437,-1.9003906 -0.8,-0.47 -1.671328,-0.7011719 -2.611328,-0.7011719 z"
   style="fill:#f8b602;fill-opacity:1" /><path
   d="m 11.93,15.11 c 0,0.25 0.1,0.47 0.29,0.65 0.19,0.18 0.42,0.27 0.69,0.27 0.26,0 0.48,-0.09 0.66,-0.27 0.18,-0.18 0.27,-0.4 0.27,-0.65 0,-0.41 -0.31,-0.95 -0.93,-1.6 l -0.24,0.25 c -0.18,0.2 -0.35,0.43 -0.5,0.7 -0.17,0.27 -0.24,0.48 -0.24,0.65 z"
   id="path5"
   style="fill:#1999e0;fill-opacity:1" /><path
   d="m 10.45,21.73 c 0,0.66 0.23,1.21 0.68,1.65 0.45,0.44 1,0.67 1.65,0.67 0.65,0 1.2,-0.23 1.66,-0.68 0.46,-0.46 0.68,-1 0.68,-1.64 0,-0.54 -0.27,-1.19 -0.81,-1.97 -0.46,-0.61 -0.89,-1.1 -1.28,-1.49 -0.08,-0.06 -0.17,-0.13 -0.26,-0.23 l -0.23,0.23 c -0.36,0.32 -0.78,0.82 -1.27,1.47 -0.54,0.76 -0.82,1.42 -0.82,1.99 z"
   id="path4"
   style="fill:#1999e0;fill-opacity:1" /><path
   d="m 9.97,4.66 c 0,0.26 0.08,0.46 0.24,0.61 l 0.65,0.66 c 0.42,0.31 0.82,0.31 1.21,0 0.16,-0.19 0.24,-0.41 0.24,-0.64 0,-0.23 -0.08,-0.43 -0.24,-0.59 L 11.43,4.05 C 11.24,3.88 11.04,3.8 10.82,3.8 10.58,3.8 10.37,3.88 10.21,4.05 10.05,4.22 9.97,4.42 9.97,4.66 Z"
   id="path3"
   style="fill:#f8b602;fill-opacity:1" /><path
   d="m 7.48,17.77 c 0,0.38 0.14,0.71 0.42,0.98 0.28,0.27 0.62,0.4 1.01,0.4 0.4,0 0.73,-0.13 1,-0.4 0.27,-0.27 0.4,-0.59 0.4,-0.98 0,-0.24 -0.12,-0.58 -0.35,-1 C 9.73,16.34 9.51,16.01 9.31,15.78 9.1,15.56 8.96,15.41 8.91,15.36 l -0.36,0.4 c -0.27,0.29 -0.52,0.63 -0.74,1.03 -0.22,0.4 -0.33,0.73 -0.33,0.98 z"
   id="path2"
   style="fill:#1999e0;fill-opacity:1" />
</svg>
