<?xml version="1.0" encoding="UTF-8" standalone="no"?>
<!-- Generator: Adobe Illustrator 22.0.1, SVG Export Plug-In . SVG Version: 6.00 Build 0)  -->

<svg
   version="1.1"
   id="Layer_1"
   x="0px"
   y="0px"
   viewBox="0 0 30 30"
   style="enable-background:new 0 0 30 30;"
   xml:space="preserve"
   sodipodi:docname="wi-day-showers.svg"
   inkscape:version="1.4.2 (f4327f4, 2025-05-13)"
   xmlns:inkscape="http://www.inkscape.org/namespaces/inkscape"
   xmlns:sodipodi="http://sodipodi.sourceforge.net/DTD/sodipodi-0.dtd"
   xmlns="http://www.w3.org/2000/svg"
   xmlns:svg="http://www.w3.org/2000/svg"><defs
   id="defs1" /><sodipodi:namedview
   id="namedview1"
   pagecolor="#ffffff"
   bordercolor="#000000"
   borderopacity="0.25"
   inkscape:showpageshadow="2"
   inkscape:pageopacity="0.0"
   inkscape:pagecheckerboard="0"
   inkscape:deskcolor="#d1d1d1"
   inkscape:zoom="36.439569"
   inkscape:cx="16.534224"
   inkscape:cy="14.201595"
   inkscape:window-width="2400"
   inkscape:window-height="1261"
   inkscape:window-x="-9"
   inkscape:window-y="-9"
   inkscape:window-maximized="1"
   inkscape:current-layer="Layer_1" />
<path
   d="m 24.71,11.64 c 0,0.22 0.08,0.42 0.24,0.58 0.16,0.16 0.36,0.24 0.58,0.24 h 2.04 c 0.26,0 0.47,-0.08 0.63,-0.23 0.16,-0.16 0.24,-0.35 0.24,-0.59 0,-0.25 -0.08,-0.46 -0.25,-0.62 -0.17,-0.16 -0.37,-0.24 -0.62,-0.24 h -2.04 c -0.23,0 -0.43,0.08 -0.59,0.25 -0.15,0.17 -0.23,0.38 -0.23,0.61 z"
   id="path13"
   style="fill:#f8b602;fill-opacity:1" /><path
   d="m 23.24,17.95 c 0,0.23 0.09,0.44 0.26,0.63 l 0.62,0.64 c 0.21,0.21 0.41,0.31 0.62,0.31 0.19,0 0.39,-0.1 0.58,-0.31 0.18,-0.18 0.27,-0.39 0.26,-0.61 -0.01,-0.23 -0.09,-0.43 -0.26,-0.6 l -0.65,-0.66 c -0.16,-0.16 -0.35,-0.24 -0.57,-0.24 -0.24,0 -0.44,0.08 -0.61,0.25 -0.16,0.16 -0.25,0.36 -0.25,0.59 z"
   id="path12"
   style="fill:#f8b602;fill-opacity:1" /><path
   d="m 22.45,6.12 c 0,0.25 0.08,0.45 0.23,0.61 0.21,0.17 0.41,0.25 0.62,0.25 0.19,0 0.38,-0.08 0.59,-0.25 L 25.32,5.3 C 25.48,5.12 25.56,4.91 25.56,4.67 25.56,4.43 25.48,4.23 25.32,4.07 25.16,3.91 24.96,3.83 24.73,3.83 24.5,3.83 24.3,3.91 24.12,4.07 L 22.68,5.5 c -0.15,0.18 -0.23,0.38 -0.23,0.62 z"
   id="path11"
   style="fill:#f8b602;fill-opacity:1" /><path
   d="m 16.9,3.83 c 0,0.25 0.08,0.45 0.24,0.61 C 17.3,4.6 17.5,4.68 17.75,4.68 18,4.68 18.2,4.6 18.36,4.44 18.52,4.28 18.6,4.08 18.6,3.83 V 1.81 C 18.6,1.56 18.52,1.35 18.36,1.19 18.2,1.03 18,0.95 17.75,0.95 17.5,0.95 17.3,1.03 17.14,1.19 16.98,1.35 16.9,1.56 16.9,1.81 Z"
   id="path10"
   style="fill:#f8b602;fill-opacity:1" /><path
   id="path16"
   d="M 21.884766 14.888672 L 20.794922 13.365234 C 19.844016 12.435199 18.707971 11.980469 17.369141 11.980469 L 17.029297 11.980469 C 16.769297 10.840469 16.209375 9.8705469 15.359375 9.0605469 C 15.362005 9.0579965 15.364553 9.0552746 15.367188 9.0527344 L 13.960938 8.0566406 C 13.956977 8.0608843 13.953172 8.0660523 13.949219 8.0703125 C 13.159219 7.6403125 12.250703 7.4296875 11.220703 7.4296875 C 9.8107032 7.4296875 8.5607031 7.8702344 7.4707031 8.7402344 C 6.3807031 9.6102344 5.7003906 10.729844 5.4003906 12.089844 C 4.2803906 12.349844 3.3508594 12.920547 2.6308594 13.810547 C 1.9208594 14.700547 1.5605469 15.730859 1.5605469 16.880859 C 1.5605469 18.210859 2.0192187 19.350547 2.9492188 20.310547 C 3.8792187 21.270547 5.0096094 21.769844 6.3496094 21.839844 C 6.4596094 21.839844 6.5195313 21.779922 6.5195312 21.669922 L 6.5195312 20.330078 C 6.5195312 20.210078 6.4596094 20.150391 6.3496094 20.150391 C 5.4996094 20.110391 4.7796875 19.770859 4.1796875 19.130859 C 3.5796875 18.490859 3.2890625 17.740859 3.2890625 16.880859 C 3.2890625 16.040859 3.5708594 15.320937 4.1308594 14.710938 C 4.6908594 14.100937 5.3904686 13.750391 6.2304688 13.650391 L 6.7304688 13.609375 C 6.8604687 13.609375 6.9296875 13.549686 6.9296875 13.429688 L 6.9902344 12.900391 C 7.1002344 11.820391 7.549375 10.909453 8.359375 10.189453 C 9.169375 9.4594532 10.120703 9.0996094 11.220703 9.0996094 C 12.310703 9.0996094 13.270078 9.4594532 14.080078 10.189453 C 14.890078 10.919453 15.349219 11.820391 15.449219 12.900391 L 15.519531 13.470703 C 15.519531 13.590703 15.579219 13.650391 15.699219 13.650391 L 17.369141 13.650391 C 18.249141 13.650391 19.000625 13.969375 19.640625 14.609375 C 20.280625 15.249375 20.599609 16.000859 20.599609 16.880859 C 20.599609 17.730859 20.299219 18.469609 19.699219 19.099609 C 19.099219 19.729609 18.379062 20.080391 17.539062 20.150391 C 17.429063 20.150391 17.369141 20.210078 17.369141 20.330078 L 17.369141 21.669922 C 17.369141 21.779922 17.429062 21.839844 17.539062 21.839844 C 18.419062 21.819844 19.209453 21.579141 19.939453 21.119141 C 20.669453 20.659141 21.240391 20.070312 21.650391 19.320312 C 22.070391 18.570312 22.269531 17.760859 22.269531 16.880859 C 22.269531 16.170859 22.129375 15.509922 21.859375 14.919922 C 21.867682 14.909647 21.876551 14.898982 21.884766 14.888672 z "
   style="fill:#7c7c7c;fill-opacity:1" /><path
   id="path14"
   d="m 17.730659,6.4295611 c -1.499666,0 -2.762842,0.5419252 -3.789063,1.6367188 l 1.349609,0.9570312 0.05469,0.041016 c 0.656977,-0.6299116 1.452215,-0.9453125 2.384766,-0.9453125 0.98,0 1.819765,0.3510156 2.509765,1.0410156 0.69,0.69 1.041016,1.5297661 1.041016,2.5097661 0,0.559416 -0.161337,1.14849 -0.470703,1.757812 l 1.060547,1.460938 c 0.732267,-0.928232 1.089843,-2.001266 1.089843,-3.228516 0,-0.71 -0.140156,-1.391016 -0.410156,-2.0410157 -0.27,-0.65 -0.649142,-1.1999219 -1.11914,-1.6699219 -0.460001,-0.47 -1.020157,-0.839375 -1.660157,-1.109375 -0.65,-0.28 -1.331015,-0.4101562 -2.041015,-0.4101563 z"
   style="fill:#f8b602;fill-opacity:1" /><path
   d="m 15.03,18.92 c 0,0.16 0.05,0.32 0.15,0.48 0.1,0.16 0.25,0.27 0.45,0.32 l 0.25,0.03 c 0.19,0 0.37,-0.06 0.52,-0.18 0.15,-0.12 0.24,-0.28 0.28,-0.47 l 0.27,-0.99 C 17.02,17.87 17,17.66 16.88,17.46 16.77,17.26 16.6,17.13 16.37,17.07 16.14,17 15.92,17.02 15.73,17.13 c -0.2,0.11 -0.33,0.28 -0.39,0.5 l -0.3,1.06 c 0,0.08 -0.01,0.16 -0.01,0.23 z"
   id="path8"
   style="fill:#1999e0;fill-opacity:1" /><path
   d="m 13.63,23.68 c 0.02,0.38 0.23,0.65 0.63,0.83 l 0.25,0.04 c 0.16,0 0.32,-0.05 0.47,-0.16 0.15,-0.11 0.26,-0.27 0.32,-0.5 l 0.29,-1.01 c 0.06,-0.24 0.03,-0.46 -0.09,-0.66 -0.12,-0.2 -0.3,-0.33 -0.53,-0.37 -0.21,-0.07 -0.41,-0.05 -0.62,0.07 -0.21,0.12 -0.34,0.29 -0.41,0.51 l -0.27,1.02 c -0.01,0.02 -0.01,0.05 -0.02,0.08 -0.01,0.03 -0.01,0.06 -0.02,0.08 -0.01,0.02 0,0.05 0,0.07 z"
   id="path7"
   style="fill:#1999e0;fill-opacity:1" /><path
   d="m 10.85,21.96 c 0,0.17 0.05,0.34 0.16,0.51 0.11,0.17 0.26,0.28 0.47,0.35 0.23,0.07 0.44,0.05 0.64,-0.05 0.19,-0.1 0.33,-0.29 0.4,-0.56 l 0.24,-1.01 c 0.07,-0.23 0.05,-0.45 -0.06,-0.65 -0.11,-0.2 -0.28,-0.34 -0.5,-0.41 -0.25,-0.07 -0.48,-0.04 -0.68,0.08 -0.2,0.12 -0.33,0.3 -0.37,0.53 l -0.28,1.03 c -0.02,0.03 -0.02,0.09 -0.02,0.18 z"
   id="path6"
   style="fill:#1999e0;fill-opacity:1" /><path
   d="m 9.96,4.68 c 0,0.25 0.08,0.46 0.25,0.62 l 0.66,0.65 c 0.34,0.34 0.73,0.34 1.17,0 0.16,-0.17 0.24,-0.38 0.24,-0.61 0,-0.23 -0.08,-0.43 -0.24,-0.61 L 11.41,4.07 c -0.16,-0.16 -0.36,-0.24 -0.6,-0.24 -0.23,0 -0.43,0.08 -0.6,0.25 -0.17,0.16 -0.25,0.36 -0.25,0.6 z"
   id="path5"
   style="fill:#f8b602;fill-opacity:1" /><path
   d="m 9.5,26.75 c 0,0.16 0.06,0.33 0.17,0.5 0.11,0.17 0.28,0.29 0.49,0.36 0.01,0 0.04,0 0.1,0.01 0.06,0.01 0.11,0.01 0.15,0.01 0.14,0 0.26,-0.02 0.37,-0.07 0.19,-0.08 0.33,-0.27 0.41,-0.58 l 0.27,-0.99 c 0.07,-0.23 0.05,-0.45 -0.07,-0.65 -0.12,-0.2 -0.29,-0.34 -0.51,-0.4 -0.23,-0.07 -0.45,-0.05 -0.65,0.07 -0.2,0.12 -0.34,0.29 -0.4,0.51 L 9.55,26.54 C 9.51,26.63 9.5,26.7 9.5,26.75 Z"
   id="path4"
   style="fill:#1999e0;fill-opacity:1" /><path
   d="m 8.28,18.86 c 0,0.38 0.21,0.64 0.64,0.79 0.22,0.08 0.43,0.06 0.64,-0.05 0.21,-0.11 0.34,-0.29 0.41,-0.53 l 0.24,-1.03 C 10.28,17.83 10.26,17.63 10.14,17.42 10.03,17.21 9.86,17.07 9.63,17 9.39,16.94 9.16,16.96 8.96,17.08 8.76,17.2 8.64,17.37 8.59,17.6 l -0.3,1.02 c 0,0.08 -0.01,0.16 -0.01,0.24 z"
   id="path3"
   style="fill:#1999e0;fill-opacity:1" /><path
   d="m 6.97,23.58 c 0,0.18 0.05,0.36 0.16,0.53 0.11,0.18 0.26,0.29 0.45,0.36 0.19,0.07 0.4,0.05 0.61,-0.06 0.22,-0.11 0.36,-0.29 0.44,-0.55 L 8.88,22.81 C 8.95,22.6 8.93,22.4 8.81,22.19 8.69,21.98 8.52,21.84 8.3,21.77 8.05,21.71 7.83,21.74 7.63,21.85 c -0.2,0.11 -0.32,0.3 -0.37,0.53 l -0.28,0.99 c 0,0.05 -0.01,0.12 -0.01,0.21 z"
   id="path2"
   style="fill:#1999e0;fill-opacity:1" />
</svg>
