<?xml version="1.0" encoding="UTF-8" standalone="no"?>
<!-- Generator: Adobe Illustrator 22.0.1, SVG Export Plug-In . SVG Version: 6.00 Build 0)  -->

<svg
   version="1.1"
   id="Layer_1"
   x="0px"
   y="0px"
   viewBox="0 0 30 30"
   style="enable-background:new 0 0 30 30;"
   xml:space="preserve"
   sodipodi:docname="wi-day-lightning.svg"
   inkscape:export-filename="C:\Users\a00540149\OneDrive - ONEVIRTUALOFFICE\Documents\inky-frame-app\public\day-lightning.svg"
   inkscape:export-xdpi="96"
   inkscape:export-ydpi="96"
   inkscape:version="1.4.2 (f4327f4, 2025-05-13)"
   xmlns:inkscape="http://www.inkscape.org/namespaces/inkscape"
   xmlns:sodipodi="http://sodipodi.sourceforge.net/DTD/sodipodi-0.dtd"
   xmlns="http://www.w3.org/2000/svg"
   xmlns:svg="http://www.w3.org/2000/svg"><defs
   id="defs1" /><sodipodi:namedview
   id="namedview1"
   pagecolor="#ffffff"
   bordercolor="#000000"
   borderopacity="0.25"
   inkscape:showpageshadow="2"
   inkscape:pageopacity="0.0"
   inkscape:pagecheckerboard="0"
   inkscape:deskcolor="#d1d1d1"
   inkscape:zoom="32"
   inkscape:cx="19"
   inkscape:cy="12.203125"
   inkscape:window-width="2400"
   inkscape:window-height="1261"
   inkscape:window-x="-9"
   inkscape:window-y="-9"
   inkscape:window-maximized="1"
   inkscape:current-layer="Layer_1" />
<path
   d="m 24.68,11.56 c 0,0.22 0.09,0.41 0.26,0.57 0.17,0.17 0.37,0.25 0.6,0.25 h 2.04 c 0.24,0 0.44,-0.08 0.61,-0.24 0.17,-0.16 0.25,-0.35 0.25,-0.59 0,-0.24 -0.09,-0.44 -0.26,-0.61 -0.17,-0.17 -0.37,-0.25 -0.6,-0.25 h -2.04 c -0.23,0 -0.43,0.08 -0.6,0.25 -0.17,0.18 -0.26,0.38 -0.26,0.62 z"
   id="path8"
   style="fill:#f8b602;fill-opacity:1" /><path
   d="m 23.23,17.87 c 0,0.23 0.08,0.43 0.24,0.61 l 0.65,0.66 c 0.16,0.16 0.36,0.24 0.58,0.24 0.24,0 0.44,-0.08 0.6,-0.25 0.17,-0.17 0.25,-0.38 0.25,-0.63 0,-0.23 -0.08,-0.42 -0.25,-0.57 l -0.62,-0.66 c -0.19,-0.16 -0.39,-0.23 -0.62,-0.23 -0.23,0 -0.43,0.08 -0.59,0.24 -0.16,0.16 -0.24,0.36 -0.24,0.59 z"
   id="path7"
   style="fill:#f8b602;fill-opacity:1" /><path
   d="m 22.42,6.05 c 0,0.23 0.09,0.43 0.27,0.6 0.18,0.17 0.37,0.25 0.55,0.25 0.16,0 0.37,-0.08 0.62,-0.25 L 25.3,5.22 C 25.47,5.04 25.55,4.83 25.55,4.59 25.55,4.35 25.47,4.14 25.3,3.98 25.13,3.82 24.93,3.74 24.7,3.74 c -0.22,0 -0.41,0.08 -0.58,0.25 l -1.43,1.43 c -0.18,0.19 -0.27,0.4 -0.27,0.63 z"
   id="path6"
   style="fill:#f8b602;fill-opacity:1" /><path
   d="m 16.9,3.73 c 0,0.25 0.08,0.46 0.24,0.62 0.16,0.16 0.36,0.24 0.61,0.24 0.24,0 0.43,-0.08 0.59,-0.24 0.16,-0.16 0.23,-0.37 0.23,-0.62 V 1.69 C 18.57,1.45 18.49,1.26 18.34,1.1 18.18,0.94 17.99,0.87 17.75,0.87 17.51,0.87 17.31,0.95 17.15,1.1 16.99,1.25 16.9,1.45 16.9,1.69 Z"
   id="path5"
   style="fill:#f8b602;fill-opacity:1" /><path
   id="path11"
   d="M 21.820312 14.830078 L 20.769531 13.369141 C 19.789531 12.429141 18.640547 11.960938 17.310547 11.960938 L 17 11.960938 C 16.743027 10.83421 16.173411 9.8629957 15.310547 9.0488281 L 13.882812 8.0488281 L 13.880859 8.0507812 C 13.020859 7.6407813 12.140469 7.4296875 11.230469 7.4296875 C 9.8104686 7.4296875 8.5607031 7.8604686 7.4707031 8.7304688 C 6.3807031 9.6004686 5.6791406 10.719609 5.3691406 12.099609 C 4.2691406 12.359609 3.360625 12.930078 2.640625 13.830078 C 1.920625 14.730078 1.5605469 15.750391 1.5605469 16.900391 C 1.5605469 18.230391 2.0192187 19.370078 2.9492188 20.330078 C 3.8792187 21.290078 5.0096094 21.799375 6.3496094 21.859375 C 6.4596094 21.859375 6.5195313 21.799453 6.5195312 21.689453 L 6.5195312 20.320312 C 6.5195312 20.200312 6.4596094 20.140625 6.3496094 20.140625 C 5.4796094 20.070625 4.7501562 19.729609 4.1601562 19.099609 C 3.5701562 18.479609 3.2695313 17.740625 3.2695312 16.890625 C 3.2695312 16.050625 3.5491406 15.319219 4.1191406 14.699219 C 4.6891406 14.079219 5.3807031 13.730156 6.2207031 13.660156 L 6.7402344 13.580078 C 6.8702344 13.580078 6.9394531 13.520156 6.9394531 13.410156 L 7 12.900391 C 7.11 11.820391 7.5591406 10.909453 8.3691406 10.189453 C 9.1791406 9.4594532 10.130469 9.0996094 11.230469 9.0996094 C 12.320469 9.0996094 13.270078 9.4594532 14.080078 10.189453 C 14.890078 10.909453 15.350703 11.820156 15.470703 12.910156 L 15.539062 13.490234 C 15.539062 13.600234 15.600469 13.660156 15.730469 13.660156 L 17.330078 13.660156 C 18.240078 13.660156 19.010391 13.979375 19.650391 14.609375 C 20.290391 15.239375 20.609375 16.000625 20.609375 16.890625 C 20.609375 17.740625 20.310703 18.479609 19.720703 19.099609 C 19.130703 19.719609 18.399297 20.070625 17.529297 20.140625 C 17.399297 20.140625 17.330078 20.200314 17.330078 20.320312 L 17.330078 21.689453 C 17.330078 21.799453 17.399297 21.859375 17.529297 21.859375 C 18.859297 21.819375 19.990156 21.309609 20.910156 20.349609 C 21.830156 19.389609 22.289062 18.240391 22.289062 16.900391 C 22.289062 16.220391 22.130312 15.530078 21.820312 14.830078 z "
   style="fill:#7c7c7c;fill-opacity:1" /><path
   id="path9"
   d="m 17.720704,6.34375 c -1.539235,0 -2.837213,0.5796531 -3.876954,1.7285156 l 1.404297,0.9628907 c 0.678371,-0.6741847 1.50681,-1.0117188 2.472657,-1.0117188 0.98,0 1.810234,0.3490625 2.490234,1.0390625 0.69,0.69 1.029297,1.531484 1.029297,2.521484 0,0.600044 -0.165156,1.189131 -0.494141,1.779297 l 1.048828,1.474609 c 0.771,-0.936234 1.166016,-2.021172 1.166016,-3.253906 0,-0.71 -0.139922,-1.391016 -0.419922,-2.0410153 -0.28,-0.6499999 -0.64914,-1.1999218 -1.11914,-1.6699218 C 20.951875,7.4030469 20.39,7.0339062 19.75,6.7539063 19.100001,6.4839062 18.430704,6.34375 17.720704,6.34375 Z"
   style="fill:#f8b602;fill-opacity:1" /><path
   d="m 9.94,4.59 c 0,0.25 0.08,0.46 0.24,0.62 l 0.66,0.65 c 0.42,0.32 0.82,0.32 1.21,0 0.16,-0.18 0.24,-0.39 0.24,-0.64 0,-0.23 -0.08,-0.43 -0.24,-0.59 L 11.41,3.98 C 11.22,3.81 11.02,3.73 10.79,3.73 c -0.23,0 -0.43,0.08 -0.6,0.25 -0.17,0.17 -0.25,0.38 -0.25,0.61 z"
   id="path3"
   style="fill:#f8b602;fill-opacity:1" /><path
   d="m 9.06,28.17 h 0.3 l 5.32,-7.85 c 0.04,-0.04 0.05,-0.09 0.02,-0.14 -0.03,-0.05 -0.07,-0.07 -0.14,-0.07 h -2.18 l 2.3,-4.21 c 0.07,-0.14 0.03,-0.22 -0.14,-0.22 H 11.6 c -0.08,0 -0.15,0.05 -0.22,0.14 l -2.16,5.72 c -0.02,0.14 0.02,0.21 0.14,0.21 h 2.17 z"
   id="path2"
   style="fill:#e87502;fill-opacity:1" />
</svg>
