<?xml version="1.0" encoding="UTF-8" standalone="no"?>
<!-- Generator: Adobe Illustrator 22.0.1, SVG Export Plug-In . SVG Version: 6.00 Build 0)  -->

<svg
   version="1.1"
   id="Layer_1"
   x="0px"
   y="0px"
   viewBox="0 0 30 30"
   style="enable-background:new 0 0 30 30;"
   xml:space="preserve"
   sodipodi:docname="wi-day-rain-mix.svg"
   inkscape:version="1.4.2 (f4327f4, 2025-05-13)"
   xmlns:inkscape="http://www.inkscape.org/namespaces/inkscape"
   xmlns:sodipodi="http://sodipodi.sourceforge.net/DTD/sodipodi-0.dtd"
   xmlns="http://www.w3.org/2000/svg"
   xmlns:svg="http://www.w3.org/2000/svg"><defs
   id="defs1" /><sodipodi:namedview
   id="namedview1"
   pagecolor="#ffffff"
   bordercolor="#000000"
   borderopacity="0.25"
   inkscape:showpageshadow="2"
   inkscape:pageopacity="0.0"
   inkscape:pagecheckerboard="0"
   inkscape:deskcolor="#d1d1d1"
   inkscape:zoom="32"
   inkscape:cx="7.875"
   inkscape:cy="16.390625"
   inkscape:window-width="1920"
   inkscape:window-height="991"
   inkscape:window-x="4791"
   inkscape:window-y="-9"
   inkscape:window-maximized="1"
   inkscape:current-layer="Layer_1" />
<path
   d="m 24.66,11.6 c 0,0.24 0.09,0.43 0.26,0.59 0.18,0.18 0.39,0.27 0.62,0.27 h 2.03 c 0.23,0 0.43,-0.08 0.59,-0.25 0.16,-0.17 0.24,-0.37 0.24,-0.61 0,-0.24 -0.08,-0.44 -0.24,-0.6 C 28,10.83 27.81,10.75 27.57,10.75 h -2.03 c -0.24,0 -0.44,0.08 -0.62,0.25 -0.18,0.17 -0.26,0.37 -0.26,0.6 z"
   id="path16"
   style="fill:#f8b602;fill-opacity:1" /><path
   d="m 23.18,17.94 c 0,0.23 0.09,0.43 0.27,0.59 l 0.61,0.63 c 0.2,0.16 0.4,0.24 0.61,0.24 0.2,0 0.4,-0.08 0.6,-0.24 0.17,-0.16 0.25,-0.35 0.25,-0.59 0,-0.23 -0.08,-0.43 -0.25,-0.62 l -0.65,-0.61 c -0.15,-0.17 -0.34,-0.25 -0.57,-0.25 -0.23,0 -0.43,0.08 -0.6,0.25 -0.18,0.17 -0.27,0.37 -0.27,0.6 z"
   id="path15"
   style="fill:#f8b602;fill-opacity:1" /><path
   d="m 22.4,6.09 c 0,0.25 0.08,0.45 0.23,0.6 0.36,0.36 0.76,0.36 1.21,0 l 1.43,-1.43 c 0.17,-0.17 0.25,-0.38 0.25,-0.63 0,-0.24 -0.08,-0.44 -0.25,-0.6 -0.17,-0.17 -0.37,-0.25 -0.6,-0.25 -0.23,0 -0.43,0.08 -0.61,0.24 L 22.63,5.5 C 22.48,5.65 22.4,5.84 22.4,6.09 Z"
   id="path14"
   style="fill:#f8b602;fill-opacity:1" /><path
   d="m 16.88,3.83 c 0,0.23 0.08,0.42 0.23,0.58 0.15,0.15 0.35,0.23 0.59,0.23 0.24,0 0.45,-0.08 0.62,-0.23 0.17,-0.15 0.25,-0.35 0.25,-0.58 V 1.76 c 0,-0.23 -0.09,-0.43 -0.26,-0.6 -0.17,-0.17 -0.38,-0.25 -0.61,-0.25 -0.23,0 -0.43,0.08 -0.58,0.25 -0.16,0.17 -0.23,0.37 -0.23,0.6 v 2.07 z"
   id="path13"
   style="fill:#f8b602;fill-opacity:1" /><path
   id="path19"
   d="M 21.792969 14.945312 L 20.736328 13.470703 C 20.734585 13.473658 20.73222 13.477516 20.730469 13.480469 C 19.750469 12.500469 18.580469 12.009766 17.230469 12.009766 L 16.919922 12.009766 C 16.64013 10.910584 16.069442 9.9393899 15.230469 9.0898438 L 13.802734 8.0761719 C 12.927119 7.6512691 12.023275 7.4394531 11.109375 7.4394531 C 9.699375 7.4394531 8.4491406 7.88 7.3691406 8.75 C 6.2891406 9.62 5.5990625 10.750859 5.2890625 12.130859 C 4.1690625 12.390859 3.2490625 12.959375 2.5390625 13.859375 C 1.8290625 14.759375 1.4804687 15.789219 1.4804688 16.949219 C 1.4804688 18.269219 1.9396094 19.409609 2.8496094 20.349609 C 3.7596094 21.289609 4.8904688 21.799375 6.2304688 21.859375 C 6.3504688 21.859375 6.4101563 21.799453 6.4101562 21.689453 L 6.4101562 20.359375 C 6.4101562 20.239375 6.3504688 20.179688 6.2304688 20.179688 C 5.3704687 20.139688 4.6505469 19.799686 4.0605469 19.179688 C 3.4705469 18.559687 3.1796875 17.809453 3.1796875 16.939453 C 3.1796875 16.099453 3.4595312 15.36 4.0195312 14.75 C 4.5795312 14.13 5.2791406 13.790703 6.1191406 13.720703 L 6.6503906 13.640625 C 6.7603906 13.640625 6.8105469 13.59 6.8105469 13.5 L 6.890625 12.949219 C 7.010625 11.859219 7.4795313 10.950469 8.2695312 10.230469 C 9.0595313 9.5104685 9.9996098 9.1601562 11.099609 9.1601562 C 12.199609 9.1601562 13.150936 9.5202348 13.960938 10.240234 C 14.780938 10.960234 15.239844 11.859686 15.339844 12.929688 L 15.410156 13.509766 C 15.430156 13.619766 15.510859 13.679688 15.630859 13.679688 L 17.230469 13.679688 C 18.120469 13.679688 18.879531 14.000625 19.519531 14.640625 C 20.159531 15.280625 20.480469 16.049219 20.480469 16.949219 C 20.480469 17.819219 20.189609 18.559453 19.599609 19.189453 C 19.009609 19.819453 18.289688 20.139453 17.429688 20.189453 C 17.299688 20.189453 17.230469 20.249141 17.230469 20.369141 L 17.230469 21.699219 C 17.230469 21.809219 17.299686 21.869141 17.429688 21.869141 C 18.759687 21.829141 19.880781 21.330859 20.800781 20.380859 C 21.710781 19.430859 22.169922 18.290938 22.169922 16.960938 C 22.169922 16.280938 22.039063 15.619219 21.789062 14.949219 C 21.790181 14.947842 21.791852 14.94669 21.792969 14.945312 z "
   style="fill:#7c7c7c;fill-opacity:1" /><path
   id="path17"
   d="m 17.687501,6.390625 c -1.538245,0 -2.828001,0.5789703 -3.857422,1.7363281 l 1.386718,0.984375 c 0.658359,-0.6537186 1.473709,-0.9804687 2.458985,-0.9804687 0.99,0 1.831484,0.3395312 2.521484,1.0195312 0.69,0.68 1.039063,1.5004684 1.039063,2.4804684 0,0.652365 -0.175533,1.277221 -0.517578,1.861329 l 1.064453,1.466796 c 0.767825,-0.955021 1.142578,-2.067953 1.142578,-3.328125 0,-0.71 -0.140157,-1.379297 -0.410157,-2.0292965 -0.269999,-0.65 -0.64914,-1.1999219 -1.11914,-1.6699219 -0.47,-0.47 -1.029922,-0.8410937 -1.669922,-1.1210937 -0.64,-0.28 -1.329062,-0.4199219 -2.039062,-0.4199219 z"
   style="fill:#f8b602;fill-opacity:1" /><path
   d="m 14.88,18.81 c 0,0.17 0.05,0.33 0.16,0.48 0.11,0.15 0.27,0.26 0.49,0.32 0.02,0 0.06,0.01 0.12,0.02 0.06,0.01 0.11,0.02 0.14,0.02 0.11,0 0.23,-0.03 0.37,-0.09 0.21,-0.11 0.34,-0.28 0.4,-0.52 l 0.24,-0.9 c 0.06,-0.23 0.04,-0.44 -0.07,-0.63 -0.11,-0.19 -0.28,-0.33 -0.5,-0.4 -0.23,-0.07 -0.45,-0.05 -0.64,0.06 -0.2,0.11 -0.33,0.27 -0.4,0.51 l -0.28,0.91 c 0,0.02 0,0.05 -0.01,0.11 -0.01,0.03 -0.02,0.07 -0.02,0.11 z"
   id="path11"
   style="fill:#1999e0;fill-opacity:1" /><path
   d="m 14.27,21.12 c 0,0.23 0.08,0.42 0.24,0.57 0.15,0.16 0.34,0.24 0.58,0.24 0.24,0 0.43,-0.08 0.59,-0.23 0.16,-0.16 0.23,-0.35 0.23,-0.58 0,-0.24 -0.08,-0.43 -0.23,-0.59 -0.16,-0.16 -0.35,-0.23 -0.59,-0.23 -0.24,0 -0.43,0.08 -0.59,0.23 -0.16,0.15 -0.23,0.35 -0.23,0.59 z"
   id="path10"
   style="fill:#f9f9f9;fill-opacity:1" /><path
   d="m 13.53,24.08 c 0,0.17 0.05,0.33 0.15,0.48 0.1,0.15 0.25,0.26 0.46,0.32 0.03,0 0.08,0.01 0.14,0.02 0.06,0.01 0.11,0.02 0.14,0.02 0.41,0 0.66,-0.22 0.76,-0.66 l 0.14,-0.6 c 0.07,-0.21 0.05,-0.42 -0.07,-0.63 -0.12,-0.21 -0.29,-0.34 -0.51,-0.41 -0.25,-0.06 -0.48,-0.04 -0.68,0.08 -0.2,0.12 -0.34,0.29 -0.41,0.53 l -0.09,0.59 c 0,0.01 0,0.05 -0.01,0.11 -0.01,0.07 -0.02,0.11 -0.02,0.15 z"
   id="path9"
   style="fill:#1999e0;fill-opacity:1" /><path
   d="m 10.77,21.93 c -0.01,0.15 0.03,0.31 0.14,0.47 0.1,0.16 0.25,0.26 0.45,0.3 0.23,0.06 0.44,0.04 0.64,-0.06 0.2,-0.1 0.33,-0.29 0.41,-0.56 l 0.26,-0.9 c 0.07,-0.22 0.05,-0.43 -0.07,-0.63 -0.12,-0.2 -0.29,-0.33 -0.53,-0.4 -0.22,-0.07 -0.43,-0.04 -0.64,0.08 -0.21,0.12 -0.34,0.3 -0.41,0.53 l -0.22,0.9 c -0.02,0.08 -0.03,0.17 -0.03,0.27 z"
   id="path8"
   style="fill:#1999e0;fill-opacity:1" /><path
   d="m 10.15,24.2 c 0,0.23 0.08,0.42 0.24,0.58 0.16,0.16 0.36,0.24 0.58,0.24 0.24,0 0.43,-0.08 0.59,-0.23 0.16,-0.16 0.23,-0.35 0.23,-0.59 0,-0.23 -0.08,-0.42 -0.23,-0.58 -0.16,-0.16 -0.35,-0.23 -0.59,-0.23 -0.24,0 -0.43,0.08 -0.59,0.23 -0.16,0.15 -0.23,0.35 -0.23,0.58 z"
   id="path7"
   style="fill:#f9f9f9;fill-opacity:1" /><path
   d="m 9.92,4.66 c 0,0.24 0.08,0.44 0.24,0.6 l 0.66,0.64 c 0.14,0.16 0.32,0.24 0.54,0.26 0.22,0.02 0.43,-0.07 0.62,-0.26 0.16,-0.16 0.24,-0.36 0.24,-0.59 0,-0.24 -0.08,-0.44 -0.24,-0.6 L 11.35,4.06 C 11.2,3.9 11,3.82 10.77,3.8 10.54,3.8 10.34,3.88 10.17,4.05 10.01,4.22 9.92,4.42 9.92,4.66 Z"
   id="path6"
   style="fill:#f8b602;fill-opacity:1" /><path
   d="m 9.36,27.1 c 0,0.17 0.05,0.33 0.16,0.49 0.11,0.16 0.27,0.27 0.49,0.33 0.09,0.02 0.17,0.03 0.24,0.03 0.43,0 0.7,-0.2 0.8,-0.61 l 0.13,-0.59 c 0.06,-0.26 0.03,-0.48 -0.08,-0.68 -0.11,-0.2 -0.29,-0.32 -0.52,-0.37 -0.21,-0.07 -0.42,-0.05 -0.63,0.07 -0.21,0.12 -0.34,0.29 -0.41,0.51 L 9.4,26.88 C 9.37,26.99 9.36,27.07 9.36,27.1 Z"
   id="path5"
   style="fill:#1999e0;fill-opacity:1" /><path
   d="m 8.21,18.81 c -0.01,0.16 0.03,0.31 0.13,0.45 0.1,0.15 0.26,0.25 0.48,0.32 0.21,0.06 0.41,0.04 0.62,-0.07 C 9.65,19.4 9.79,19.23 9.86,19 l 0.27,-0.9 C 10.2,17.86 10.18,17.64 10.06,17.45 9.94,17.26 9.76,17.13 9.52,17.06 9.3,16.99 9.09,17.01 8.89,17.13 8.69,17.24 8.55,17.41 8.48,17.63 L 8.24,18.55 C 8.22,18.71 8.21,18.8 8.21,18.81 Z"
   id="path4"
   style="fill:#1999e0;fill-opacity:1" /><path
   d="m 7.6,21.08 c 0,0.22 0.08,0.41 0.24,0.57 0.16,0.18 0.35,0.26 0.56,0.26 0.24,0 0.44,-0.08 0.6,-0.24 C 9.17,21.51 9.25,21.32 9.25,21.08 9.25,20.85 9.17,20.65 9,20.49 8.83,20.33 8.63,20.25 8.4,20.25 c -0.23,0 -0.42,0.08 -0.58,0.23 -0.16,0.15 -0.22,0.37 -0.22,0.6 z"
   id="path3"
   style="fill:#f9f9f9;fill-opacity:1" /><path
   d="m 6.83,23.98 c 0,0.17 0.05,0.34 0.16,0.51 0.11,0.17 0.27,0.28 0.47,0.35 0.23,0.07 0.45,0.06 0.64,-0.04 0.2,-0.09 0.33,-0.28 0.4,-0.56 L 8.64,23.63 C 8.69,23.4 8.66,23.19 8.54,23 8.42,22.8 8.25,22.67 8.02,22.6 7.79,22.53 7.58,22.56 7.38,22.68 7.18,22.8 7.06,22.97 7,23.2 l -0.14,0.59 c -0.02,0.06 -0.03,0.12 -0.03,0.19 z"
   id="path2"
   style="fill:#1999e0;fill-opacity:1" />
</svg>
