<?xml version="1.0" encoding="UTF-8" standalone="no"?>
<!-- Generator: Adobe Illustrator 22.0.1, SVG Export Plug-In . SVG Version: 6.00 Build 0)  -->

<svg
   version="1.1"
   id="Layer_1"
   x="0px"
   y="0px"
   viewBox="0 0 30 30"
   style="enable-background:new 0 0 30 30;"
   xml:space="preserve"
   sodipodi:docname="wi-day-storm-showers.svg"
   inkscape:version="1.4.2 (f4327f4, 2025-05-13)"
   xmlns:inkscape="http://www.inkscape.org/namespaces/inkscape"
   xmlns:sodipodi="http://sodipodi.sourceforge.net/DTD/sodipodi-0.dtd"
   xmlns="http://www.w3.org/2000/svg"
   xmlns:svg="http://www.w3.org/2000/svg"><defs
   id="defs1" /><sodipodi:namedview
   id="namedview1"
   pagecolor="#ffffff"
   bordercolor="#000000"
   borderopacity="0.25"
   inkscape:showpageshadow="2"
   inkscape:pageopacity="0.0"
   inkscape:pagecheckerboard="0"
   inkscape:deskcolor="#d1d1d1"
   inkscape:zoom="22.627417"
   inkscape:cx="16.639106"
   inkscape:cy="18.672038"
   inkscape:window-width="2400"
   inkscape:window-height="1261"
   inkscape:window-x="-9"
   inkscape:window-y="-9"
   inkscape:window-maximized="1"
   inkscape:current-layer="Layer_1" />
<path
   d="m 24.73,11.58 c 0,0.24 0.09,0.44 0.26,0.59 0.16,0.18 0.36,0.26 0.6,0.26 h 2.06 c 0.24,0 0.44,-0.08 0.61,-0.25 0.17,-0.17 0.25,-0.37 0.25,-0.6 0,-0.23 -0.08,-0.44 -0.25,-0.6 -0.17,-0.16 -0.37,-0.24 -0.61,-0.24 h -2.06 c -0.24,0 -0.45,0.08 -0.61,0.24 -0.17,0.16 -0.25,0.36 -0.25,0.6 z"
   id="path11"
   style="fill:#f8b602;fill-opacity:1" /><path
   d="m 23.26,17.95 c 0,0.23 0.08,0.43 0.25,0.6 l 0.65,0.63 c 0.18,0.17 0.39,0.25 0.62,0.25 l 0.02,0.02 c 0.22,0 0.4,-0.09 0.54,-0.27 0.18,-0.16 0.26,-0.36 0.26,-0.6 0,-0.23 -0.09,-0.43 -0.26,-0.61 l -0.62,-0.62 c -0.18,-0.18 -0.38,-0.27 -0.61,-0.27 -0.24,0 -0.44,0.09 -0.6,0.26 -0.16,0.17 -0.25,0.38 -0.25,0.61 z"
   id="path10"
   style="fill:#f8b602;fill-opacity:1" /><path
   d="m 22.49,6.04 c 0,0.24 0.08,0.44 0.23,0.6 0.14,0.16 0.32,0.24 0.55,0.26 0.23,0.02 0.44,-0.07 0.63,-0.26 L 25.34,5.2 C 25.52,5.04 25.6,4.84 25.6,4.6 25.6,4.36 25.51,4.16 25.34,4 25.18,3.82 24.98,3.74 24.74,3.74 24.51,3.74 24.32,3.83 24.16,4 l -1.44,1.44 c -0.16,0.15 -0.23,0.35 -0.23,0.6 z"
   id="path9"
   style="fill:#f8b602;fill-opacity:1" /><path
   d="m 16.91,3.75 c 0,0.24 0.08,0.44 0.25,0.61 0.17,0.17 0.37,0.25 0.6,0.25 0.24,0 0.44,-0.08 0.6,-0.25 C 18.52,4.19 18.6,3.99 18.6,3.75 V 1.69 C 18.6,1.45 18.52,1.24 18.36,1.08 18.2,0.91 18,0.82 17.76,0.82 17.52,0.82 17.32,0.9 17.16,1.07 17,1.24 16.91,1.44 16.91,1.68 Z"
   id="path8"
   style="fill:#f8b602;fill-opacity:1" /><path
   id="path16"
   d="M 5.6383942,20.056641 5.040738,21.640625 h 0.00195 l -0.6601563,1.699219 c -0.05,0.14 6.25e-4,0.220703 0.140625,0.220703 h 2.1289094 l -1.4296875,4.208984 h 0.2890625 l 4.3613281,-5.660156 c 0.04,-0.04 0.039531,-0.08867 0.019531,-0.138672 -0.02,-0.05 -0.070625,-0.07031 -0.140625,-0.07031 H 7.5622224 l 2.4902346,-4.650391 c 0.07,-0.14 0.02937,-0.220703 -0.1406253,-0.220703 H 6.9528474 c -0.09,0 -0.1704688,0.05039 -0.2304688,0.150391 l -1.0703125,2.880859 c -0.00456,-0.0011 -0.00912,-0.0027 -0.013672,-0.0039 z"
   style="fill:#e87502;fill-opacity:1" /><path
   id="path15"
   d="M 11.169922 7.3496094 C 9.7499217 7.3496094 8.4903906 7.7899219 7.4003906 8.6699219 C 6.3103906 9.5499219 5.6007813 10.669064 5.3007812 12.039062 C 4.1907813 12.299065 3.2805469 12.879297 2.5605469 13.779297 C 1.8505469 14.699297 1.4902344 15.730859 1.4902344 16.880859 C 1.4902344 18.000859 1.8202344 19.000859 2.4902344 19.880859 C 3.1547168 20.753612 4.0066711 21.340305 5.0449219 21.632812 L 5.6660156 20.056641 C 4.952269 19.875222 4.3573941 19.496482 3.9003906 18.900391 C 3.4303906 18.310391 3.1992187 17.640859 3.1992188 16.880859 C 3.1992188 16.040859 3.4790625 15.309219 4.0390625 14.699219 C 4.5990625 14.089219 5.3103906 13.730859 6.1503906 13.630859 L 6.6601562 13.599609 C 6.7801563 13.599609 6.8508594 13.550936 6.8808594 13.460938 L 6.9492188 12.869141 C 7.0592188 11.789141 7.5103125 10.880391 8.3203125 10.150391 C 9.1303125 9.4203898 10.079687 9.0507814 11.179688 9.0507812 C 12.269685 9.0507812 13.219063 9.4203898 14.039062 10.150391 C 14.859065 10.880391 15.329453 11.789141 15.439453 12.869141 L 15.519531 13.460938 C 15.519531 13.570937 15.579219 13.630859 15.699219 13.630859 L 17.310547 13.630859 C 18.200547 13.630859 18.969141 13.949844 19.619141 14.589844 C 20.269141 15.229844 20.589844 15.990859 20.589844 16.880859 C 20.589844 17.750859 20.289453 18.500625 19.689453 19.140625 C 19.089453 19.780625 18.369766 20.119922 17.509766 20.169922 C 17.379766 20.169922 17.310547 20.229609 17.310547 20.349609 L 17.310547 21.689453 C 17.310547 21.799453 17.379766 21.859375 17.509766 21.859375 C 18.389766 21.839375 19.199687 21.600625 19.929688 21.140625 C 20.659688 20.690625 21.239922 20.080078 21.669922 19.330078 C 22.099922 18.580078 22.310547 17.760859 22.310547 16.880859 C 22.310547 16.150859 22.170859 15.479375 21.880859 14.859375 L 21.882812 14.857422 L 21.884766 14.857422 L 21.884766 14.855469 L 21.886719 14.853516 L 20.830078 13.380859 C 19.8719 12.427289 18.705644 11.949219 17.320312 11.949219 L 17.009766 11.949219 C 16.719766 10.759219 16.150547 9.7795315 15.310547 9.0195312 L 13.886719 8.0078125 L 13.890625 8 C 13.080625 7.57 12.179922 7.3496094 11.169922 7.3496094 z "
   style="fill:#7c7c7c;fill-opacity:1" /><path
   id="path12"
   d="m 17.729418,6.3213632 c -0.72,0 -1.419609,0.1492188 -2.099609,0.4492188 -0.667329,0.2944097 -1.238815,0.7046058 -1.732422,1.2207031 l -0.0078,0.037109 1.410156,1.0019531 c 0.667914,-0.6333122 1.474605,-0.9589844 2.439454,-0.9589844 0.98,0 1.819765,0.3392969 2.509765,1.0292969 0.69,0.68 1.041016,1.5199999 1.041016,2.4999999 0,0.656242 -0.1583,1.25334 -0.464844,1.800781 l 1.054688,1.453125 c 0.747155,-0.954202 1.11914,-2.044092 1.11914,-3.263672 0,-0.949999 -0.238984,-1.8306245 -0.708984,-2.6406245 -0.47,-0.81 -1.109922,-1.4499219 -1.919922,-1.9199219 -0.81,-0.47 -1.690625,-0.7089843 -2.640625,-0.7089844 z"
   style="fill:#f8b602;fill-opacity:1" /><path
   d="m 15.21,18.86 c 0,0.18 0.05,0.34 0.16,0.5 0.11,0.16 0.27,0.27 0.49,0.33 0.17,0.06 0.37,0.04 0.61,-0.05 0.2,-0.09 0.34,-0.28 0.43,-0.57 l 0.27,-1 c 0.06,-0.25 0.04,-0.47 -0.08,-0.67 -0.12,-0.2 -0.29,-0.32 -0.53,-0.37 -0.23,-0.07 -0.44,-0.05 -0.64,0.06 -0.2,0.11 -0.33,0.28 -0.4,0.5 l -0.29,1.06 c -0.01,0.14 -0.02,0.21 -0.02,0.21 z"
   id="path6"
   style="fill:#1999e0;fill-opacity:1" /><path
   d="m 13.84,23.68 c 0,0.14 0.03,0.28 0.1,0.39 0.13,0.21 0.31,0.36 0.54,0.43 0.11,0.04 0.21,0.06 0.28,0.06 0.13,0 0.23,-0.02 0.31,-0.08 0.2,-0.07 0.35,-0.27 0.45,-0.6 l 0.25,-1.01 c 0.07,-0.24 0.05,-0.45 -0.07,-0.65 -0.11,-0.2 -0.28,-0.33 -0.51,-0.39 -0.23,-0.07 -0.45,-0.05 -0.65,0.07 -0.2,0.11 -0.34,0.28 -0.41,0.51 l -0.28,1.04 c 0,0.08 -0.01,0.16 -0.01,0.23 z"
   id="path5"
   style="fill:#1999e0;fill-opacity:1" /><path
   d="m 11.01,22 c -0.01,0.16 0.04,0.32 0.14,0.47 0.1,0.15 0.26,0.26 0.48,0.32 0.21,0.07 0.42,0.05 0.62,-0.06 0.2,-0.11 0.34,-0.3 0.42,-0.56 l 0.3,-1.03 c 0.07,-0.22 0.04,-0.43 -0.08,-0.63 -0.12,-0.2 -0.3,-0.34 -0.54,-0.41 -0.23,-0.07 -0.44,-0.05 -0.64,0.07 -0.2,0.12 -0.34,0.29 -0.41,0.53 l -0.24,1.05 C 11.03,21.9 11.01,21.98 11.01,22 Z"
   id="path4"
   style="fill:#1999e0;fill-opacity:1" /><path
   d="m 9.9,4.59 c 0,0.23 0.08,0.43 0.25,0.6 l 0.65,0.66 c 0.16,0.16 0.34,0.24 0.55,0.26 0.21,0.03 0.41,-0.04 0.61,-0.23 0.2,-0.18 0.3,-0.39 0.3,-0.64 0,-0.23 -0.08,-0.43 -0.25,-0.6 L 11.38,3.98 C 11.22,3.82 11.02,3.74 10.78,3.74 10.53,3.74 10.32,3.82 10.15,3.98 9.99,4.16 9.9,4.36 9.9,4.59 Z"
   id="path3"
   style="fill:#f8b602;fill-opacity:1" /><path
   d="m 9.67,26.8 c 0,0.15 0.05,0.31 0.16,0.47 0.11,0.16 0.26,0.27 0.46,0.34 0.11,0.03 0.2,0.04 0.25,0.04 0.15,0 0.28,-0.03 0.38,-0.08 0.21,-0.08 0.36,-0.27 0.43,-0.57 l 0.27,-1.03 C 11.68,25.72 11.65,25.5 11.54,25.3 11.43,25.1 11.24,24.98 11.01,24.93 10.8,24.86 10.6,24.89 10.39,25 10.18,25.12 10.04,25.29 9.97,25.52 L 9.72,26.56 C 9.69,26.7 9.67,26.78 9.67,26.8 Z"
   id="path2"
   style="fill:#1999e0;fill-opacity:1" />
</svg>
