<?xml version="1.0" encoding="UTF-8" standalone="no"?>
<!-- Generator: Adobe Illustrator 22.0.1, SVG Export Plug-In . SVG Version: 6.00 Build 0)  -->

<svg
   version="1.1"
   id="Layer_1"
   x="0px"
   y="0px"
   viewBox="0 0 30 30"
   style="enable-background:new 0 0 30 30;"
   xml:space="preserve"
   sodipodi:docname="wi-night-alt-thunderstorm.svg"
   inkscape:version="1.4.2 (f4327f4, 2025-05-13)"
   xmlns:inkscape="http://www.inkscape.org/namespaces/inkscape"
   xmlns:sodipodi="http://sodipodi.sourceforge.net/DTD/sodipodi-0.dtd"
   xmlns="http://www.w3.org/2000/svg"
   xmlns:svg="http://www.w3.org/2000/svg"><defs
   id="defs1" /><sodipodi:namedview
   id="namedview1"
   pagecolor="#ffffff"
   bordercolor="#000000"
   borderopacity="0.25"
   inkscape:showpageshadow="2"
   inkscape:pageopacity="0.0"
   inkscape:pagecheckerboard="0"
   inkscape:deskcolor="#d1d1d1"
   inkscape:zoom="32"
   inkscape:cx="17.234375"
   inkscape:cy="12.953125"
   inkscape:window-width="2400"
   inkscape:window-height="1261"
   inkscape:window-x="-9"
   inkscape:window-y="-9"
   inkscape:window-maximized="1"
   inkscape:current-layer="Layer_1" />
<path
   id="path7"
   d="M 8.2353803,20.062835 7.620146,21.64096 c 0.00434,0.0013 0.00932,0.0026 0.013672,0.0039 L 6.9736616,23.33432 c -0.03,0.14 0.020391,0.210937 0.1503906,0.210937 h 2.1191406 l -0.9707031,3.509766 h 0.2910156 l 3.9101557,-4.941406 c 0.04,-0.05 0.03977,-0.09844 0.0098,-0.148438 -0.03,-0.05 -0.08039,-0.07031 -0.150391,-0.07031 h -2.179687 l 2.480469,-4.63086 c 0.07,-0.14 0.02914,-0.21875 -0.13086,-0.21875 H 9.5439741 c -0.09,0 -0.1604688,0.04867 -0.2304688,0.138672 l -1.0703125,2.880859 c -0.00252,-6.3e-4 -0.0053,-0.0013 -0.00781,-0.002 z"
   style="fill:#e87502;fill-opacity:1" /><path
   id="path8"
   d="M 13.730469 7.4003906 C 12.320469 7.4003906 11.060703 7.8409375 9.9707031 8.7109375 C 8.8807031 9.5809375 8.169375 10.700314 7.859375 12.070312 C 6.749375 12.330312 5.8391406 12.910547 5.1191406 13.810547 C 4.4391406 14.690547 4.0800781 15.720859 4.0800781 16.880859 C 4.0800781 17.990859 4.4103125 18.979375 5.0703125 19.859375 C 5.7274568 20.735567 6.5830277 21.325534 7.6367188 21.646484 L 8.2382812 20.064453 C 7.5276384 19.8822 6.9459756 19.494655 6.4804688 18.900391 C 6.0104686 18.300391 5.7792969 17.630625 5.7792969 16.890625 C 5.7792969 16.060625 6.0608594 15.340703 6.6308594 14.720703 C 7.2008594 14.100703 7.9004686 13.750391 8.7304688 13.650391 L 9.25 13.570312 C 9.38 13.570312 9.4492188 13.510391 9.4492188 13.400391 L 9.5195312 12.880859 C 9.6295314 11.800859 10.080625 10.890156 10.890625 10.160156 C 11.700625 9.4301568 12.650234 9.0605469 13.740234 9.0605469 C 14.820234 9.0605469 15.769844 9.4301568 16.589844 10.160156 C 17.409844 10.890156 17.88 11.799141 18 12.869141 L 18.070312 13.460938 C 18.070312 13.570937 18.13 13.630859 18.25 13.630859 L 19.869141 13.630859 C 20.779141 13.630859 21.549219 13.950078 22.199219 14.580078 C 22.849219 15.210078 23.169922 15.979141 23.169922 16.869141 C 23.169922 17.719141 22.869531 18.460078 22.269531 19.080078 C 21.669531 19.700078 20.940313 20.049141 20.070312 20.119141 C 19.950312 20.119141 19.880859 20.179063 19.880859 20.289062 L 19.880859 21.669922 C 19.880859 21.789922 19.940313 21.849609 20.070312 21.849609 C 20.950312 21.819609 21.750469 21.580859 22.480469 21.130859 C 23.210469 20.680859 23.790937 20.080078 24.210938 19.330078 C 24.630938 18.580078 24.839844 17.760859 24.839844 16.880859 C 24.839844 16.010859 24.619687 15.199686 24.179688 14.429688 L 24.181641 14.427734 L 23.083984 13.078125 C 22.169645 12.302462 21.109487 11.919922 19.890625 11.919922 L 19.570312 11.919922 C 19.290312 10.659922 18.629844 9.61 17.589844 8.75 L 16.105469 7.8476562 C 15.286792 7.5485785 14.489303 7.4003906 13.730469 7.4003906 z "
   style="fill:#7c7c7c;fill-opacity:1" /><path
   id="path5"
   d="m 20.611329,5.3046875 c -0.36,0 -0.729141,0.040859 -1.119141,0.1308594 -0.38,0.09 -0.779453,0.2201562 -1.189453,0.4101562 -0.41,0.18 -0.811172,0.4507813 -1.201172,0.8007813 -0.387407,0.3476733 -0.715341,0.7430488 -0.994141,1.2089844 l 1.482422,0.8964843 c 0.329168,-0.56368 0.766448,-0.9893497 1.322266,-1.2871093 0.55,-0.3 1.139766,-0.4492188 1.759766,-0.4492188 0.12,0 0.219531,-2.344e-4 0.269531,0.00977 v 0.3203125 c 0,0.96 0.26125,1.8704687 0.78125,2.7304689 0.52,0.86 1.249922,1.50875 2.169922,1.96875 -0.178984,0.417629 -0.438131,0.765581 -0.785157,1.064453 l 1.078125,1.324219 c 0.78287,-0.757082 1.298219,-1.622745 1.546875,-2.607422 l 0.140625,-0.720703 0.002,-0.002 v -0.002 c 0.0086,-0.01285 0.01758,-0.04016 0.01758,-0.06641 0,-0.07 -0.05016,-0.12039 -0.160157,-0.15039 l -0.560546,-0.179688 c -0.570001,-0.16 -1.058985,-0.440312 -1.458985,-0.8203124 -0.41,-0.38 -0.701094,-0.7985156 -0.871094,-1.2285156 -0.17,-0.44 -0.259765,-0.8803125 -0.259765,-1.3203125 0,-0.26 0.03008,-0.5307813 0.08008,-0.8007813 l 0.140625,-0.609375 c 0.04,-0.1 -6.25e-4,-0.1804687 -0.140625,-0.2304687 -0.21,-0.09 -0.510391,-0.1697656 -0.900391,-0.2597656 -0.39,-0.09 -0.77039,-0.1308594 -1.15039,-0.1308594 z"
   style="fill:#949bd4;fill-opacity:1" /><path
   d="m 16.35,23.68 c 0,0.16 0.05,0.32 0.15,0.46 0.1,0.14 0.25,0.25 0.46,0.31 0.03,0 0.08,0 0.15,0.01 0.07,0.01 0.13,0.01 0.16,0.01 0.38,0 0.62,-0.21 0.72,-0.63 l 1.5,-5.77 c 0.06,-0.24 0.04,-0.46 -0.08,-0.66 -0.11,-0.19 -0.28,-0.32 -0.51,-0.38 -0.23,-0.07 -0.45,-0.05 -0.65,0.06 -0.2,0.11 -0.33,0.27 -0.39,0.5 l -1.5,5.82 c 0,0.1 -0.01,0.19 -0.01,0.27 z"
   id="path3"
   style="fill:#1999e0;fill-opacity:1" /><path
   d="m 12.18,26.7 c 0,0.16 0.05,0.32 0.15,0.46 0.1,0.15 0.25,0.25 0.45,0.3 0.11,0.02 0.21,0.03 0.3,0.03 0.41,0 0.66,-0.21 0.76,-0.63 l 2.32,-8.79 c 0.06,-0.24 0.04,-0.45 -0.07,-0.65 -0.11,-0.2 -0.28,-0.33 -0.5,-0.39 -0.23,-0.07 -0.45,-0.05 -0.65,0.06 -0.2,0.11 -0.34,0.27 -0.4,0.49 l -2.32,8.84 c -0.03,0.1 -0.04,0.19 -0.04,0.28 z"
   id="path2"
   style="fill:#1999e0;fill-opacity:1" />
</svg>
