<?xml version="1.0" encoding="UTF-8" standalone="no"?>
<!-- Generator: Adobe Illustrator 22.0.1, SVG Export Plug-In . SVG Version: 6.00 Build 0)  -->

<svg
   version="1.1"
   id="Layer_1"
   x="0px"
   y="0px"
   viewBox="0 0 30 30"
   style="enable-background:new 0 0 30 30;"
   xml:space="preserve"
   sodipodi:docname="wi-night-alt-rain-mix.svg"
   inkscape:version="1.4.2 (f4327f4, 2025-05-13)"
   xmlns:inkscape="http://www.inkscape.org/namespaces/inkscape"
   xmlns:sodipodi="http://sodipodi.sourceforge.net/DTD/sodipodi-0.dtd"
   xmlns="http://www.w3.org/2000/svg"
   xmlns:svg="http://www.w3.org/2000/svg"><defs
   id="defs1" /><sodipodi:namedview
   id="namedview1"
   pagecolor="#ffffff"
   bordercolor="#000000"
   borderopacity="0.25"
   inkscape:showpageshadow="2"
   inkscape:pageopacity="0.0"
   inkscape:pagecheckerboard="0"
   inkscape:deskcolor="#d1d1d1"
   inkscape:zoom="32"
   inkscape:cx="9.109375"
   inkscape:cy="13.921875"
   inkscape:window-width="2400"
   inkscape:window-height="1261"
   inkscape:window-x="-9"
   inkscape:window-y="-9"
   inkscape:window-maximized="1"
   inkscape:current-layer="Layer_1" />
<path
   id="path15"
   d="M 24.181641 14.427734 L 23.097656 13.091797 C 22.182328 12.343501 21.111134 11.970703 19.890625 11.970703 L 19.580078 11.970703 C 19.27532 10.682855 18.631418 9.6267093 17.640625 8.8027344 L 16.101562 7.8671875 L 16.099609 7.8691406 C 15.289609 7.5591406 14.5 7.4101562 13.75 7.4101562 C 12.34 7.4101562 11.080234 7.8504688 9.9902344 8.7304688 C 8.9002344 9.6104687 8.1908594 10.729609 7.8808594 12.099609 C 6.7608594 12.389609 5.8408594 12.979141 5.1308594 13.869141 C 4.4208594 14.739141 4.0703125 15.769687 4.0703125 16.929688 C 4.0703125 18.259687 4.5407031 19.399375 5.4707031 20.359375 C 6.4007031 21.319375 7.5391406 21.829141 8.8691406 21.869141 C 8.9891406 21.869141 9.0507812 21.809219 9.0507812 21.699219 L 9.0507812 20.359375 C 9.0507812 20.249375 8.9891406 20.189453 8.8691406 20.189453 C 8.0191406 20.149453 7.2894531 19.800156 6.6894531 19.160156 C 6.0894531 18.520156 5.7792969 17.769687 5.7792969 16.929688 C 5.7792969 16.079687 6.0608594 15.340703 6.6308594 14.720703 C 7.2008594 14.100703 7.9004686 13.749687 8.7304688 13.679688 L 9.2597656 13.609375 C 9.3897656 13.609375 9.4609375 13.549686 9.4609375 13.429688 L 9.5292969 12.919922 C 9.6392969 11.819922 10.090391 10.899922 10.900391 10.169922 C 11.710391 9.4399218 12.659766 9.0703125 13.759766 9.0703125 C 14.849766 9.0703125 15.799141 9.4399218 16.619141 10.169922 C 17.439141 10.899922 17.909531 11.810625 18.019531 12.890625 L 18.089844 13.460938 C 18.089844 13.580936 18.149766 13.650391 18.259766 13.650391 L 19.880859 13.650391 C 20.790859 13.650391 21.560937 13.969141 22.210938 14.619141 C 22.860937 15.259141 23.179688 16.029686 23.179688 16.929688 C 23.179688 17.479688 23.039531 18.000234 22.769531 18.490234 C 22.499531 18.980234 22.120625 19.379453 21.640625 19.689453 C 21.160625 19.999453 20.640078 20.169219 20.080078 20.199219 C 19.950078 20.199219 19.880859 20.259141 19.880859 20.369141 L 19.880859 21.710938 C 19.880859 21.820937 19.950078 21.880859 20.080078 21.880859 C 20.960078 21.860859 21.77 21.619922 22.5 21.169922 C 23.23 20.719922 23.810469 20.119141 24.230469 19.369141 C 24.650469 18.619141 24.859375 17.809453 24.859375 16.939453 C 24.859375 16.059453 24.629688 15.219687 24.179688 14.429688 L 24.181641 14.427734 z "
   style="fill:#7c7c7c;fill-opacity:1" /><path
   id="path13"
   d="m 20.59375,5.3125 c -0.36,0 -0.739141,0.040859 -1.119141,0.1308594 -0.38,0.09 -0.779453,0.2201562 -1.189453,0.4101562 -0.41,0.19 -0.811172,0.4605469 -1.201172,0.8105469 -0.384555,0.345114 -0.710811,0.7472377 -0.988281,1.2089844 l 0.0059,0.011719 1.476562,0.8925781 c 0.319677,-0.5765236 0.758866,-1.0152792 1.306641,-1.3339843 0.56,-0.32 1.130468,-0.4689844 1.730468,-0.4589844 0.09,0 0.188829,0.0093 0.298829,0.029297 v 0.3105468 c -0.01,0.9800001 0.249531,1.8997656 0.769531,2.7597653 0.53,0.86 1.270703,1.499453 2.220703,1.939453 -0.189086,0.408027 -0.457222,0.77668 -0.794922,1.105469 l 1.068359,1.3125 c 0.822276,-0.737493 1.347598,-1.612836 1.566407,-2.607422 l 0.140625,-0.679688 c 0.02,-0.02 0.0293,-0.04031 0.0293,-0.07031 0,-0.06 -0.05992,-0.110156 -0.169922,-0.160156 L 25.195313,10.74414 c -0.570001,-0.17 -1.070704,-0.451562 -1.470704,-0.8515619 -0.41,-0.4 -0.701093,-0.81 -0.871093,-1.25 -0.17,-0.43 -0.259766,-0.8590625 -0.259766,-1.2890625 -0.02,-0.21 0.0098,-0.4903125 0.08984,-0.8203125 L 22.814453,5.953125 c 0.04,-0.1 -8.59e-4,-0.1804687 -0.130859,-0.2304687 L 21.884766,5.484375 C 21.474766,5.374375 21.04375,5.3125 20.59375,5.3125 Z"
   style="fill:#949bd4;fill-opacity:1" /><path
   d="m 17.52,18.81 c 0,0.17 0.05,0.33 0.16,0.48 0.11,0.15 0.27,0.26 0.49,0.32 0.02,0 0.06,0.01 0.12,0.02 0.06,0.01 0.11,0.02 0.14,0.02 0.1,0 0.22,-0.03 0.36,-0.09 0.21,-0.11 0.35,-0.29 0.41,-0.52 l 0.24,-0.9 c 0.06,-0.23 0.04,-0.44 -0.08,-0.63 -0.11,-0.2 -0.28,-0.33 -0.51,-0.4 -0.23,-0.07 -0.44,-0.05 -0.64,0.06 -0.2,0.11 -0.32,0.27 -0.39,0.51 l -0.28,0.91 c 0,0.02 -0.01,0.06 -0.02,0.12 0.01,0.03 0,0.07 0,0.1 z"
   id="path11"
   style="fill:#1999e0;fill-opacity:1" /><path
   d="m 16.91,21.12 c 0,0.22 0.08,0.42 0.25,0.57 0.15,0.16 0.34,0.24 0.57,0.24 0.24,0 0.43,-0.08 0.59,-0.23 0.16,-0.15 0.23,-0.35 0.23,-0.58 0,-0.24 -0.08,-0.43 -0.23,-0.59 -0.15,-0.16 -0.35,-0.23 -0.59,-0.23 -0.24,0 -0.43,0.08 -0.59,0.23 -0.16,0.15 -0.23,0.35 -0.23,0.59 z"
   id="path10"
   style="fill:#f9f9f9;fill-opacity:1" /><path
   d="m 16.17,24.08 c 0,0.16 0.05,0.32 0.15,0.48 0.1,0.16 0.26,0.27 0.46,0.33 0.03,0 0.08,0.01 0.14,0.02 0.06,0.01 0.1,0.02 0.14,0.02 0.41,0 0.66,-0.22 0.76,-0.66 l 0.14,-0.6 c 0.07,-0.21 0.05,-0.42 -0.07,-0.63 -0.11,-0.21 -0.28,-0.34 -0.51,-0.41 -0.25,-0.06 -0.48,-0.04 -0.68,0.08 -0.2,0.12 -0.34,0.29 -0.41,0.53 l -0.09,0.59 c 0,0.02 -0.01,0.07 -0.02,0.12 0,0.05 -0.01,0.09 -0.01,0.13 z"
   id="path9"
   style="fill:#1999e0;fill-opacity:1" /><path
   d="m 13.42,21.93 c -0.01,0.15 0.03,0.31 0.13,0.47 0.1,0.16 0.25,0.26 0.45,0.3 0.23,0.06 0.44,0.04 0.64,-0.06 0.19,-0.1 0.33,-0.29 0.41,-0.56 l 0.27,-0.9 c 0.07,-0.22 0.05,-0.43 -0.07,-0.63 -0.12,-0.2 -0.29,-0.33 -0.53,-0.4 -0.22,-0.07 -0.43,-0.04 -0.64,0.08 -0.21,0.12 -0.34,0.3 -0.41,0.53 l -0.22,0.9 c -0.02,0.08 -0.03,0.17 -0.03,0.27 z"
   id="path8"
   style="fill:#1999e0;fill-opacity:1" /><path
   d="m 12.79,24.2 c 0,0.22 0.08,0.41 0.25,0.58 0.16,0.16 0.35,0.24 0.57,0.24 0.24,0 0.43,-0.08 0.59,-0.23 0.16,-0.16 0.23,-0.35 0.23,-0.59 0,-0.23 -0.08,-0.42 -0.23,-0.58 -0.15,-0.16 -0.35,-0.23 -0.59,-0.23 -0.24,0 -0.43,0.08 -0.59,0.23 -0.15,0.15 -0.23,0.35 -0.23,0.58 z"
   id="path7"
   style="fill:#f9f9f9;fill-opacity:1" /><path
   d="m 12.01,27.1 c 0,0.18 0.05,0.34 0.15,0.5 0.1,0.16 0.26,0.27 0.48,0.33 0.08,0.02 0.17,0.03 0.25,0.03 0.43,0 0.69,-0.2 0.79,-0.61 l 0.14,-0.59 c 0.06,-0.26 0.03,-0.48 -0.08,-0.68 -0.11,-0.2 -0.29,-0.32 -0.52,-0.37 -0.21,-0.07 -0.42,-0.05 -0.63,0.07 -0.21,0.12 -0.34,0.29 -0.41,0.51 l -0.14,0.59 c -0.02,0.09 -0.03,0.16 -0.03,0.22 z"
   id="path6"
   style="fill:#1999e0;fill-opacity:1" /><path
   d="m 10.85,18.81 c -0.01,0.16 0.03,0.31 0.14,0.45 0.1,0.15 0.26,0.25 0.48,0.32 0.21,0.06 0.41,0.04 0.62,-0.07 C 12.3,19.4 12.43,19.23 12.5,19 l 0.28,-0.9 c 0.07,-0.24 0.05,-0.46 -0.07,-0.65 -0.12,-0.19 -0.3,-0.32 -0.54,-0.39 -0.22,-0.07 -0.43,-0.05 -0.63,0.07 -0.2,0.11 -0.34,0.28 -0.41,0.5 l -0.24,0.92 c 0,0.02 -0.01,0.06 -0.02,0.12 -0.02,0.05 -0.02,0.1 -0.02,0.14 z"
   id="path4"
   style="fill:#1999e0;fill-opacity:1" /><path
   d="m 10.24,21.08 c 0,0.21 0.08,0.4 0.25,0.57 0.16,0.17 0.34,0.25 0.56,0.25 0.24,0 0.44,-0.08 0.6,-0.24 0.16,-0.16 0.24,-0.35 0.24,-0.59 0,-0.23 -0.08,-0.43 -0.24,-0.59 -0.16,-0.16 -0.36,-0.24 -0.6,-0.24 -0.23,0 -0.43,0.08 -0.58,0.23 -0.15,0.15 -0.23,0.38 -0.23,0.61 z"
   id="path3"
   style="fill:#f9f9f9;fill-opacity:1" /><path
   d="m 9.48,23.98 c 0,0.17 0.05,0.34 0.16,0.51 0.11,0.17 0.27,0.28 0.47,0.35 0.23,0.07 0.44,0.06 0.64,-0.04 0.2,-0.1 0.32,-0.28 0.39,-0.56 l 0.14,-0.61 C 11.33,23.4 11.3,23.19 11.19,23 c -0.11,-0.2 -0.28,-0.33 -0.52,-0.4 -0.23,-0.07 -0.44,-0.04 -0.64,0.08 -0.2,0.12 -0.34,0.3 -0.4,0.53 L 9.5,23.79 c -0.02,0.04 -0.02,0.1 -0.02,0.19 z"
   id="path2"
   style="fill:#1999e0;fill-opacity:1" />
</svg>
