<?xml version="1.0" encoding="UTF-8" standalone="no"?>
<!-- Generator: Adobe Illustrator 22.0.1, SVG Export Plug-In . SVG Version: 6.00 Build 0)  -->

<svg
   version="1.1"
   id="Layer_1"
   x="0px"
   y="0px"
   viewBox="0 0 30 30"
   style="enable-background:new 0 0 30 30;"
   xml:space="preserve"
   sodipodi:docname="wi-night-alt-lightning.svg"
   inkscape:version="1.4.2 (f4327f4, 2025-05-13)"
   xmlns:inkscape="http://www.inkscape.org/namespaces/inkscape"
   xmlns:sodipodi="http://sodipodi.sourceforge.net/DTD/sodipodi-0.dtd"
   xmlns="http://www.w3.org/2000/svg"
   xmlns:svg="http://www.w3.org/2000/svg"><defs
   id="defs1" /><sodipodi:namedview
   id="namedview1"
   pagecolor="#ffffff"
   bordercolor="#000000"
   borderopacity="0.25"
   inkscape:showpageshadow="2"
   inkscape:pageopacity="0.0"
   inkscape:pagecheckerboard="0"
   inkscape:deskcolor="#d1d1d1"
   inkscape:zoom="22.627417"
   inkscape:cx="21.102718"
   inkscape:cy="8.0212425"
   inkscape:window-width="2400"
   inkscape:window-height="1261"
   inkscape:window-x="-9"
   inkscape:window-y="-9"
   inkscape:window-maximized="1"
   inkscape:current-layer="Layer_1" />
<path
   id="path6"
   d="M 24.226562 14.517578 L 23.105469 13.138672 C 22.188659 12.356784 21.124101 11.970703 19.900391 11.970703 L 19.580078 11.970703 C 19.290078 10.710703 18.629609 9.6605469 17.599609 8.8105469 C 17.601011 8.8081253 17.60211 8.8051509 17.603516 8.8027344 L 16.070312 7.8710938 C 15.379628 7.5902432 14.632867 7.4492187 13.810547 7.4492188 C 12.400547 7.4492188 11.150547 7.8897656 10.060547 8.7597656 C 8.9705468 9.6297656 8.2709375 10.749375 7.9609375 12.109375 C 6.8609375 12.369375 5.9504687 12.949609 5.2304688 13.849609 C 4.4804688 14.739609 4.1191406 15.760156 4.1191406 16.910156 C 4.1191406 18.240156 4.5797656 19.389844 5.5097656 20.339844 C 6.4397656 21.289844 7.5701563 21.809141 8.9101562 21.869141 C 9.0201563 21.869141 9.0800781 21.809219 9.0800781 21.699219 L 9.0800781 20.330078 C 9.0800781 20.210078 9.0201563 20.150391 8.9101562 20.150391 C 8.0401563 20.080391 7.3107031 19.739375 6.7207031 19.109375 C 6.1307031 18.489375 5.8300781 17.750391 5.8300781 16.900391 C 5.8300781 16.060391 6.1096875 15.330936 6.6796875 14.710938 C 7.2496875 14.090937 7.9392969 13.739922 8.7792969 13.669922 L 9.3105469 13.599609 C 9.4405469 13.599609 9.5097656 13.539687 9.5097656 13.429688 L 9.5800781 12.910156 C 9.6900781 11.830156 10.139219 10.919219 10.949219 10.199219 C 11.759219 9.4692185 12.710781 9.109375 13.800781 9.109375 C 14.890781 9.109375 15.840391 9.4692185 16.650391 10.199219 C 17.460391 10.919219 17.919064 11.829922 18.039062 12.919922 L 18.109375 13.5 C 18.109375 13.62 18.169064 13.679686 18.289062 13.679688 L 19.900391 13.679688 C 20.810391 13.679688 21.580703 14.000859 22.220703 14.630859 C 22.860703 15.260859 23.179688 16.020156 23.179688 16.910156 C 23.179688 17.760156 22.879062 18.499141 22.289062 19.119141 C 21.699063 19.739141 20.969609 20.090156 20.099609 20.160156 C 19.969609 20.160156 19.900391 20.219844 19.900391 20.339844 L 19.900391 21.710938 C 19.900391 21.820937 19.969609 21.880859 20.099609 21.880859 C 21.429609 21.840859 22.560469 21.329141 23.480469 20.369141 C 24.400469 19.409141 24.859375 18.259922 24.859375 16.919922 C 24.859375 16.060639 24.646337 15.256031 24.226562 14.517578 z "
   style="fill:#7c7c7c;fill-opacity:1" /><path
   id="path4"
   d="m 20.642579,5.3632813 c -0.36,0 -0.731094,0.040859 -1.121094,0.1308593 -0.38,0.09 -0.779453,0.2201563 -1.189453,0.4101563 -0.41,0.18 -0.809219,0.4488281 -1.199219,0.7988281 -0.389781,0.3498037 -0.720101,0.7510444 -1,1.2207031 L 17.603516,8.8125 c 0.328619,-0.5596225 0.765238,-0.9829816 1.31836,-1.2792969 0.55,-0.3 1.130703,-0.4492187 1.720703,-0.4492187 0.13,0 0.219531,0.00953 0.269531,0.019531 v 0.3105469 c 0,0.96 0.259297,1.8685152 0.779297,2.7285155 0.52,0.86 1.239922,1.510937 2.169922,1.960937 -0.159129,0.367986 -0.406967,0.726085 -0.744141,1.064453 l 1.054688,1.294922 0.002,-0.002 c 0.799203,-0.719742 1.318963,-1.578712 1.548828,-2.578125 l 0.15039,-0.71875 v -0.002 l 0.002,-0.002 c 4.79e-4,-7.91e-4 0.0035,-0.005 0.0039,-0.0059 0.0042,-0.01172 0.0039,-0.03055 0.0039,-0.06055 0,-0.07 -0.05016,-0.130156 -0.160156,-0.160156 l -0.580078,-0.169922 c -0.57,-0.16 -1.051172,-0.440312 -1.451172,-0.8203116 -0.4,-0.39 -0.67961,-0.8004688 -0.84961,-1.2304688 -0.17,-0.43 -0.25,-0.8703125 -0.25,-1.3203125 0,-0.24 0.02984,-0.5090625 0.08984,-0.7890625 L 22.822266,5.984375 c 0.03,-0.09 -0.02062,-0.1707031 -0.140625,-0.2207031 L 21.892579,5.5234375 c -0.44,-0.11 -0.85,-0.1601563 -1.25,-0.1601562 z"
   style="fill:#949bd4;fill-opacity:1" /><path
   d="m 11.79,21.56 c -0.05,0.14 0,0.22 0.14,0.22 h 2.16 l -1.31,4.14 h 0.3 l 4.17,-5.59 c 0.04,-0.04 0.05,-0.09 0.03,-0.14 -0.02,-0.05 -0.06,-0.07 -0.13,-0.07 h -2.2 l 2.31,-4.21 c 0.07,-0.14 0.02,-0.22 -0.14,-0.22 h -2.94 c -0.08,0 -0.15,0.05 -0.22,0.14 z"
   id="path2"
   style="fill:#e87502;fill-opacity:1" />
</svg>
