<?xml version="1.0" encoding="UTF-8" standalone="no"?>
<!-- Generator: Adobe Illustrator 22.0.1, SVG Export Plug-In . SVG Version: 6.00 Build 0)  -->

<svg
   version="1.1"
   id="Layer_1"
   x="0px"
   y="0px"
   viewBox="0 0 30 30"
   style="enable-background:new 0 0 30 30;"
   xml:space="preserve"
   sodipodi:docname="wi-night-alt-storm-showers.svg"
   inkscape:version="1.4.2 (f4327f4, 2025-05-13)"
   xmlns:inkscape="http://www.inkscape.org/namespaces/inkscape"
   xmlns:sodipodi="http://sodipodi.sourceforge.net/DTD/sodipodi-0.dtd"
   xmlns="http://www.w3.org/2000/svg"
   xmlns:svg="http://www.w3.org/2000/svg"><defs
   id="defs1" /><sodipodi:namedview
   id="namedview1"
   pagecolor="#ffffff"
   bordercolor="#000000"
   borderopacity="0.25"
   inkscape:showpageshadow="2"
   inkscape:pageopacity="0.0"
   inkscape:pagecheckerboard="0"
   inkscape:deskcolor="#d1d1d1"
   inkscape:zoom="32"
   inkscape:cx="14.015625"
   inkscape:cy="16.453125"
   inkscape:window-width="2400"
   inkscape:window-height="1261"
   inkscape:window-x="-9"
   inkscape:window-y="-9"
   inkscape:window-maximized="1"
   inkscape:current-layer="Layer_1" />
<path
   d="m 17.78,18.87 c 0,0.43 0.22,0.71 0.65,0.82 0.14,0.02 0.24,0.04 0.3,0.04 0.36,0 0.61,-0.22 0.74,-0.65 l 0.28,-1.04 c 0.01,-0.05 0.01,-0.12 0.01,-0.22 0.01,-0.17 -0.03,-0.33 -0.14,-0.49 -0.11,-0.16 -0.27,-0.27 -0.49,-0.33 -0.01,0 -0.05,0 -0.1,-0.01 -0.05,-0.01 -0.1,-0.01 -0.13,-0.01 -0.16,0 -0.32,0.05 -0.48,0.15 -0.16,0.1 -0.27,0.26 -0.33,0.47 l -0.29,1.02 c 0,0.01 0,0.04 -0.01,0.1 0,0.07 -0.01,0.12 -0.01,0.15 z"
   id="path7"
   style="fill:#1999e0;fill-opacity:1" /><path
   id="path10"
   d="m 8.2568647,20.061552 -0.6191406,1.570313 c 0.00213,6.44e-4 0.00373,0.0013 0.00586,0.002 l -0.6503906,1.699218 c -0.04,0.14 6.25e-4,0.210938 0.140625,0.210938 H 9.2529584 L 7.963896,27.723661 h 0.2792968 l 4.2304682,-5.621093 c 0.04,-0.04 0.03953,-0.08867 0.01953,-0.138672 -0.03,-0.05 -0.07062,-0.07031 -0.140625,-0.07031 H 10.17288 l 2.470703,-4.640625 c 0.07,-0.14 0.02914,-0.21875 -0.130859,-0.21875 H 9.5537397 c -0.09,0 -0.1607031,0.04844 -0.2207031,0.148438 l -1.0703125,2.880859 c -0.00195,-4.93e-4 -0.00391,-0.0015 -0.00586,-0.002 z"
   style="fill:#e87502;fill-opacity:1" /><path
   id="path11"
   d="M 13.769531 7.4003906 C 12.359531 7.4003906 11.099766 7.8407031 10.009766 8.7207031 C 8.9197648 9.6007031 8.2103906 10.720078 7.9003906 12.080078 C 6.7903906 12.340078 5.8801563 12.920313 5.1601562 13.820312 C 4.4501563 14.710313 4.0898437 15.740625 4.0898438 16.890625 C 4.0898438 18.000625 4.4200781 18.989375 5.0800781 19.859375 C 5.7369379 20.725236 6.5914682 21.325346 7.6445312 21.646484 L 8.2597656 20.074219 C 7.5586476 19.892011 6.9755077 19.504541 6.5 18.910156 C 6.02 18.310156 5.7890625 17.640391 5.7890625 16.900391 C 5.7890625 16.070391 6.070625 15.350469 6.640625 14.730469 C 7.210625 14.120469 7.9102344 13.760156 8.7402344 13.660156 L 9.2695312 13.589844 C 9.3995315 13.589844 9.4707031 13.530156 9.4707031 13.410156 L 9.5390625 12.900391 C 9.6490625 11.820391 10.100156 10.909686 10.910156 10.179688 C 11.720156 9.4496865 12.669766 9.0800781 13.759766 9.0800781 C 14.849766 9.0800781 15.799141 9.4496865 16.619141 10.179688 C 17.439141 10.909686 17.899531 11.820625 18.019531 12.890625 L 18.089844 13.460938 C 18.089844 13.580935 18.149766 13.650391 18.259766 13.650391 L 19.880859 13.650391 C 20.790859 13.650391 21.560937 13.969609 22.210938 14.599609 C 22.860937 15.229609 23.179688 16.000859 23.179688 16.880859 C 23.179688 17.730859 22.879297 18.469844 22.279297 19.089844 C 21.679297 19.709844 20.950078 20.059141 20.080078 20.119141 C 19.960078 20.119141 19.890625 20.180547 19.890625 20.310547 L 19.890625 21.669922 C 19.890625 21.789922 19.950078 21.849609 20.080078 21.849609 C 21.410078 21.809609 22.540703 21.299844 23.470703 20.339844 C 24.400703 19.369844 24.859375 18.220625 24.859375 16.890625 C 24.859375 16.05343 24.655501 15.271321 24.248047 14.527344 L 23.044922 13.046875 C 22.151118 12.308371 21.106959 11.939453 19.900391 11.939453 L 19.570312 11.939453 C 19.280313 10.679453 18.619844 9.6195313 17.589844 8.7695312 C 17.592426 8.7651501 17.59506 8.7602246 17.597656 8.7558594 L 16.109375 7.8515625 C 15.287117 7.546934 14.503214 7.4003906 13.769531 7.4003906 z "
   style="fill:#7c7c7c;fill-opacity:1" /><path
   id="path8"
   d="m 20.605419,5.3633307 c -0.37,-0.01 -0.748907,0.031094 -1.128907,0.1210937 -0.38,0.08 -0.779453,0.2184375 -1.189453,0.3984375 -0.41,0.18 -0.80164,0.4510157 -1.18164,0.7910156 -0.378151,0.3383457 -0.70527,0.7361863 -0.984375,1.1933594 l 1.470703,0.8886719 c 0.32849,-0.5469114 0.773183,-0.966521 1.324219,-1.2617187 0.559999,-0.3 1.149765,-0.4511719 1.759765,-0.4511719 h 0.220703 v 0.3203125 c 0,0.64 0.109844,1.2613281 0.339844,1.8613281 0.23,0.6 0.559531,1.1482032 1.019531,1.6582032 0.45,0.51 0.991328,0.910937 1.611328,1.210937 -0.17,0.38 -0.421718,0.719297 -0.761718,1.029297 -0.0061,-0.0052 -0.01146,-0.01042 -0.01758,-0.01563 l 1.070313,1.316406 0.05078,0.07422 c -0.0082,-0.01473 -0.01504,-0.03022 -0.02344,-0.04492 0.76,-0.74 1.271718,-1.609139 1.511719,-2.619141 l 0.189453,-0.679687 0.002,-0.002 v -0.002 c 4.78e-4,-7.91e-4 0.0035,-0.005 0.0039,-0.0059 0.0042,-0.01172 0.0039,-0.03055 0.0039,-0.06055 0,-0.08 -0.05039,-0.130156 -0.15039,-0.160156 l -0.619141,-0.169922 c -0.57,-0.17 -1.060937,-0.449843 -1.460937,-0.8398431 -0.4,-0.39 -0.67961,-0.8007031 -0.84961,-1.2207031 -0.17,-0.42 -0.250234,-0.8397656 -0.240234,-1.2597656 0,-0.28 0.02961,-0.5596094 0.09961,-0.8496094 l 0.111328,-0.609375 c 0.02,-0.1 -0.02062,-0.1804689 -0.140625,-0.2304687 L 21.845653,5.5039557 c -0.47,-0.09 -0.880234,-0.140625 -1.240234,-0.140625 z"
   style="fill:#949bd4;fill-opacity:1" /><path
   d="m 16.41,23.67 c 0.01,0.17 0.07,0.33 0.18,0.48 0.11,0.15 0.27,0.27 0.48,0.34 0.16,0.04 0.27,0.06 0.33,0.06 0.34,0 0.58,-0.23 0.71,-0.68 l 0.24,-1.02 c 0.07,-0.23 0.05,-0.45 -0.06,-0.66 -0.11,-0.21 -0.28,-0.34 -0.5,-0.41 -0.25,-0.06 -0.48,-0.03 -0.68,0.08 -0.2,0.12 -0.33,0.3 -0.37,0.53 l -0.29,1.03 c 0,0.02 -0.01,0.06 -0.02,0.12 -0.02,0.07 -0.02,0.11 -0.02,0.13 z"
   id="path4"
   style="fill:#1999e0;fill-opacity:1" /><path
   d="m 13.6,22 c 0,0.43 0.2,0.68 0.61,0.75 0.14,0.03 0.23,0.05 0.27,0.05 0.38,0 0.63,-0.21 0.77,-0.63 l 0.3,-1.02 c 0.06,-0.22 0.03,-0.43 -0.08,-0.63 -0.11,-0.2 -0.3,-0.34 -0.53,-0.41 -0.22,-0.07 -0.44,-0.05 -0.64,0.07 -0.2,0.12 -0.34,0.29 -0.41,0.53 l -0.25,1.01 C 13.61,21.81 13.6,21.9 13.6,22 Z"
   id="path3"
   style="fill:#1999e0;fill-opacity:1" /><path
   d="m 12.26,26.76 c 0,0.16 0.05,0.31 0.15,0.47 0.1,0.16 0.25,0.27 0.45,0.33 0.16,0.03 0.25,0.05 0.27,0.05 0.09,0 0.22,-0.03 0.37,-0.1 0.21,-0.1 0.35,-0.27 0.42,-0.53 L 14.2,25.93 C 14.26,25.71 14.24,25.5 14.12,25.3 14,25.1 13.83,24.96 13.59,24.89 c -0.22,-0.06 -0.43,-0.03 -0.63,0.08 -0.2,0.12 -0.34,0.3 -0.41,0.53 l -0.27,1 z"
   id="path2"
   style="fill:#1999e0;fill-opacity:1" />
</svg>
