<?xml version="1.0" encoding="UTF-8" standalone="no"?>
<!-- Generator: Adobe Illustrator 22.0.1, SVG Export Plug-In . SVG Version: 6.00 Build 0)  -->

<svg
   version="1.1"
   id="Layer_1"
   x="0px"
   y="0px"
   viewBox="0 0 30 30"
   style="enable-background:new 0 0 30 30;"
   xml:space="preserve"
   sodipodi:docname="wi-night-alt-showers.svg"
   inkscape:version="1.4.2 (f4327f4, 2025-05-13)"
   xmlns:inkscape="http://www.inkscape.org/namespaces/inkscape"
   xmlns:sodipodi="http://sodipodi.sourceforge.net/DTD/sodipodi-0.dtd"
   xmlns="http://www.w3.org/2000/svg"
   xmlns:svg="http://www.w3.org/2000/svg"><defs
   id="defs1" /><sodipodi:namedview
   id="namedview1"
   pagecolor="#ffffff"
   bordercolor="#000000"
   borderopacity="0.25"
   inkscape:showpageshadow="2"
   inkscape:pageopacity="0.0"
   inkscape:pagecheckerboard="0"
   inkscape:deskcolor="#d1d1d1"
   inkscape:zoom="25.766667"
   inkscape:cx="13.874515"
   inkscape:cy="13.680466"
   inkscape:window-width="2400"
   inkscape:window-height="1261"
   inkscape:window-x="-9"
   inkscape:window-y="-9"
   inkscape:window-maximized="1"
   inkscape:current-layer="Layer_1" />
<path
   id="path12"
   d="M 24.21875 14.576172 C 24.21833 14.575406 24.217218 14.574985 24.216797 14.574219 L 23.072266 13.164062 C 22.146239 12.364618 21.061861 11.970703 19.839844 11.970703 L 19.519531 11.970703 C 19.269562 10.78085 18.629848 9.7304656 17.580078 8.8105469 L 16.111328 7.9179688 L 16.109375 7.9199219 C 15.369375 7.5899219 14.58 7.4296875 13.75 7.4296875 C 12.34 7.4296875 11.09 7.8702344 10 8.7402344 C 8.91 9.6102344 8.2296875 10.729609 7.9296875 12.099609 C 6.8096875 12.359609 5.8801564 12.930312 5.1601562 13.820312 C 4.4301562 14.730314 4.0703125 15.760156 4.0703125 16.910156 C 4.0703125 18.240156 4.5309375 19.389844 5.4609375 20.339844 C 6.3909375 21.289844 7.519375 21.809141 8.859375 21.869141 C 8.969375 21.869141 9.0292969 21.809219 9.0292969 21.699219 L 9.0292969 20.330078 C 9.0292969 20.210078 8.969375 20.150391 8.859375 20.150391 C 7.989375 20.080391 7.2599219 19.739375 6.6699219 19.109375 C 6.0799219 18.489375 5.7792969 17.750391 5.7792969 16.900391 C 5.7792969 16.070391 6.0591406 15.360234 6.6191406 14.740234 C 7.1791406 14.120234 7.8807031 13.769922 8.7207031 13.669922 L 9.25 13.599609 C 9.38 13.599609 9.4492188 13.539687 9.4492188 13.429688 L 9.5195312 12.910156 C 9.6295313 11.830156 10.080625 10.919219 10.890625 10.199219 C 11.700625 9.4692185 12.650234 9.109375 13.740234 9.109375 C 14.830234 9.109375 15.779844 9.4692185 16.589844 10.199219 C 17.399844 10.919219 17.870469 11.829922 17.980469 12.919922 L 18.060547 13.5 C 18.060547 13.62 18.120234 13.679686 18.240234 13.679688 L 19.849609 13.679688 C 20.749609 13.679688 21.519922 14.000859 22.169922 14.630859 C 22.809922 15.260859 23.140625 16.020156 23.140625 16.910156 C 23.140625 17.760156 22.84 18.499141 22.25 19.119141 C 21.66 19.739141 20.920547 20.090156 20.060547 20.160156 C 19.930547 20.160156 19.859375 20.219844 19.859375 20.339844 L 19.859375 21.710938 C 19.859375 21.820937 19.930547 21.880859 20.060547 21.880859 C 21.390547 21.840859 22.519453 21.329141 23.439453 20.369141 C 24.359453 19.409141 24.820312 18.259922 24.820312 16.919922 C 24.820312 16.082989 24.617064 15.302032 24.21875 14.576172 z "
   style="fill:#7c7c7c;fill-opacity:1" /><path
   id="path10"
   d="m 20.621284,5.3787168 c -0.38,0 -0.760625,0.040859 -1.140625,0.1308594 -0.39,0.09 -0.789219,0.2201562 -1.199219,0.4101562 -0.42,0.19 -0.821172,0.4488281 -1.201172,0.7988281 -0.376447,0.3467276 -0.713696,0.7522941 -0.992187,1.2167969 l 1.470703,0.890625 c 0.319328,-0.5534542 0.756947,-0.9894209 1.322265,-1.296875 0.57,-0.31 1.170547,-0.4707031 1.810547,-0.4707031 h 0.208985 c -0.01,0.09 -0.0098,0.2108595 -0.0098,0.3808593 0,0.95 0.259297,1.848984 0.779297,2.7089844 0.52,0.86 1.249922,1.510937 2.169922,1.960937 -0.218543,0.427151 -0.475961,0.794822 -0.773438,1.09375 l 1.042969,1.279297 0.05273,0.07617 c -0.0073,-0.013 -0.01405,-0.0261 -0.02148,-0.03906 0.81,-0.73 1.340078,-1.601093 1.580078,-2.621093 v -0.128907 l 0.189453,-0.791015 -0.759765,-0.208985 c -0.81,-0.24 -1.440625,-0.699609 -1.890626,-1.3496086 -0.449999,-0.66 -0.669921,-1.34125 -0.669921,-2.03125 0,-0.26 0.03008,-0.5192969 0.08008,-0.7792969 l 0.201172,-0.8007812 -0.84961,-0.25 -0.15039,-0.039063 c -0.47,-0.09 -0.88,-0.140625 -1.25,-0.140625 z"
   style="fill:#949bd4;fill-opacity:1" /><path
   d="m 17.55,18.98 c 0,0.16 0.05,0.31 0.15,0.46 0.1,0.15 0.26,0.26 0.46,0.32 0.14,0.03 0.22,0.05 0.23,0.05 0.09,0 0.21,-0.03 0.38,-0.1 0.21,-0.08 0.35,-0.27 0.44,-0.55 l 0.28,-1.04 c 0.06,-0.22 0.03,-0.43 -0.08,-0.63 -0.11,-0.2 -0.3,-0.33 -0.53,-0.4 -0.22,-0.07 -0.43,-0.05 -0.63,0.07 -0.2,0.12 -0.33,0.29 -0.4,0.52 l -0.26,1.06 c -0.03,0.09 -0.04,0.18 -0.04,0.24 z"
   id="path8"
   style="fill:#1999e0;fill-opacity:1" /><path
   d="m 16.16,23.79 c 0,0.38 0.21,0.62 0.64,0.75 0.09,0.02 0.17,0.03 0.24,0.03 0.15,0 0.27,-0.02 0.37,-0.07 0.21,-0.08 0.36,-0.27 0.44,-0.57 l 0.27,-1.02 c 0.06,-0.25 0.04,-0.47 -0.08,-0.67 -0.12,-0.2 -0.29,-0.32 -0.53,-0.37 -0.23,-0.07 -0.45,-0.05 -0.64,0.07 -0.19,0.12 -0.33,0.29 -0.4,0.51 l -0.27,1.04 c 0,0.02 -0.01,0.07 -0.02,0.15 -0.02,0.07 -0.02,0.12 -0.02,0.15 z"
   id="path7"
   style="fill:#1999e0;fill-opacity:1" /><path
   d="m 13.35,22.03 c 0,0.15 0.05,0.3 0.15,0.45 0.1,0.15 0.25,0.26 0.46,0.33 0.22,0.07 0.44,0.05 0.64,-0.06 0.2,-0.11 0.33,-0.28 0.4,-0.52 l 0.27,-1.04 c 0.07,-0.21 0.05,-0.42 -0.06,-0.62 -0.11,-0.2 -0.27,-0.34 -0.49,-0.41 -0.24,-0.06 -0.47,-0.03 -0.68,0.08 -0.21,0.11 -0.35,0.3 -0.42,0.53 l -0.24,1 z"
   id="path6"
   style="fill:#1999e0;fill-opacity:1" /><path
   d="m 12.02,26.8 c 0,0.17 0.05,0.33 0.15,0.49 0.1,0.16 0.25,0.27 0.45,0.33 0.11,0.03 0.18,0.05 0.23,0.05 0.09,0 0.21,-0.03 0.38,-0.1 0.2,-0.08 0.34,-0.27 0.43,-0.55 l 0.3,-1.05 c 0.07,-0.21 0.05,-0.42 -0.07,-0.63 -0.12,-0.21 -0.29,-0.34 -0.51,-0.41 -0.24,-0.06 -0.47,-0.04 -0.67,0.08 -0.2,0.12 -0.34,0.29 -0.41,0.53 l -0.25,1.01 c -0.02,0.08 -0.03,0.17 -0.03,0.25 z"
   id="path4"
   style="fill:#1999e0;fill-opacity:1" /><path
   d="m 10.77,18.95 c 0,0.11 0.03,0.23 0.1,0.36 0.07,0.17 0.25,0.3 0.53,0.38 0.24,0.06 0.46,0.04 0.66,-0.06 0.19,-0.1 0.33,-0.28 0.4,-0.52 l 0.28,-1.03 c 0.07,-0.23 0.05,-0.45 -0.07,-0.64 -0.12,-0.2 -0.29,-0.33 -0.51,-0.39 -0.24,-0.06 -0.47,-0.04 -0.67,0.07 -0.2,0.11 -0.33,0.28 -0.4,0.52 l -0.27,1.01 c -0.03,0.13 -0.05,0.23 -0.05,0.3 z"
   id="path3"
   style="fill:#1999e0;fill-opacity:1" /><path
   d="m 9.47,23.68 c 0,0.15 0.05,0.3 0.15,0.45 0.1,0.15 0.25,0.26 0.45,0.33 0.22,0.07 0.43,0.06 0.64,-0.05 0.21,-0.11 0.34,-0.28 0.41,-0.51 l 0.28,-1.06 c 0.07,-0.21 0.05,-0.41 -0.07,-0.62 -0.12,-0.21 -0.29,-0.34 -0.51,-0.41 -0.23,-0.06 -0.45,-0.03 -0.65,0.08 -0.2,0.11 -0.34,0.3 -0.42,0.53 l -0.23,0.99 c -0.03,0.16 -0.05,0.25 -0.05,0.27 z"
   id="path2"
   style="fill:#1999e0;fill-opacity:1" />
</svg>
