<?xml version="1.0" encoding="UTF-8" standalone="no"?>
<!-- Generator: Adobe Illustrator 22.0.1, SVG Export Plug-In . SVG Version: 6.00 Build 0)  -->

<svg
   version="1.1"
   id="Layer_1"
   x="0px"
   y="0px"
   viewBox="0 0 30 30"
   style="enable-background:new 0 0 30 30;"
   xml:space="preserve"
   sodipodi:docname="wi-night-alt-snow.svg"
   inkscape:version="1.4.2 (f4327f4, 2025-05-13)"
   xmlns:inkscape="http://www.inkscape.org/namespaces/inkscape"
   xmlns:sodipodi="http://sodipodi.sourceforge.net/DTD/sodipodi-0.dtd"
   xmlns="http://www.w3.org/2000/svg"
   xmlns:svg="http://www.w3.org/2000/svg"><defs
   id="defs1" /><sodipodi:namedview
   id="namedview1"
   pagecolor="#ffffff"
   bordercolor="#000000"
   borderopacity="0.25"
   inkscape:showpageshadow="2"
   inkscape:pageopacity="0.0"
   inkscape:pagecheckerboard="0"
   inkscape:deskcolor="#d1d1d1"
   inkscape:zoom="25.766667"
   inkscape:cx="30.213454"
   inkscape:cy="15.426908"
   inkscape:window-width="2400"
   inkscape:window-height="1261"
   inkscape:window-x="-9"
   inkscape:window-y="-9"
   inkscape:window-maximized="1"
   inkscape:current-layer="Layer_1" />
<path
   id="path13"
   d="M 24.277344 14.548828 L 23.126953 13.132812 C 23.121363 13.13846 23.115017 13.144748 23.109375 13.150391 C 22.219375 12.360391 21.150859 11.970703 19.880859 11.970703 L 19.570312 11.970703 C 19.300313 10.740703 18.640078 9.6795314 17.580078 8.7695312 C 17.581576 8.7669215 17.58248 8.7643229 17.583984 8.7617188 L 16.142578 7.8847656 C 16.141604 7.8863971 16.141598 7.8889919 16.140625 7.890625 C 15.330625 7.560625 14.539766 7.390625 13.759766 7.390625 C 12.349766 7.390625 11.09 7.8309375 10 8.7109375 C 8.91 9.5909375 8.200625 10.710078 7.890625 12.080078 C 6.770625 12.360078 5.850625 12.949844 5.140625 13.839844 C 4.430625 14.739844 4.0703125 15.769687 4.0703125 16.929688 C 4.0703125 18.259687 4.5407031 19.399375 5.4707031 20.359375 C 6.4007031 21.319375 7.5391406 21.829141 8.8691406 21.869141 C 8.9891406 21.869141 9.0507812 21.809219 9.0507812 21.699219 L 9.0507812 20.359375 C 9.0507812 20.249375 8.9891406 20.189453 8.8691406 20.189453 C 8.0191406 20.149453 7.2894531 19.800156 6.6894531 19.160156 C 6.0794531 18.520156 5.7792969 17.769922 5.7792969 16.919922 C 5.7792969 16.069922 6.0608594 15.340703 6.6308594 14.720703 C 7.2008594 14.100703 7.9004686 13.759453 8.7304688 13.689453 L 9.2597656 13.619141 C 9.3897656 13.619141 9.4609375 13.559219 9.4609375 13.449219 L 9.5292969 12.929688 C 9.6392969 11.839688 10.090391 10.919686 10.900391 10.179688 C 11.710391 9.439687 12.659766 9.0703125 13.759766 9.0703125 C 14.849766 9.0703125 15.799141 9.4399218 16.619141 10.169922 C 17.439141 10.899922 17.899531 11.810625 18.019531 12.890625 L 18.099609 13.460938 C 18.099609 13.580936 18.159531 13.640625 18.269531 13.640625 L 19.890625 13.640625 C 20.800625 13.640625 21.570703 13.959375 22.220703 14.609375 C 22.870703 15.249375 23.189453 16.019922 23.189453 16.919922 C 23.189453 17.769922 22.889297 18.520156 22.279297 19.160156 C 21.669297 19.800156 20.949609 20.139453 20.099609 20.189453 C 19.959609 20.189453 19.890625 20.249375 19.890625 20.359375 L 19.890625 21.699219 C 19.890625 21.809219 19.959609 21.869141 20.099609 21.869141 C 20.979609 21.849141 21.779766 21.610156 22.509766 21.160156 C 23.239766 20.710156 23.820234 20.109375 24.240234 19.359375 C 24.660234 18.609375 24.869141 17.799688 24.869141 16.929688 C 24.869141 16.060498 24.669921 15.263371 24.277344 14.548828 z "
   style="fill:#7c7c7c;fill-opacity:1" /><path
   id="path11"
   d="m 20.599673,5.3591855 c -0.37,0 -0.739141,0.040859 -1.119141,0.1308594 -0.38,0.09 -0.769687,0.2182031 -1.179687,0.4082031 -0.41,0.19 -0.799688,0.4507813 -1.179688,0.8007813 -0.375799,0.3461313 -0.702465,0.741786 -0.980468,1.2050781 l 1.441406,0.8730469 c 0.309306,-0.5296615 0.746378,-0.9422716 1.289062,-1.2382813 0.55,-0.3 1.118985,-0.4489843 1.708985,-0.4589844 0.15,0 0.260078,0.00953 0.330078,0.019531 v 0.3105469 c 0,0.97 0.259297,1.8782808 0.779297,2.7382812 0.52,0.86 1.249922,1.510937 2.169922,1.960937 -0.155923,0.350825 -0.396315,0.701384 -0.732422,1.042969 l 1.078125,1.326172 0.03125,0.04492 c -0.0084,-0.01474 -0.01687,-0.03025 -0.02539,-0.04492 0.74,-0.66 1.239531,-1.520078 1.519531,-2.580078 l 0.169922,-0.71875 0.002,-0.002 c 0.0093,-0.01168 0.01758,-0.04062 0.01758,-0.07813 0,-0.07 -0.05016,-0.130156 -0.160157,-0.160156 l -0.609375,-0.169922 c -0.44,-0.13 -0.829922,-0.320312 -1.169922,-0.570312 -0.34,-0.2499998 -0.610547,-0.5298435 -0.810546,-0.8398435 -0.2,-0.31 -0.339454,-0.6192187 -0.439454,-0.9492187 -0.1,-0.32 -0.15039,-0.6411719 -0.15039,-0.9511719 0,-0.27 0.02961,-0.559375 0.09961,-0.859375 l 0.111328,-0.6210937 c 0.02,-0.09 -0.02062,-0.1687502 -0.140625,-0.21875 L 21.849673,5.5193418 c -0.44,-0.11 -0.85,-0.1601563 -1.25,-0.1601563 z"
   style="fill:#949bd4;fill-opacity:1" /><path
   d="m 16.9,24.66 c 0,0.23 0.08,0.42 0.24,0.58 0.16,0.16 0.36,0.24 0.6,0.24 0.24,0 0.43,-0.08 0.59,-0.24 0.16,-0.16 0.23,-0.35 0.23,-0.59 0,-0.24 -0.08,-0.43 -0.23,-0.59 -0.16,-0.16 -0.35,-0.23 -0.59,-0.23 -0.24,0 -0.44,0.08 -0.6,0.23 -0.16,0.16 -0.24,0.36 -0.24,0.6 z"
   id="path9"
   style="fill:#f9f9f9;fill-opacity:1" /><path
   d="m 16.9,21.02 c 0,0.24 0.08,0.44 0.25,0.6 0.17,0.16 0.36,0.25 0.6,0.25 0.24,0 0.43,-0.08 0.59,-0.25 0.16,-0.17 0.24,-0.37 0.24,-0.6 0,-0.22 -0.08,-0.42 -0.24,-0.58 -0.16,-0.16 -0.35,-0.24 -0.59,-0.24 -0.24,0 -0.43,0.08 -0.6,0.24 -0.17,0.16 -0.25,0.35 -0.25,0.58 z"
   id="path8"
   style="fill:#f9f9f9;fill-opacity:1" /><path
   d="m 13.66,26.63 c 0,0.22 0.08,0.41 0.24,0.57 0.17,0.17 0.36,0.25 0.58,0.25 0.24,0 0.44,-0.08 0.61,-0.24 0.17,-0.16 0.25,-0.35 0.25,-0.59 0,-0.24 -0.08,-0.44 -0.25,-0.61 -0.17,-0.17 -0.37,-0.26 -0.61,-0.26 -0.22,0 -0.41,0.09 -0.58,0.26 -0.15,0.18 -0.24,0.39 -0.24,0.62 z"
   id="path7"
   style="fill:#f9f9f9;fill-opacity:1" /><path
   d="m 13.66,19.32 c 0,0.24 0.08,0.43 0.24,0.58 0.16,0.16 0.36,0.24 0.58,0.24 0.24,0 0.45,-0.08 0.61,-0.23 0.16,-0.15 0.25,-0.35 0.25,-0.59 0,-0.23 -0.08,-0.43 -0.25,-0.6 -0.17,-0.17 -0.37,-0.25 -0.61,-0.25 -0.22,0 -0.42,0.08 -0.58,0.25 -0.16,0.17 -0.24,0.37 -0.24,0.6 z"
   id="path6"
   style="fill:#f9f9f9;fill-opacity:1" /><path
   d="m 13.66,22.96 c 0,0.24 0.08,0.44 0.24,0.59 0.16,0.16 0.36,0.24 0.58,0.24 0.24,0 0.44,-0.08 0.61,-0.24 0.17,-0.16 0.25,-0.36 0.25,-0.59 0,-0.24 -0.08,-0.44 -0.25,-0.61 -0.17,-0.17 -0.37,-0.26 -0.61,-0.26 -0.22,0 -0.41,0.09 -0.58,0.26 -0.17,0.17 -0.24,0.37 -0.24,0.61 z"
   id="path4"
   style="fill:#f9f9f9;fill-opacity:1" /><path
   d="m 10.46,24.66 c 0,0.23 0.08,0.42 0.24,0.58 0.16,0.16 0.36,0.24 0.58,0.24 0.24,0 0.44,-0.08 0.6,-0.23 0.16,-0.16 0.24,-0.35 0.24,-0.59 0,-0.24 -0.08,-0.43 -0.24,-0.59 -0.16,-0.16 -0.36,-0.23 -0.6,-0.23 -0.24,0 -0.43,0.08 -0.59,0.23 -0.15,0.15 -0.23,0.35 -0.23,0.59 z"
   id="path3"
   style="fill:#f9f9f9;fill-opacity:1" /><path
   d="m 10.46,21.02 c 0,0.24 0.08,0.44 0.24,0.6 0.16,0.17 0.35,0.25 0.59,0.25 0.24,0 0.44,-0.08 0.6,-0.25 0.16,-0.17 0.24,-0.37 0.24,-0.6 0,-0.22 -0.08,-0.42 -0.24,-0.58 -0.16,-0.16 -0.36,-0.24 -0.6,-0.24 -0.23,0 -0.43,0.08 -0.59,0.24 -0.16,0.16 -0.24,0.35 -0.24,0.58 z"
   id="path2"
   style="fill:#f9f9f9;fill-opacity:1" />
</svg>
