<?xml version="1.0" encoding="UTF-8" standalone="no"?>
<!-- Generator: Adobe Illustrator 22.0.1, SVG Export Plug-In . SVG Version: 6.00 Build 0)  -->

<svg
   version="1.1"
   id="Layer_1"
   x="0px"
   y="0px"
   viewBox="0 0 30 30"
   style="enable-background:new 0 0 30 30;"
   xml:space="preserve"
   sodipodi:docname="wi-night-alt-cloudy.svg"
   inkscape:version="1.4.2 (f4327f4, 2025-05-13)"
   xmlns:inkscape="http://www.inkscape.org/namespaces/inkscape"
   xmlns:sodipodi="http://sodipodi.sourceforge.net/DTD/sodipodi-0.dtd"
   xmlns="http://www.w3.org/2000/svg"
   xmlns:svg="http://www.w3.org/2000/svg"><defs
   id="defs1" /><sodipodi:namedview
   id="namedview1"
   pagecolor="#ffffff"
   bordercolor="#000000"
   borderopacity="0.25"
   inkscape:showpageshadow="2"
   inkscape:pageopacity="0.0"
   inkscape:pagecheckerboard="0"
   inkscape:deskcolor="#d1d1d1"
   inkscape:zoom="36.439569"
   inkscape:cx="19.004066"
   inkscape:cy="11.81408"
   inkscape:window-width="2400"
   inkscape:window-height="1261"
   inkscape:window-x="-9"
   inkscape:window-y="-9"
   inkscape:window-maximized="1"
   inkscape:current-layer="Layer_1" />
<path
   id="path4"
   d="M 24.173828 14.425781 L 23.107422 13.113281 L 23.101562 13.109375 C 23.087722 13.122835 23.07468 13.137114 23.060547 13.150391 C 22.190547 12.360391 21.130625 11.970703 19.890625 11.970703 L 19.570312 11.970703 C 19.32491 10.782953 18.684268 9.7385255 17.658203 8.8398438 L 16.103516 7.8945312 L 16.103516 7.890625 C 15.367212 7.5835358 14.594273 7.4296875 13.800781 7.4296875 C 13.130781 7.4296875 12.489141 7.54 11.869141 7.75 C 10.889141 8.08 10.039844 8.6303906 9.3398438 9.4003906 C 8.6398438 10.170391 8.1694531 11.069609 7.9394531 12.099609 C 6.8194531 12.349609 5.9092187 12.920312 5.1992188 13.820312 C 4.4892188 14.720312 4.140625 15.740391 4.140625 16.900391 C 4.140625 17.800391 4.3607812 18.630859 4.8007812 19.380859 C 5.2407813 20.130859 5.8298437 20.729687 6.5898438 21.179688 C 7.3498438 21.629688 8.1803125 21.849609 9.0703125 21.849609 L 19.880859 21.849609 C 20.770859 21.849609 21.599375 21.619688 22.359375 21.179688 C 23.109375 20.739688 23.720156 20.140859 24.160156 19.380859 C 24.610156 18.620859 24.830078 17.790391 24.830078 16.900391 C 24.830078 16.790391 24.830313 16.719922 24.820312 16.669922 C 24.790313 15.879922 24.569922 15.129687 24.169922 14.429688 C 24.171249 14.428508 24.172502 14.426963 24.173828 14.425781 z M 13.800781 9.1308594 C 13.840781 9.1308594 13.879219 9.130625 13.949219 9.140625 C 14.019219 9.150625 14.069609 9.1503906 14.099609 9.1503906 C 15.109609 9.2403906 15.990469 9.6396094 16.730469 10.349609 C 17.470469 11.059609 17.890234 11.929453 17.990234 12.939453 L 18.089844 13.689453 L 19.869141 13.689453 C 20.749141 13.689453 21.510391 14.010625 22.150391 14.640625 C 22.790391 15.270625 23.109375 16.020391 23.109375 16.900391 C 23.109375 17.800391 22.790156 18.570703 22.160156 19.220703 C 21.530156 19.870703 20.770859 20.189453 19.880859 20.189453 L 9.0703125 20.189453 C 8.2003125 20.189453 7.4505469 19.860937 6.8105469 19.210938 C 6.1705469 18.560937 5.8496094 17.790391 5.8496094 16.900391 C 5.8496094 16.070391 6.1099219 15.36 6.6699219 14.75 C 7.2299219 14.14 7.9295313 13.789453 8.7695312 13.689453 L 9.4492188 13.660156 L 9.5195312 12.939453 C 9.6195313 12.119453 9.9199219 11.399531 10.419922 10.769531 C 10.909922 10.139531 11.529766 9.6803906 12.259766 9.4003906 L 12.259766 9.4199219 C 12.779766 9.2299219 13.290781 9.1308594 13.800781 9.1308594 z "
   style="fill:#7c7c7c;fill-opacity:1" /><path
   id="path2"
   d="m 20.595654,5.3730963 c -0.36,0 -0.739141,0.040859 -1.119141,0.1308594 -0.38,0.09 -0.779687,0.2301562 -1.179687,0.4101562 -0.4,0.18 -0.789922,0.4490625 -1.169922,0.7890625 -0.379843,0.3398599 -0.710309,0.7509463 -0.990234,1.2207031 l 1.451171,0.8769532 c 0.329867,-0.5488035 0.778938,-0.9680215 1.328126,-1.2675782 0.55,-0.31 1.121171,-0.4494531 1.701171,-0.4394531 0.11,0 0.188282,-2.343e-4 0.238282,0.00977 v 0.2402343 c 0,0.97 0.271015,1.8992969 0.791015,2.7792966 0.53,0.88 1.250156,1.540703 2.160156,1.970703 -0.170287,0.378416 -0.402978,0.721182 -0.707031,1.019531 l 1.072266,1.316407 c 0.712019,-0.638437 1.21627,-1.48422 1.484375,-2.556641 l 0.179687,-0.669922 c 0.01,-0.03 0.01953,-0.05031 0.01953,-0.07031 0,-0.08 -0.04844,-0.128204 -0.148438,-0.158203 l -0.621094,-0.220704 c -0.43,-0.13 -0.81039,-0.320312 -1.15039,-0.570312 -0.34,-0.2499998 -0.608828,-0.5200779 -0.798828,-0.8300779 -0.2,-0.3100001 -0.339453,-0.6194532 -0.439453,-0.9394532 -0.100001,-0.32 -0.150391,-0.6411719 -0.150391,-0.9511718 0,-0.26 0.02961,-0.5493751 0.09961,-0.859375 L 22.78706,6.0039557 c 0.04,-0.09 -6.25e-4,-0.1607032 -0.140625,-0.2207032 l -0.820312,-0.25 c -0.44,-0.1099999 -0.850469,-0.1601562 -1.230469,-0.1601562 z"
   style="fill:#949bd4;fill-opacity:1" />
</svg>
