<?xml version="1.0" encoding="UTF-8" standalone="no"?>
<!-- Generator: Adobe Illustrator 22.0.1, SVG Export Plug-In . SVG Version: 6.00 Build 0)  -->

<svg
   version="1.1"
   id="Layer_1"
   x="0px"
   y="0px"
   viewBox="0 0 30 30"
   style="enable-background:new 0 0 30 30;"
   xml:space="preserve"
   sodipodi:docname="wi-night-alt-rain.svg"
   inkscape:version="1.4.2 (f4327f4, 2025-05-13)"
   xmlns:inkscape="http://www.inkscape.org/namespaces/inkscape"
   xmlns:sodipodi="http://sodipodi.sourceforge.net/DTD/sodipodi-0.dtd"
   xmlns="http://www.w3.org/2000/svg"
   xmlns:svg="http://www.w3.org/2000/svg"><defs
   id="defs1" /><sodipodi:namedview
   id="namedview1"
   pagecolor="#ffffff"
   bordercolor="#000000"
   borderopacity="0.25"
   inkscape:showpageshadow="2"
   inkscape:pageopacity="0.0"
   inkscape:pagecheckerboard="0"
   inkscape:deskcolor="#d1d1d1"
   inkscape:zoom="32"
   inkscape:cx="21.515625"
   inkscape:cy="15.171875"
   inkscape:window-width="2400"
   inkscape:window-height="1261"
   inkscape:window-x="-9"
   inkscape:window-y="-9"
   inkscape:window-maximized="1"
   inkscape:current-layer="Layer_1" />
<path
   id="path9"
   d="M 24.199219 14.449219 L 23.087891 13.082031 C 22.172924 12.334395 21.110877 11.970703 19.880859 11.970703 L 19.570312 11.970703 C 19.300313 10.700703 18.640078 9.6395314 17.580078 8.7695312 C 17.581274 8.7673639 17.582786 8.7658353 17.583984 8.7636719 L 16.078125 7.8476562 C 15.269301 7.5550879 14.500222 7.4101563 13.779297 7.4101562 C 12.369297 7.4101562 11.109531 7.8504687 10.019531 8.7304688 C 8.9295316 9.6104687 8.2201562 10.729609 7.9101562 12.099609 C 6.8001562 12.359609 5.8899219 12.930078 5.1699219 13.830078 C 4.4299219 14.720078 4.0703125 15.750391 4.0703125 16.900391 C 4.0703125 18.230391 4.5407031 19.379844 5.4707031 20.339844 C 6.4007031 21.299844 7.5391406 21.809141 8.8691406 21.869141 C 8.9891406 21.869141 9.0507812 21.809219 9.0507812 21.699219 L 9.0507812 20.359375 C 9.0507812 20.249375 8.9891406 20.189453 8.8691406 20.189453 C 8.0091406 20.139453 7.2796875 19.800156 6.6796875 19.160156 C 6.0796875 18.520156 5.7792969 17.770391 5.7792969 16.900391 C 5.7792969 16.070391 6.0608594 15.350469 6.6308594 14.730469 C 7.2008594 14.110469 7.9004686 13.760156 8.7304688 13.660156 L 9.2597656 13.619141 C 9.3897656 13.619141 9.4609375 13.559219 9.4609375 13.449219 L 9.5292969 12.910156 C 9.6392969 11.830156 10.100156 10.919453 10.910156 10.189453 C 11.720156 9.4594532 12.679531 9.0898438 13.769531 9.0898438 C 14.859531 9.0898438 15.810859 9.4594532 16.630859 10.189453 C 17.450859 10.919453 17.909297 11.830156 18.029297 12.910156 L 18.109375 13.480469 C 18.109375 13.600469 18.169297 13.660156 18.279297 13.660156 L 19.900391 13.660156 C 20.790391 13.660156 21.570703 13.979141 22.220703 14.619141 C 22.870703 15.259141 23.199219 16.020391 23.199219 16.900391 C 23.199219 17.770391 22.900781 18.520156 22.300781 19.160156 C 21.700781 19.800156 20.969375 20.139453 20.109375 20.189453 C 19.969375 20.189453 19.900391 20.249375 19.900391 20.359375 L 19.900391 21.699219 C 19.900391 21.809219 19.969375 21.869141 20.109375 21.869141 C 21.439375 21.829141 22.570234 21.319375 23.490234 20.359375 C 24.420234 19.389375 24.880859 18.240156 24.880859 16.910156 C 24.880859 16.030232 24.649143 15.209164 24.199219 14.449219 z "
   style="fill:#7c7c7c;fill-opacity:1" /><path
   id="path7"
   d="m 20.626954,5.3085937 c -0.38,0 -0.760625,0.038906 -1.140625,0.1289063 -0.39,0.09 -0.789219,0.2201562 -1.199219,0.4101563 -0.41,0.1799999 -0.811172,0.4507812 -1.201172,0.8007812 -0.388914,0.3490249 -0.716596,0.7465488 -0.996094,1.2148438 l 1.478516,0.8945312 c 0.318816,-0.5699863 0.745376,-1.0041714 1.298828,-1.3105469 0.55,-0.3 1.139766,-0.4494531 1.759766,-0.4394531 0.12,0 0.209531,-2.344e-4 0.269531,0.00977 v 0.3007813 c -0.01,0.97 0.239531,1.8799999 0.769531,2.7499996 0.52,0.86 1.260938,1.51875 2.210938,1.96875 -0.218526,0.456917 -0.487554,0.804992 -0.785157,1.064453 l 1.095704,1.345703 c 0.803637,-0.727922 1.319506,-1.594053 1.568359,-2.609375 l 0.140625,-0.720703 c 0.01,-0.01 0.01953,-0.03031 0.01953,-0.07031 0,-0.07 -0.05016,-0.128203 -0.160156,-0.158203 l -0.558594,-0.18164 c -0.57,-0.16 -1.060937,-0.440078 -1.460937,-0.8300779 -0.41,-0.39 -0.699141,-0.7985156 -0.869141,-1.2285156 -0.17,-0.43 -0.259766,-0.86125 -0.259766,-1.28125 -0.02,-0.22 0.01008,-0.5003125 0.08008,-0.8203125 L 22.826172,5.9375 c 0.04,-0.1 0.0013,-0.1802344 -0.138671,-0.2402344 L 21.896485,5.4570313 c -0.45,-0.1000001 -0.869531,-0.1484375 -1.269531,-0.1484376 z"
   style="fill:#949bd4;fill-opacity:1" /><path
   d="m 16.4,23.82 c 0,0.36 0.21,0.6 0.63,0.74 0.14,0.04 0.24,0.06 0.3,0.06 0.11,0 0.23,-0.02 0.35,-0.07 0.21,-0.08 0.34,-0.28 0.39,-0.58 L 19.5,18.1 c 0.06,-0.24 0.04,-0.45 -0.08,-0.65 -0.11,-0.19 -0.28,-0.32 -0.51,-0.39 -0.23,-0.07 -0.45,-0.05 -0.66,0.07 -0.21,0.11 -0.33,0.28 -0.38,0.51 l -1.43,5.9 C 16.42,23.7 16.4,23.8 16.4,23.82 Z"
   id="path4"
   style="fill:#1999e0;fill-opacity:1" /><path
   d="m 12.24,26.81 c 0,0.16 0.05,0.31 0.15,0.46 0.1,0.15 0.25,0.25 0.45,0.31 0.11,0.03 0.19,0.04 0.24,0.04 0.44,0 0.71,-0.2 0.82,-0.59 l 2.25,-8.93 c 0.06,-0.24 0.04,-0.46 -0.07,-0.65 -0.11,-0.19 -0.28,-0.32 -0.5,-0.39 -0.23,-0.07 -0.45,-0.05 -0.66,0.07 -0.21,0.12 -0.34,0.28 -0.39,0.5 l -2.26,8.92 c 0,0.01 0,0.05 -0.01,0.12 -0.02,0.06 -0.02,0.11 -0.02,0.14 z"
   id="path3"
   style="fill:#1999e0;fill-opacity:1" /><path
   d="m 9.63,23.74 c 0,0.17 0.05,0.33 0.16,0.49 0.11,0.16 0.27,0.27 0.49,0.33 0.23,0.07 0.45,0.05 0.64,-0.04 0.2,-0.1 0.33,-0.28 0.4,-0.56 l 1.43,-5.87 c 0.06,-0.25 0.03,-0.48 -0.08,-0.67 -0.12,-0.2 -0.29,-0.32 -0.52,-0.37 -0.22,-0.07 -0.43,-0.05 -0.63,0.07 -0.2,0.11 -0.34,0.28 -0.41,0.51 l -1.44,5.9 c 0,0.01 -0.01,0.04 -0.02,0.09 -0.01,0.05 -0.02,0.09 -0.02,0.12 z"
   id="path2"
   style="fill:#1999e0;fill-opacity:1" />
</svg>
