<?xml version="1.0" encoding="UTF-8" standalone="no"?>
<!-- Generator: Adobe Illustrator 22.0.1, SVG Export Plug-In . SVG Version: 6.00 Build 0)  -->

<svg
   version="1.1"
   id="Layer_1"
   x="0px"
   y="0px"
   viewBox="0 0 30 30"
   style="enable-background:new 0 0 30 30;"
   xml:space="preserve"
   sodipodi:docname="wi-night-alt-sprinkle.svg"
   inkscape:version="1.4.2 (f4327f4, 2025-05-13)"
   xmlns:inkscape="http://www.inkscape.org/namespaces/inkscape"
   xmlns:sodipodi="http://sodipodi.sourceforge.net/DTD/sodipodi-0.dtd"
   xmlns="http://www.w3.org/2000/svg"
   xmlns:svg="http://www.w3.org/2000/svg"><defs
   id="defs1" /><sodipodi:namedview
   id="namedview1"
   pagecolor="#ffffff"
   bordercolor="#000000"
   borderopacity="0.25"
   inkscape:showpageshadow="2"
   inkscape:pageopacity="0.0"
   inkscape:pagecheckerboard="0"
   inkscape:deskcolor="#d1d1d1"
   inkscape:zoom="25.766667"
   inkscape:cx="15.776197"
   inkscape:cy="11.196636"
   inkscape:window-width="2400"
   inkscape:window-height="1261"
   inkscape:window-x="-9"
   inkscape:window-y="-9"
   inkscape:window-maximized="1"
   inkscape:current-layer="Layer_1" />
<path
   id="path9"
   d="M 24.193359 14.4375 L 23.097656 13.089844 C 22.170305 12.335825 21.115589 11.960937 19.900391 11.960938 L 19.570312 11.960938 C 19.270312 10.650937 18.600547 9.5895314 17.560547 8.7695312 C 17.562771 8.7659097 17.564174 8.7614227 17.566406 8.7578125 L 16.09375 7.8632812 C 16.092483 7.8653558 16.091108 7.8670632 16.089844 7.8691406 C 15.279844 7.5591406 14.499766 7.4101563 13.759766 7.4101562 C 12.349766 7.4101562 11.09 7.8504688 10 8.7304688 C 8.91 9.6104687 8.200625 10.729844 7.890625 12.089844 C 6.780625 12.349844 5.8701563 12.930078 5.1601562 13.830078 C 4.4701563 14.710078 4.109375 15.740625 4.109375 16.890625 C 4.109375 18.220625 4.57 19.370313 5.5 20.320312 C 6.43 21.280313 7.5603906 21.789375 8.9003906 21.859375 C 9.0203906 21.859375 9.0800781 21.799688 9.0800781 21.679688 L 9.0800781 20.349609 C 9.0800781 20.229609 9.0203906 20.169922 8.9003906 20.169922 C 8.0403906 20.129922 7.3207031 19.790391 6.7207031 19.150391 C 6.1207031 18.510391 5.8203125 17.760625 5.8203125 16.890625 C 5.8203125 16.060625 6.1001563 15.340703 6.6601562 14.720703 C 7.2201562 14.110703 7.9197656 13.750391 8.7597656 13.650391 L 9.2792969 13.609375 C 9.4092969 13.609375 9.4804687 13.549686 9.4804688 13.429688 L 9.5507812 12.890625 C 9.6607813 11.810625 10.109922 10.899686 10.919922 10.179688 C 11.729922 9.449687 12.679531 9.0898438 13.769531 9.0898438 C 14.859531 9.0898438 15.810859 9.4594532 16.630859 10.189453 C 17.450859 10.919453 17.909297 11.820391 18.029297 12.900391 L 18.099609 13.470703 C 18.099609 13.590703 18.159297 13.660156 18.279297 13.660156 L 19.900391 13.660156 C 20.790391 13.660156 21.549219 13.979141 22.199219 14.619141 C 22.849219 15.259141 23.169922 16.020625 23.169922 16.890625 C 23.169922 17.760625 22.869531 18.510391 22.269531 19.150391 C 21.669531 19.790391 20.939844 20.129922 20.089844 20.169922 C 19.969844 20.169922 19.900391 20.229609 19.900391 20.349609 L 19.900391 21.679688 C 19.900391 21.799688 19.959844 21.859375 20.089844 21.859375 C 20.969844 21.829375 21.77 21.590625 22.5 21.140625 C 23.23 20.690625 23.810469 20.089844 24.230469 19.339844 C 24.650469 18.589844 24.859375 17.770391 24.859375 16.900391 C 24.859375 16.030391 24.629688 15.219219 24.179688 14.449219 C 24.184051 14.445079 24.189013 14.441647 24.193359 14.4375 z "
   style="fill:#7c7c7c;fill-opacity:1" /><path
   id="path7"
   d="m 20.570502,5.3593119 c -0.36,0 -0.72914,0.040859 -1.11914,0.1308594 -0.38,0.09 -0.781406,0.2203906 -1.191407,0.4003906 -0.41,0.18 -0.809218,0.4390625 -1.199218,0.7890625 -0.380739,0.3416887 -0.702841,0.7221565 -0.978516,1.1679687 l 0.01172,0.029297 1.453125,0.8789063 c 0.347824,-0.5579667 0.791883,-0.9797411 1.324219,-1.265625 0.54,-0.2900001 1.11875,-0.4414063 1.71875,-0.4414063 0.12,0 0.211484,0.011484 0.271484,0.021484 v 0.2988281 c 0,0.96 0.259062,1.8702348 0.789063,2.7402335 0.53,0.87 1.249687,1.520704 2.179687,1.970703 -0.158742,0.377015 -0.406264,0.713464 -0.742187,1.021485 l 1.085937,1.333984 c 0.766533,-0.734845 1.270144,-1.586697 1.517578,-2.55664 l 0.138672,-0.728516 c 0.01,-0.01 0.02148,-0.03031 0.02148,-0.07031 0,-0.07 -0.05016,-0.130156 -0.160156,-0.160156 l -0.570312,-0.169922 c -0.57,-0.16 -1.060938,-0.440312 -1.460938,-0.8203116 -0.41,-0.38 -0.699141,-0.7889844 -0.869141,-1.2089844 -0.17,-0.43 -0.259765,-0.85125 -0.259765,-1.28125 0,-0.29 0.03937,-0.5696094 0.109375,-0.8496094 l 0.130859,-0.609375 c 0.02,-0.1 -0.02086,-0.1804687 -0.130859,-0.2304687 L 21.840034,5.5097025 c -0.45,-0.1 -0.869532,-0.1503906 -1.269532,-0.1503906 z"
   style="fill:#949bd4;fill-opacity:1" /><path
   d="m 14.51,15.09 c 0,0.26 0.1,0.47 0.29,0.66 0.19,0.19 0.42,0.27 0.7,0.27 0.26,0 0.47,-0.09 0.66,-0.27 0.18,-0.18 0.27,-0.4 0.27,-0.66 0,-0.43 -0.31,-0.97 -0.93,-1.62 l -0.25,0.27 c -0.18,0.2 -0.35,0.43 -0.5,0.7 -0.17,0.27 -0.24,0.49 -0.24,0.65 z"
   id="path4"
   style="fill:#1999e0;fill-opacity:1" /><path
   d="m 13.04,21.76 c 0,0.66 0.23,1.21 0.68,1.66 0.46,0.45 1.01,0.67 1.65,0.67 0.66,0 1.21,-0.23 1.66,-0.68 0.45,-0.46 0.68,-1.01 0.68,-1.65 0,-0.55 -0.27,-1.22 -0.8,-2 -0.44,-0.58 -0.87,-1.08 -1.28,-1.49 -0.08,-0.06 -0.17,-0.13 -0.26,-0.23 l -0.23,0.23 c -0.39,0.36 -0.82,0.86 -1.28,1.48 -0.24,0.33 -0.43,0.68 -0.59,1.04 -0.16,0.37 -0.23,0.69 -0.23,0.97 z"
   id="path3"
   style="fill:#1999e0;fill-opacity:1" /><path
   d="m 10.05,17.77 c 0,0.38 0.14,0.71 0.42,0.98 0.28,0.27 0.62,0.4 1.02,0.4 0.4,0 0.73,-0.13 1,-0.4 0.27,-0.27 0.4,-0.59 0.4,-0.98 0,-0.26 -0.12,-0.6 -0.35,-1.02 C 12.31,16.33 12.09,16 11.89,15.77 11.78,15.65 11.65,15.51 11.48,15.34 l -0.35,0.41 c -0.27,0.29 -0.52,0.64 -0.75,1.04 -0.23,0.4 -0.33,0.72 -0.33,0.98 z"
   id="path2"
   style="fill:#1999e0;fill-opacity:1" />
</svg>
