<?xml version="1.0" encoding="UTF-8" standalone="no"?>
<!-- Generator: Adobe Illustrator 22.0.1, SVG Export Plug-In . SVG Version: 6.00 Build 0)  -->

<svg
   version="1.1"
   id="Layer_1"
   x="0px"
   y="0px"
   viewBox="0 0 30 30"
   style="enable-background:new 0 0 30 30;"
   xml:space="preserve"
   sodipodi:docname="wi-night-fog.svg"
   inkscape:version="1.4.2 (f4327f4, 2025-05-13)"
   xmlns:inkscape="http://www.inkscape.org/namespaces/inkscape"
   xmlns:sodipodi="http://sodipodi.sourceforge.net/DTD/sodipodi-0.dtd"
   xmlns="http://www.w3.org/2000/svg"
   xmlns:svg="http://www.w3.org/2000/svg"><defs
   id="defs1" /><sodipodi:namedview
   id="namedview1"
   pagecolor="#ffffff"
   bordercolor="#000000"
   borderopacity="0.25"
   inkscape:showpageshadow="2"
   inkscape:pageopacity="0.0"
   inkscape:pagecheckerboard="0"
   inkscape:deskcolor="#d1d1d1"
   inkscape:zoom="36.439569"
   inkscape:cx="18.702197"
   inkscape:cy="11.567096"
   inkscape:window-width="2400"
   inkscape:window-height="1261"
   inkscape:window-x="-9"
   inkscape:window-y="-9"
   inkscape:window-maximized="1"
   inkscape:current-layer="Layer_1" />
<path
   id="path9"
   d="M 25.121094 14.373047 C 25.120368 14.371613 25.119861 14.370557 25.119141 14.369141 L 23.990234 12.980469 C 23.980854 12.99027 23.970466 12.999965 23.960938 13.009766 C 23.040937 12.249766 21.990313 11.880859 20.820312 11.880859 L 20.5 11.880859 C 20.18 10.570859 19.519766 9.5092187 18.509766 8.6992188 C 18.511562 8.6962932 18.513822 8.6943255 18.515625 8.6914062 L 17.050781 7.8007812 C 16.260781 7.4907813 15.489766 7.3398438 14.759766 7.3398438 C 13.369766 7.3398438 12.140781 7.7803906 11.050781 8.6503906 C 9.9607816 9.5203906 9.2692188 10.64 8.9492188 12 C 8.1092188 12.2 7.3704686 12.600936 6.7304688 13.210938 C 6.0904687 13.820937 5.6699219 14.550625 5.4199219 15.390625 L 5.4199219 15.339844 C 5.3799219 15.489844 5.4190625 15.560547 5.5390625 15.560547 L 6.9804688 15.560547 C 7.0404687 15.560547 7.0999219 15.510156 7.1699219 15.410156 C 7.4099219 14.890156 7.7604687 14.470625 8.2304688 14.140625 C 8.7004687 13.810625 9.2192969 13.620078 9.7792969 13.580078 L 10.310547 13.5 C 10.430547 13.5 10.5 13.440312 10.5 13.320312 L 10.560547 12.820312 C 10.670547 11.740312 11.119922 10.849141 11.919922 10.119141 C 12.719922 9.3991402 13.669766 9.0390625 14.759766 9.0390625 C 15.829766 9.0390625 16.780078 9.399375 17.580078 10.109375 C 18.380078 10.819375 18.850936 11.709297 18.960938 12.779297 L 19.029297 13.349609 C 19.029297 13.469609 19.100234 13.529297 19.240234 13.529297 L 20.820312 13.529297 C 21.460313 13.529297 22.050313 13.700781 22.570312 14.050781 C 23.090312 14.390781 23.490234 14.850156 23.740234 15.410156 C 23.810234 15.510156 23.880938 15.560547 23.960938 15.560547 L 25.380859 15.560547 C 25.500859 15.560547 25.549297 15.489844 25.529297 15.339844 C 25.346403 14.874296 25.21274 14.554198 25.121094 14.373047 z "
   style="fill:#7c7c7c;fill-opacity:1" /><path
   id="path7"
   d="m 21.492088,5.2950208 c -0.674804,-8.789e-4 -1.34375,0.1371094 -2,0.4121094 -1.046068,0.4383523 -1.863505,1.1449397 -2.46289,2.109375 l 1.466797,0.8886719 c 0.348531,-0.5594962 0.814164,-1.0026288 1.396484,-1.3085938 0.4425,-0.2325 0.902344,-0.3628906 1.382812,-0.3886718 0.160157,-0.00859 0.32133,-0.00523 0.486328,0.00977 -0.07,1.04 0.171172,2.0196875 0.701172,2.9296875 0.54,0.9100004 1.280704,1.5795314 2.220704,2.0195314 -0.144532,0.337241 -0.382676,0.684366 -0.712891,1.03125 l 1.082031,1.328125 c -0.0037,-0.0064 -0.0063,-0.0137 -0.0098,-0.01953 0.72,-0.65 1.230001,-1.50836 1.5,-2.568359 l 0.169922,-0.660157 c 0.03,-0.06 0.02023,-0.120156 -0.0098,-0.160156 -0.03,-0.04 -0.07109,-0.07031 -0.121094,-0.07031 l -0.619141,-0.220703 c -0.89,-0.26 -1.571015,-0.7800781 -2.041015,-1.5800781 -0.47,-0.7999998 -0.589141,-1.6485937 -0.369141,-2.5585937 l 0.13086,-0.5800781 c 0.05,-0.09 0.0091,-0.1704688 -0.13086,-0.2304688 L 22.712791,5.4473646 c -0.40875,-0.10125 -0.81582,-0.1518164 -1.220703,-0.1523438 z"
   style="fill:#949bd4;fill-opacity:1" /><path
   d="m 7,23.97 c 0,0.24 0.09,0.43 0.26,0.59 0.17,0.18 0.37,0.27 0.59,0.27 H 26.5 c 0.23,0 0.43,-0.08 0.59,-0.25 0.16,-0.17 0.24,-0.37 0.24,-0.61 0,-0.23 -0.08,-0.42 -0.24,-0.58 -0.16,-0.16 -0.36,-0.23 -0.59,-0.23 H 7.86 c -0.24,0 -0.44,0.08 -0.6,0.23 C 7.09,23.55 7,23.74 7,23.97 Z"
   id="path4"
   style="fill:#969aa5;fill-opacity:1" /><path
   d="m 5.27,17.81 c 0,0.24 0.09,0.43 0.26,0.59 0.14,0.18 0.33,0.27 0.59,0.27 h 18.61 c 0.23,0 0.42,-0.08 0.58,-0.25 0.16,-0.17 0.23,-0.37 0.23,-0.61 0,-0.23 -0.08,-0.43 -0.23,-0.58 C 25.16,17.08 24.96,17 24.73,17 H 6.12 c -0.24,0 -0.44,0.08 -0.6,0.23 -0.17,0.16 -0.25,0.35 -0.25,0.58 z"
   id="path2"
   style="fill:#969aa5;fill-opacity:1" /><path
   d="m 2.66,20.92 c 0,0.23 0.08,0.42 0.25,0.57 0.17,0.16 0.38,0.23 0.62,0.23 h 18.61 c 0.24,0 0.44,-0.08 0.6,-0.23 0.17,-0.16 0.25,-0.35 0.25,-0.57 0,-0.24 -0.08,-0.45 -0.24,-0.61 -0.16,-0.17 -0.37,-0.25 -0.61,-0.25 H 3.53 c -0.24,0 -0.44,0.08 -0.61,0.25 -0.17,0.17 -0.26,0.38 -0.26,0.61 z"
   id="path1"
   style="fill:#969aa5;fill-opacity:1" />
</svg>
