<?xml version="1.0" encoding="UTF-8" standalone="no"?>
<!-- Generator: Adobe Illustrator 22.0.1, SVG Export Plug-In . SVG Version: 6.00 Build 0)  -->

<svg
   version="1.1"
   id="Layer_1"
   x="0px"
   y="0px"
   viewBox="0 0 30 30"
   style="enable-background:new 0 0 30 30;"
   xml:space="preserve"
   sodipodi:docname="wi-night-alt-hail.svg"
   inkscape:version="1.4.2 (f4327f4, 2025-05-13)"
   xmlns:inkscape="http://www.inkscape.org/namespaces/inkscape"
   xmlns:sodipodi="http://sodipodi.sourceforge.net/DTD/sodipodi-0.dtd"
   xmlns="http://www.w3.org/2000/svg"
   xmlns:svg="http://www.w3.org/2000/svg"><defs
   id="defs1" /><sodipodi:namedview
   id="namedview1"
   pagecolor="#ffffff"
   bordercolor="#000000"
   borderopacity="0.25"
   inkscape:showpageshadow="2"
   inkscape:pageopacity="0.0"
   inkscape:pagecheckerboard="0"
   inkscape:deskcolor="#d1d1d1"
   inkscape:zoom="25.766667"
   inkscape:cx="20.006468"
   inkscape:cy="15.892626"
   inkscape:window-width="2400"
   inkscape:window-height="1261"
   inkscape:window-x="-9"
   inkscape:window-y="-9"
   inkscape:window-maximized="1"
   inkscape:current-layer="Layer_1" />
<path
   id="path12"
   d="M 24.232422 14.525391 L 23.134766 13.175781 C 23.133658 13.176785 23.131969 13.178686 23.130859 13.179688 C 22.250859 12.389687 21.170859 12 19.880859 12 L 19.560547 12 C 19.300547 10.75 18.659141 9.6900781 17.619141 8.8300781 C 17.625101 8.8191196 17.630662 8.8077377 17.636719 8.796875 L 16.115234 7.8710938 C 15.378912 7.5636331 14.602108 7.4003906 13.789062 7.4003906 C 12.379064 7.4003906 11.119297 7.8409375 10.029297 8.7109375 C 8.9392968 9.5809375 8.2396875 10.700314 7.9296875 12.070312 C 6.8196875 12.330312 5.9094531 12.900781 5.1894531 13.800781 C 4.4694531 14.700781 4.0996094 15.760156 4.0996094 16.910156 C 4.0996094 18.240156 4.5602344 19.389844 5.4902344 20.339844 C 6.4202344 21.289844 7.550625 21.809141 8.890625 21.869141 C 9.010625 21.869141 9.0703125 21.809219 9.0703125 21.699219 L 9.0703125 20.359375 C 9.0703125 20.249375 9.010625 20.189453 8.890625 20.189453 C 8.030625 20.149453 7.3109375 19.809922 6.7109375 19.169922 C 6.1109375 18.529922 5.8105469 17.780156 5.8105469 16.910156 C 5.8105469 16.080156 6.0903906 15.360234 6.6503906 14.740234 C 7.2103906 14.130234 7.91 13.769922 8.75 13.669922 L 9.2792969 13.640625 C 9.4092969 13.640625 9.4804688 13.580936 9.4804688 13.460938 L 9.5507812 12.919922 C 9.6607813 11.839922 10.109922 10.929219 10.919922 10.199219 C 11.729922 9.4692185 12.679531 9.0996094 13.769531 9.0996094 C 14.849531 9.0996094 15.799141 9.4692185 16.619141 10.199219 C 17.439141 10.929219 17.899531 11.839922 18.019531 12.919922 L 18.099609 13.5 C 18.099609 13.61 18.159531 13.669922 18.269531 13.669922 L 19.880859 13.669922 C 20.770859 13.669922 21.539453 13.990859 22.189453 14.630859 C 22.839453 15.270859 23.169922 16.030391 23.169922 16.900391 C 23.169922 17.770391 22.869531 18.520156 22.269531 19.160156 C 21.669531 19.800156 20.939844 20.139686 20.089844 20.179688 C 19.959844 20.179688 19.890625 20.239609 19.890625 20.349609 L 19.890625 21.689453 C 19.890625 21.799453 19.959844 21.859375 20.089844 21.859375 C 21.419844 21.819375 22.550703 21.309609 23.470703 20.349609 C 24.400703 19.389609 24.859375 18.240391 24.859375 16.900391 C 24.859375 16.053691 24.649327 15.265321 24.232422 14.525391 z "
   style="fill:#7c7c7c;fill-opacity:1" /><path
   id="path10"
   d="m 20.585888,5.3672865 c -0.35,0 -0.710078,0.040859 -1.080078,0.1308593 -0.37,0.09 -0.759922,0.2184375 -1.169922,0.3984375 -0.41,0.18 -0.799453,0.4507813 -1.189453,0.8007813 -0.378845,0.348936 -0.718534,0.7486454 -0.998047,1.2167969 l 1.482422,0.8964843 c 0.308455,-0.5473955 0.740514,-0.9719207 1.275391,-1.2636719 0.55,-0.2999999 1.139765,-0.4494531 1.759766,-0.4394531 0.109999,0 0.2,0.00953 0.25,0.019531 v 0.3105468 c 0,0.9800001 0.26125,1.8900004 0.78125,2.7500001 0.519999,0.86 1.249921,1.509219 2.169921,1.949219 -0.187222,0.433567 -0.432589,0.780656 -0.736328,1.058594 l 1.023438,1.255859 0.04492,0.06445 c 0.789027,-0.739671 1.297054,-1.619859 1.546875,-2.61914 l 0.130859,-0.679688 c 0.0012,-6.25e-4 0.0047,-0.0032 0.0059,-0.0039 0.01531,-0.01107 0.02344,-0.03141 0.02344,-0.06641 0,-0.07 -0.05016,-0.128205 -0.160156,-0.158203 l -0.560547,-0.171876 c -0.57,-0.169998 -1.048985,-0.449609 -1.458985,-0.8496092 -0.4,-0.4 -0.689375,-0.81 -0.859375,-1.25 -0.17,-0.43 -0.25,-0.8703125 -0.25,-1.3203125 -0.01,-0.24 0.02008,-0.5090625 0.08008,-0.7890625 l 0.138671,-0.5800781 c 0.03,-0.09 -0.01867,-0.1607031 -0.138671,-0.2207031 l -0.800782,-0.25 c -0.42,-0.12 -0.860547,-0.1894532 -1.310547,-0.1894531 z"
   style="fill:#949bd4;fill-opacity:1" /><path
   d="m 16.97,21.08 c 0,0.16 0.05,0.32 0.15,0.46 0.1,0.14 0.25,0.25 0.45,0.31 0.17,0.02 0.26,0.03 0.27,0.03 0.41,0 0.66,-0.2 0.77,-0.61 l 0.87,-3.17 c 0.06,-0.24 0.04,-0.45 -0.07,-0.65 -0.11,-0.19 -0.28,-0.32 -0.5,-0.39 -0.23,-0.07 -0.45,-0.05 -0.64,0.07 -0.2,0.11 -0.33,0.28 -0.4,0.51 L 17,20.81 c -0.02,0.09 -0.03,0.18 -0.03,0.27 z"
   id="path8"
   style="fill:#1999e0;fill-opacity:1" /><path
   d="m 16.25,23.64 c 0,0.13 0.02,0.23 0.07,0.31 0.08,0.2 0.23,0.35 0.44,0.44 0.12,0.05 0.23,0.08 0.35,0.08 0.06,0 0.16,-0.02 0.3,-0.06 0.22,-0.09 0.37,-0.23 0.45,-0.44 0.08,-0.22 0.08,-0.43 0,-0.63 -0.08,-0.2 -0.22,-0.35 -0.42,-0.45 -0.22,-0.1 -0.44,-0.11 -0.65,-0.02 -0.22,0.08 -0.37,0.24 -0.47,0.46 -0.05,0.08 -0.07,0.18 -0.07,0.31 z"
   id="path7"
   style="fill:#195bbc;fill-opacity:1" /><path
   d="m 12.81,24.06 c 0,0.38 0.21,0.64 0.64,0.78 0.09,0.03 0.17,0.05 0.23,0.05 0.11,0 0.23,-0.03 0.35,-0.08 0.23,-0.08 0.39,-0.27 0.47,-0.57 l 1.65,-6.12 c 0.06,-0.24 0.04,-0.45 -0.07,-0.65 -0.11,-0.19 -0.28,-0.32 -0.5,-0.39 -0.23,-0.07 -0.45,-0.05 -0.65,0.07 -0.2,0.11 -0.34,0.28 -0.4,0.51 l -1.68,6.17 c -0.03,0.09 -0.04,0.17 -0.04,0.23 z"
   id="path6"
   style="fill:#1999e0;fill-opacity:1" /><path
   d="m 12.07,26.71 c 0,0.12 0.02,0.22 0.06,0.29 0.09,0.22 0.24,0.37 0.45,0.45 0.09,0.05 0.2,0.07 0.33,0.07 0.06,0 0.16,-0.02 0.3,-0.06 0.23,-0.08 0.39,-0.23 0.48,-0.45 0.1,-0.22 0.1,-0.44 0,-0.66 -0.1,-0.22 -0.25,-0.37 -0.45,-0.46 -0.2,-0.09 -0.4,-0.09 -0.61,0 -0.19,0.08 -0.33,0.2 -0.42,0.36 -0.1,0.17 -0.14,0.32 -0.14,0.46 z"
   id="path4"
   style="fill:#195bbc;fill-opacity:1" /><path
   d="m 10.2,21.11 c 0,0.15 0.05,0.3 0.16,0.45 0.11,0.15 0.26,0.26 0.46,0.32 0.26,0.1 0.48,0.1 0.67,0 0.19,-0.1 0.32,-0.29 0.4,-0.57 l 0.88,-3.21 c 0.07,-0.25 0.04,-0.47 -0.08,-0.67 -0.12,-0.2 -0.3,-0.32 -0.54,-0.37 -0.22,-0.07 -0.43,-0.05 -0.63,0.07 -0.2,0.11 -0.33,0.28 -0.4,0.51 l -0.88,3.22 c 0,0.02 -0.01,0.06 -0.02,0.12 -0.01,0.05 -0.02,0.1 -0.02,0.13 z"
   id="path3"
   style="fill:#1999e0;fill-opacity:1" /><path
   d="m 9.58,23.94 c 0.09,0.21 0.24,0.36 0.46,0.45 0.19,0.1 0.4,0.11 0.62,0.02 0.22,-0.08 0.37,-0.23 0.45,-0.45 0.1,-0.22 0.11,-0.43 0.02,-0.65 -0.08,-0.21 -0.23,-0.36 -0.45,-0.44 -0.2,-0.1 -0.41,-0.11 -0.62,-0.02 -0.21,0.09 -0.37,0.24 -0.47,0.46 -0.09,0.17 -0.1,0.38 -0.01,0.63 z"
   id="path2"
   style="fill:#195bbc;fill-opacity:1" />
</svg>
