<?xml version="1.0" encoding="UTF-8" standalone="no"?>
<!-- Generator: Adobe Illustrator 22.0.1, SVG Export Plug-In . SVG Version: 6.00 Build 0)  -->

<svg
   version="1.1"
   id="Layer_1"
   x="0px"
   y="0px"
   viewBox="0 0 30 30"
   style="enable-background:new 0 0 30 30;"
   xml:space="preserve"
   sodipodi:docname="wi-night-alt-sleet.svg"
   inkscape:version="1.4.2 (f4327f4, 2025-05-13)"
   xmlns:inkscape="http://www.inkscape.org/namespaces/inkscape"
   xmlns:sodipodi="http://sodipodi.sourceforge.net/DTD/sodipodi-0.dtd"
   xmlns="http://www.w3.org/2000/svg"
   xmlns:svg="http://www.w3.org/2000/svg"><defs
   id="defs1" /><sodipodi:namedview
   id="namedview1"
   pagecolor="#ffffff"
   bordercolor="#000000"
   borderopacity="0.25"
   inkscape:showpageshadow="2"
   inkscape:pageopacity="0.0"
   inkscape:pagecheckerboard="0"
   inkscape:deskcolor="#d1d1d1"
   inkscape:zoom="25.766667"
   inkscape:cx="7.6649418"
   inkscape:cy="12.477361"
   inkscape:window-width="2400"
   inkscape:window-height="1261"
   inkscape:window-x="-9"
   inkscape:window-y="-9"
   inkscape:window-maximized="1"
   inkscape:current-layer="Layer_1" />
<path
   id="path13"
   d="M 24.238281 14.550781 L 23.083984 13.128906 C 22.172058 12.359279 21.114532 11.980469 19.900391 11.980469 L 19.570312 11.980469 C 19.290312 10.720469 18.629844 9.6703125 17.589844 8.8203125 C 17.591373 8.817764 17.592216 8.8150434 17.59375 8.8125 L 16.052734 7.875 C 15.239598 7.5885564 14.481217 7.4492188 13.769531 7.4492188 C 12.359531 7.4492187 11.099766 7.8797656 10.009766 8.7597656 C 8.9197652 9.6397656 8.2103906 10.759141 7.9003906 12.119141 C 6.8303906 12.369141 5.9307031 12.929063 5.2207031 13.789062 C 4.5107031 14.649063 4.1298437 15.639766 4.0898438 16.759766 L 4.0898438 17.130859 C 4.1198438 17.940859 4.3304687 18.690625 4.7304688 19.390625 C 5.1304687 20.090625 5.6603125 20.650078 6.3203125 21.080078 L 6.3300781 21.080078 C 7.1000781 21.580078 7.9508594 21.860391 8.8808594 21.900391 C 8.9908594 21.900391 9.0507814 21.840703 9.0507812 21.720703 L 9.0507812 20.380859 C 9.0507812 20.270859 8.9908594 20.210938 8.8808594 20.210938 C 8.5008594 20.200938 8.1505469 20.120703 7.8105469 19.970703 C 7.6105469 19.890703 7.4094531 19.779141 7.1894531 19.619141 L 7.1796875 19.609375 L 7.1699219 19.599609 L 7.1601562 19.599609 C 6.7501564 19.299609 6.4294531 18.920938 6.1894531 18.460938 C 5.9494531 18.000937 5.8300781 17.500469 5.8300781 16.980469 L 5.8105469 16.980469 L 5.8007812 16.970703 L 5.8007812 16.949219 C 5.8007813 16.119219 6.0803906 15.399297 6.6503906 14.779297 C 7.2103906 14.169297 7.91 13.810936 8.75 13.710938 L 9.2792969 13.640625 C 9.4092969 13.640625 9.4804688 13.580703 9.4804688 13.470703 L 9.5507812 12.949219 C 9.6507813 11.869219 10.109922 10.960469 10.919922 10.230469 C 11.719922 9.5004685 12.679531 9.1308594 13.769531 9.1308594 C 14.859531 9.1308594 15.810859 9.5004685 16.630859 10.230469 C 17.450859 10.960469 17.919297 11.869453 18.029297 12.939453 L 18.099609 13.519531 C 18.099609 13.639531 18.159531 13.699219 18.269531 13.699219 L 19.890625 13.699219 C 20.800625 13.699219 21.570703 14.020391 22.220703 14.650391 C 22.870703 15.280391 23.189453 16.049453 23.189453 16.939453 C 23.189453 17.789453 22.889063 18.530391 22.289062 19.150391 C 21.689063 19.770391 20.959844 20.119688 20.089844 20.179688 C 19.959844 20.179688 19.900391 20.239375 19.900391 20.359375 L 19.900391 21.720703 C 19.900391 21.850703 19.969844 21.910156 20.089844 21.910156 C 21.419844 21.870156 22.550469 21.370391 23.480469 20.400391 C 24.410469 19.440391 24.869141 18.289219 24.869141 16.949219 C 24.869141 16.098179 24.659237 15.296739 24.238281 14.550781 z "
   style="fill:#7c7c7c;fill-opacity:1" /><path
   id="path11"
   d="m 20.626904,5.4209726 c -0.37,0 -0.750859,0.039141 -1.130859,0.1191406 -0.39,0.08 -0.779453,0.2203907 -1.189454,0.4003907 -0.41,0.19 -0.799687,0.4510156 -1.179687,0.7910156 -0.38,0.34 -0.710234,0.7392189 -0.990234,1.1992187 -0.01393,-0.00508 -0.02712,-0.010632 -0.04102,-0.015625 l 1.494141,0.9042969 c 0.328551,-0.5398995 0.763615,-0.9636276 1.316406,-1.2597656 0.56,-0.3 1.149531,-0.4492187 1.769531,-0.4492187 h 0.220703 V 7.411207 c 0,0.64 0.109844,1.259375 0.339844,1.859375 0.23,0.6 0.569531,1.150156 1.019531,1.660156 0.46,0.51 0.991328,0.908985 1.611328,1.208985 -0.169355,0.388521 -0.419768,0.72805 -0.757812,1.037109 l 1.085937,1.333984 0.0039,0.0078 c 0.758441,-0.729466 1.268109,-1.608437 1.507812,-2.617188 l 0.189453,-0.68164 0.002,-0.002 0.002,-0.002 v -0.002 c 0.0042,-0.01172 0.0059,-0.0325 0.0059,-0.0625 0,-0.08 -0.05039,-0.130156 -0.150391,-0.160156 l -0.61914,-0.169922 c -0.44,-0.13 -0.820157,-0.320078 -1.160157,-0.580078 -0.34,-0.2599998 -0.600781,-0.5415624 -0.800781,-0.8515624 -0.2,-0.31 -0.339453,-0.6292187 -0.439453,-0.9492187 -0.1,-0.33 -0.150391,-0.6392188 -0.150391,-0.9492188 0,-0.27 0.02961,-0.5498437 0.09961,-0.8398437 l 0.121093,-0.6210938 c 0.03,-0.1 -0.02062,-0.1704687 -0.140624,-0.2304687 l -0.798829,-0.25 c -0.44,-0.09 -0.850234,-0.1289063 -1.240234,-0.1289063 z"
   style="fill:#949bd4;fill-opacity:1" /><path
   d="m 16.88,21.18 c 0,-0.24 0.08,-0.43 0.23,-0.59 0.15,-0.16 0.35,-0.23 0.59,-0.23 0.24,0 0.43,0.08 0.59,0.23 0.16,0.16 0.23,0.35 0.23,0.59 0,0.23 -0.08,0.42 -0.23,0.58 -0.16,0.16 -0.35,0.23 -0.59,0.23 -0.24,0 -0.43,-0.08 -0.58,-0.24 -0.15,-0.15 -0.24,-0.34 -0.24,-0.57 z"
   id="path9"
   style="fill:#f9f9f9;fill-opacity:1" /><path
   d="m 16.14,24.12 c 0,-0.03 0,-0.08 0.01,-0.13 0.01,-0.05 0.01,-0.09 0.01,-0.11 l 0.09,-0.59 c 0.07,-0.24 0.2,-0.41 0.41,-0.53 0.21,-0.12 0.43,-0.14 0.68,-0.08 0.23,0.07 0.4,0.21 0.51,0.41 0.12,0.21 0.14,0.42 0.07,0.63 l -0.14,0.6 c -0.1,0.44 -0.35,0.66 -0.76,0.66 -0.03,0 -0.08,-0.01 -0.14,-0.02 -0.06,-0.01 -0.11,-0.02 -0.14,-0.02 -0.2,-0.06 -0.35,-0.17 -0.45,-0.33 -0.1,-0.16 -0.15,-0.32 -0.15,-0.49 z"
   id="path8"
   style="fill:#1999e0;fill-opacity:1" /><path
   d="m 13.38,21.98 c 0,-0.09 0.01,-0.18 0.03,-0.27 l 0.23,-0.9 c 0.07,-0.23 0.21,-0.41 0.41,-0.53 0.21,-0.12 0.42,-0.15 0.64,-0.08 0.24,0.07 0.41,0.2 0.53,0.4 0.12,0.2 0.14,0.41 0.07,0.63 l -0.26,0.9 c -0.08,0.28 -0.22,0.46 -0.41,0.56 -0.19,0.1 -0.41,0.12 -0.64,0.06 -0.2,-0.04 -0.35,-0.14 -0.45,-0.3 -0.12,-0.16 -0.16,-0.32 -0.15,-0.47 z"
   id="path7"
   style="fill:#1999e0;fill-opacity:1" /><path
   d="m 12.76,24.25 c 0,-0.23 0.08,-0.42 0.23,-0.58 0.16,-0.16 0.35,-0.23 0.59,-0.23 0.24,0 0.43,0.08 0.59,0.23 0.16,0.16 0.23,0.35 0.23,0.58 0,0.24 -0.08,0.43 -0.23,0.59 -0.16,0.16 -0.35,0.23 -0.59,0.23 -0.23,0 -0.42,-0.08 -0.58,-0.24 -0.16,-0.16 -0.24,-0.35 -0.24,-0.58 z"
   id="path6"
   style="fill:#f9f9f9;fill-opacity:1" /><path
   d="m 11.97,27.16 c 0,-0.04 0.01,-0.11 0.04,-0.22 l 0.13,-0.59 c 0.07,-0.23 0.21,-0.4 0.41,-0.51 0.21,-0.12 0.42,-0.14 0.63,-0.07 0.23,0.04 0.41,0.17 0.53,0.37 0.12,0.2 0.15,0.43 0.08,0.68 l -0.13,0.59 c -0.1,0.41 -0.37,0.61 -0.8,0.61 -0.07,0 -0.16,-0.01 -0.24,-0.03 -0.22,-0.06 -0.38,-0.17 -0.49,-0.33 -0.1,-0.17 -0.16,-0.33 -0.16,-0.5 z"
   id="path4"
   style="fill:#1999e0;fill-opacity:1" /><path
   d="m 10.33,21.16 c 0,-0.24 0.08,-0.43 0.23,-0.59 0.15,-0.16 0.35,-0.23 0.59,-0.23 0.24,0 0.43,0.08 0.59,0.23 0.16,0.15 0.23,0.35 0.23,0.59 0,0.23 -0.08,0.43 -0.23,0.58 -0.15,0.15 -0.35,0.23 -0.59,0.23 -0.23,0 -0.42,-0.08 -0.57,-0.25 -0.16,-0.15 -0.25,-0.34 -0.25,-0.56 z"
   id="path3"
   style="fill:#f9f9f9;fill-opacity:1" /><path
   d="m 9.59,24.1 c 0,-0.03 0.01,-0.07 0.02,-0.13 0.01,-0.06 0.02,-0.09 0.02,-0.12 l 0.09,-0.59 c 0.07,-0.24 0.2,-0.41 0.41,-0.53 0.21,-0.12 0.43,-0.14 0.68,-0.08 0.23,0.07 0.39,0.21 0.51,0.41 0.11,0.21 0.13,0.42 0.07,0.63 l -0.14,0.6 c -0.1,0.43 -0.35,0.65 -0.76,0.65 -0.03,0 -0.08,0 -0.15,-0.01 C 10.27,24.92 10.23,24.92 10.21,24.92 10,24.86 9.85,24.75 9.75,24.59 9.64,24.43 9.59,24.27 9.59,24.1 Z"
   id="path2"
   style="fill:#1999e0;fill-opacity:1" />
</svg>
