<?xml version="1.0" encoding="UTF-8" standalone="no"?>
<!-- Generator: Adobe Illustrator 22.0.1, SVG Export Plug-In . SVG Version: 6.00 Build 0)  -->

<svg
   version="1.1"
   id="Layer_1"
   x="0px"
   y="0px"
   viewBox="0 0 30 30"
   style="enable-background:new 0 0 30 30;"
   xml:space="preserve"
   sodipodi:docname="wi-night-alt-cloudy-gusts.svg"
   inkscape:version="1.4.2 (f4327f4, 2025-05-13)"
   xmlns:inkscape="http://www.inkscape.org/namespaces/inkscape"
   xmlns:sodipodi="http://sodipodi.sourceforge.net/DTD/sodipodi-0.dtd"
   xmlns="http://www.w3.org/2000/svg"
   xmlns:svg="http://www.w3.org/2000/svg"><defs
   id="defs1" /><sodipodi:namedview
   id="namedview1"
   pagecolor="#ffffff"
   bordercolor="#000000"
   borderopacity="0.25"
   inkscape:showpageshadow="2"
   inkscape:pageopacity="0.0"
   inkscape:pagecheckerboard="0"
   inkscape:deskcolor="#d1d1d1"
   inkscape:zoom="25.766667"
   inkscape:cx="24.624838"
   inkscape:cy="11.041397"
   inkscape:window-width="2400"
   inkscape:window-height="1261"
   inkscape:window-x="-9"
   inkscape:window-y="-9"
   inkscape:window-maximized="1"
   inkscape:current-layer="Layer_1" />
<path
   id="path7"
   d="M 25.439453 14.572266 L 24.240234 13.099609 C 24.236749 13.102811 24.233974 13.106179 24.230469 13.109375 C 23.340469 12.349375 22.290313 11.970703 21.070312 11.970703 L 20.740234 11.970703 C 20.484335 10.730574 19.831483 9.6747832 18.78125 8.8027344 L 17.273438 7.8847656 C 17.272098 7.8870064 17.270868 7.888381 17.269531 7.890625 C 16.559531 7.590625 15.789219 7.4394531 14.949219 7.4394531 C 13.539219 7.4394531 12.289219 7.88 11.199219 8.75 C 10.109219 9.62 9.4308594 10.739609 9.1308594 12.099609 C 8.2708594 12.299609 7.519375 12.710078 6.859375 13.330078 C 6.199375 13.950078 5.75 14.679297 5.5 15.529297 L 5.5 15.560547 C 5.51 15.580547 5.5 15.610391 5.5 15.650391 C 5.5 15.740391 5.5501563 15.779297 5.6601562 15.779297 L 7.0996094 15.779297 C 7.1796094 15.779297 7.2503125 15.730859 7.3203125 15.630859 C 7.5403125 15.090859 7.8891406 14.639297 8.3691406 14.279297 C 8.8391406 13.929297 9.3692186 13.729686 9.9492188 13.679688 L 10.470703 13.609375 C 10.590703 13.609375 10.660156 13.549453 10.660156 13.439453 L 10.740234 12.919922 C 10.850234 11.839922 11.309141 10.930936 12.119141 10.210938 C 12.929141 9.480937 13.890469 9.1191406 14.980469 9.1191406 C 16.070469 9.1191406 17.030078 9.480937 17.830078 10.210938 C 18.640078 10.930937 19.100936 11.839686 19.210938 12.929688 L 19.279297 13.509766 C 19.279297 13.629766 19.340703 13.689453 19.470703 13.689453 L 21.089844 13.689453 C 21.999844 13.689453 22.770156 14.010625 23.410156 14.640625 C 24.050156 15.270625 24.369141 16.029922 24.369141 16.919922 C 24.369141 17.809922 24.050156 18.570937 23.410156 19.210938 C 22.770156 19.850938 21.999609 20.169922 21.099609 20.169922 L 14.189453 20.169922 C 14.079453 20.169922 14.019531 20.229609 14.019531 20.349609 L 14.019531 21.720703 C 14.019531 21.830703 14.079453 21.890625 14.189453 21.890625 L 21.099609 21.890625 C 21.989609 21.890625 22.820078 21.670703 23.580078 21.220703 C 24.340078 20.770703 24.940859 20.170156 25.380859 19.410156 C 25.820859 18.650156 26.050781 17.819688 26.050781 16.929688 C 26.050781 16.09619 25.84378 15.3076 25.439453 14.572266 z "
   style="fill:#7c7c7c;fill-opacity:1" /><path
   id="path5"
   d="m 21.722557,5.3575208 c -0.37,0 -0.739141,0.040859 -1.119141,0.1308594 -0.38,0.09 -0.77164,0.2182031 -1.18164,0.4082031 -0.4,0.18 -0.799688,0.4507813 -1.179688,0.8007813 -0.375871,0.3461976 -0.711989,0.7416713 -0.990234,1.2050781 l 1.453125,0.8789062 c 0.309743,-0.547138 0.739054,-0.9649314 1.287109,-1.2539062 0.55,-0.29 1.120938,-0.4394531 1.710938,-0.4394531 0.14,0 0.238594,-2.344e-4 0.308593,0.00977 -0.01,0.09 -0.01953,0.209375 -0.01953,0.359375 0,0.94 0.261016,1.8509375 0.791016,2.7109378 0.52,0.86 1.249922,1.509453 2.169922,1.939453 -0.156755,0.372292 -0.39899,0.704885 -0.728516,1.009766 l 1.119141,1.375 0.03516,0.05078 c -0.01243,-0.02197 -0.02433,-0.04453 -0.03711,-0.06641 0.73,-0.71 1.231718,-1.570078 1.511718,-2.580078 l 0.119141,-0.689453 c 0.02,-0.02 0.0293,-0.04031 0.0293,-0.07031 0,-0.04 -0.04867,-0.100156 -0.138672,-0.160156 l -0.601563,-0.208985 c -0.839999,-0.26 -1.479921,-0.709375 -1.919921,-1.3593749 -0.44,-0.65 -0.658204,-1.3214844 -0.658203,-2.0214844 0,-0.24 0.02984,-0.5090625 0.08984,-0.7890625 l 0.128907,-0.6210937 c 0.02,-0.1000001 -0.01891,-0.1787501 -0.128907,-0.21875 L 22.972557,5.5176771 c -0.44,-0.11 -0.85,-0.1601563 -1.25,-0.1601563 z"
   style="fill:#949bd4;fill-opacity:1" /><path
   d="m 2.98,18 c 0,0.22 0.09,0.41 0.27,0.58 0.17,0.16 0.38,0.24 0.61,0.24 h 10.85 c 0.74,0 1.37,-0.26 1.89,-0.78 0.52,-0.52 0.78,-1.15 0.78,-1.88 0,-0.74 -0.26,-1.36 -0.78,-1.88 -0.52,-0.52 -1.15,-0.77 -1.89,-0.77 -0.76,0 -1.39,0.25 -1.89,0.76 -0.15,0.16 -0.23,0.36 -0.23,0.61 0,0.25 0.08,0.45 0.23,0.6 0.15,0.15 0.35,0.23 0.59,0.23 0.24,0 0.44,-0.07 0.62,-0.23 0.19,-0.19 0.42,-0.28 0.68,-0.28 0.26,0 0.48,0.09 0.67,0.28 0.19,0.19 0.29,0.42 0.29,0.68 0,0.26 -0.1,0.49 -0.29,0.68 -0.19,0.19 -0.42,0.29 -0.67,0.29 H 3.86 c -0.24,0 -0.44,0.09 -0.62,0.26 C 3.07,17.57 2.98,17.77 2.98,18 Z"
   id="path2"
   style="fill:#35c1f1;fill-opacity:1" /><path
   d="m 2.98,21.02 c 0,0.23 0.09,0.43 0.27,0.6 0.17,0.17 0.37,0.25 0.61,0.25 H 9.6 c 0.26,0 0.49,0.1 0.69,0.29 0.2,0.19 0.3,0.42 0.3,0.68 0,0.27 -0.1,0.5 -0.3,0.69 -0.2,0.19 -0.43,0.29 -0.69,0.29 -0.26,0 -0.48,-0.1 -0.68,-0.3 -0.18,-0.16 -0.38,-0.24 -0.61,-0.24 -0.24,0 -0.44,0.08 -0.6,0.24 -0.16,0.16 -0.24,0.36 -0.24,0.6 0,0.22 0.08,0.42 0.24,0.6 0.52,0.53 1.16,0.79 1.89,0.79 0.73,0 1.37,-0.26 1.89,-0.78 0.52,-0.52 0.78,-1.15 0.78,-1.89 0,-0.74 -0.26,-1.37 -0.78,-1.89 C 10.97,20.43 10.34,20.16 9.6,20.16 H 3.86 c -0.24,0 -0.44,0.09 -0.62,0.26 -0.17,0.17 -0.26,0.37 -0.26,0.6 z"
   id="path1"
   style="fill:#0176d1;fill-opacity:1" />
</svg>
