<?xml version="1.0" encoding="UTF-8" standalone="no"?>
<!-- Generator: Adobe Illustrator 22.0.1, SVG Export Plug-In . SVG Version: 6.00 Build 0)  -->

<svg
   version="1.1"
   id="Layer_1"
   x="0px"
   y="0px"
   viewBox="0 0 30 30"
   style="enable-background:new 0 0 30 30;"
   xml:space="preserve"
   sodipodi:docname="wi-snowflake-cold.svg"
   inkscape:version="1.4.2 (f4327f4, 2025-05-13)"
   xmlns:inkscape="http://www.inkscape.org/namespaces/inkscape"
   xmlns:sodipodi="http://sodipodi.sourceforge.net/DTD/sodipodi-0.dtd"
   xmlns="http://www.w3.org/2000/svg"
   xmlns:svg="http://www.w3.org/2000/svg"><defs
   id="defs1" /><sodipodi:namedview
   id="namedview1"
   pagecolor="#ffffff"
   bordercolor="#000000"
   borderopacity="0.25"
   inkscape:showpageshadow="2"
   inkscape:pageopacity="0.0"
   inkscape:pagecheckerboard="0"
   inkscape:deskcolor="#d1d1d1"
   inkscape:zoom="25.766667"
   inkscape:cx="15.019405"
   inkscape:cy="15"
   inkscape:window-width="1920"
   inkscape:window-height="991"
   inkscape:window-x="-9"
   inkscape:window-y="-9"
   inkscape:window-maximized="1"
   inkscape:current-layer="Layer_1" />
<path
   d="m 21.17,14.41 c 0,-0.19 0.07,-0.36 0.2,-0.5 0.13,-0.14 0.3,-0.21 0.49,-0.21 0.18,0 0.34,0.07 0.47,0.21 0.13,0.14 0.2,0.3 0.2,0.5 0,0.18 -0.07,0.34 -0.2,0.47 -0.13,0.13 -0.29,0.2 -0.47,0.2 -0.19,0 -0.36,-0.07 -0.49,-0.2 -0.13,-0.13 -0.2,-0.29 -0.2,-0.47 z"
   id="path9"
   style="fill:#195bbc;fill-opacity:1" /><path
   d="m 19.17,9.54 c 0,-0.18 0.07,-0.35 0.21,-0.48 0.12,-0.14 0.28,-0.21 0.47,-0.21 0.19,0 0.35,0.07 0.49,0.21 0.14,0.14 0.21,0.3 0.21,0.48 0,0.18 -0.07,0.35 -0.21,0.49 -0.14,0.14 -0.3,0.21 -0.49,0.21 -0.19,0 -0.35,-0.07 -0.47,-0.21 C 19.24,9.89 19.17,9.72 19.17,9.54 Z"
   id="path8"
   style="fill:#195bbc;fill-opacity:1" /><path
   d="m 19.17,19.25 c 0,-0.18 0.07,-0.35 0.21,-0.48 0.12,-0.14 0.28,-0.21 0.47,-0.21 0.19,0 0.35,0.07 0.49,0.21 0.14,0.14 0.21,0.3 0.21,0.48 0,0.18 -0.07,0.35 -0.21,0.48 -0.14,0.14 -0.3,0.21 -0.49,0.21 -0.19,0 -0.35,-0.07 -0.47,-0.21 -0.14,-0.13 -0.21,-0.29 -0.21,-0.48 z"
   id="path7"
   style="fill:#195bbc;fill-opacity:1" /><path
   d="m 14.3,7.54 c 0,-0.19 0.07,-0.36 0.21,-0.49 0.14,-0.13 0.3,-0.2 0.5,-0.2 0.19,0 0.35,0.07 0.48,0.2 0.13,0.13 0.2,0.3 0.2,0.49 0,0.18 -0.07,0.34 -0.2,0.47 -0.13,0.13 -0.29,0.2 -0.48,0.2 -0.19,0 -0.36,-0.07 -0.5,-0.2 C 14.37,7.88 14.3,7.72 14.3,7.54 Z"
   id="path6"
   style="fill:#195bbc;fill-opacity:1" /><path
   d="m 14.3,21.25 c 0,-0.18 0.07,-0.34 0.21,-0.47 0.14,-0.13 0.3,-0.2 0.5,-0.2 0.19,0 0.35,0.07 0.48,0.2 0.13,0.13 0.2,0.29 0.2,0.47 0,0.19 -0.07,0.36 -0.2,0.49 -0.13,0.13 -0.29,0.2 -0.48,0.2 -0.19,0 -0.36,-0.07 -0.5,-0.2 -0.14,-0.13 -0.21,-0.29 -0.21,-0.49 z"
   id="path5"
   style="fill:#195bbc;fill-opacity:1" /><path
   d="m 9.45,9.54 c 0,-0.18 0.07,-0.35 0.21,-0.48 0.12,-0.14 0.28,-0.21 0.47,-0.21 0.19,0 0.35,0.07 0.49,0.21 0.14,0.14 0.21,0.3 0.21,0.48 0,0.18 -0.07,0.35 -0.21,0.49 -0.14,0.14 -0.3,0.21 -0.49,0.21 -0.19,0 -0.35,-0.07 -0.47,-0.21 C 9.52,9.89 9.45,9.72 9.45,9.54 Z"
   id="path4"
   style="fill:#195bbc;fill-opacity:1" /><path
   d="m 9.45,19.25 c 0,-0.18 0.07,-0.35 0.21,-0.48 0.12,-0.14 0.28,-0.21 0.47,-0.21 0.19,0 0.35,0.07 0.49,0.21 0.14,0.14 0.21,0.3 0.21,0.48 0,0.18 -0.07,0.35 -0.21,0.48 -0.14,0.14 -0.3,0.21 -0.49,0.21 -0.19,0 -0.35,-0.07 -0.47,-0.21 C 9.52,19.6 9.45,19.44 9.45,19.25 Z"
   id="path3"
   style="fill:#195bbc;fill-opacity:1" /><path
   d="m 9.44,14.41 c 0,-0.19 0.07,-0.36 0.2,-0.5 0.13,-0.14 0.29,-0.21 0.48,-0.21 h 3.23 l -2.28,-2.28 c -0.14,-0.12 -0.21,-0.28 -0.21,-0.47 0,-0.19 0.07,-0.35 0.21,-0.49 0.14,-0.14 0.3,-0.21 0.49,-0.21 0.19,0 0.35,0.07 0.49,0.21 l 2.27,2.27 V 9.52 c 0,-0.19 0.07,-0.36 0.21,-0.5 0.14,-0.14 0.3,-0.21 0.5,-0.21 0.19,0 0.35,0.07 0.48,0.21 0.13,0.14 0.2,0.3 0.2,0.5 v 3.23 L 18,10.45 c 0.14,-0.14 0.3,-0.21 0.48,-0.21 0.18,0 0.35,0.07 0.49,0.21 0.12,0.14 0.18,0.3 0.18,0.49 0,0.19 -0.06,0.35 -0.18,0.47 l -2.28,2.28 h 3.23 c 0.18,0 0.34,0.07 0.47,0.21 0.13,0.14 0.2,0.3 0.2,0.5 0,0.18 -0.07,0.34 -0.2,0.47 -0.13,0.13 -0.29,0.2 -0.47,0.2 h -3.23 l 2.29,2.29 c 0.12,0.12 0.18,0.28 0.18,0.47 0,0.19 -0.06,0.35 -0.18,0.49 -0.14,0.14 -0.31,0.21 -0.49,0.21 -0.18,0 -0.35,-0.07 -0.48,-0.21 l -2.29,-2.3 v 3.24 c 0,0.19 -0.07,0.36 -0.2,0.49 -0.13,0.13 -0.29,0.2 -0.48,0.2 -0.19,0 -0.36,-0.07 -0.5,-0.2 -0.14,-0.13 -0.21,-0.3 -0.21,-0.49 v -3.22 l -2.27,2.27 c -0.14,0.14 -0.3,0.21 -0.49,0.21 -0.19,0 -0.35,-0.07 -0.49,-0.21 -0.14,-0.14 -0.21,-0.3 -0.21,-0.49 0,-0.19 0.07,-0.34 0.21,-0.47 l 2.3,-2.29 H 10.14 C 9.95,15.06 9.79,14.99 9.66,14.86 9.5,14.75 9.44,14.59 9.44,14.41 Z"
   id="path2"
   style="fill:#35c1f1;fill-opacity:1" /><path
   d="m 7.46,14.41 c 0,-0.19 0.07,-0.36 0.2,-0.5 0.13,-0.14 0.29,-0.21 0.48,-0.21 0.19,0 0.36,0.07 0.49,0.21 0.13,0.14 0.2,0.3 0.2,0.5 0,0.19 -0.07,0.35 -0.2,0.48 -0.13,0.13 -0.3,0.2 -0.48,0.2 -0.18,0 -0.35,-0.07 -0.48,-0.2 -0.15,-0.14 -0.21,-0.3 -0.21,-0.48 z"
   id="path1"
   style="fill:#195bbc;fill-opacity:1" />
</svg>
