<?xml version="1.0" encoding="UTF-8" standalone="no"?>
<!-- Generator: Adobe Illustrator 22.0.1, SVG Export Plug-In . SVG Version: 6.00 Build 0)  -->

<svg
   version="1.1"
   id="Layer_1"
   x="0px"
   y="0px"
   viewBox="0 0 30 30"
   style="enable-background:new 0 0 30 30;"
   xml:space="preserve"
   sodipodi:docname="smoke.svg"
   inkscape:export-filename="C:\Users\a00540149\OneDrive - ONEVIRTUALOFFICE\Documents\inky-frame-app\public\smoke.svg"
   inkscape:export-xdpi="96"
   inkscape:export-ydpi="96"
   inkscape:version="1.4.2 (f4327f4, 2025-05-13)"
   xmlns:inkscape="http://www.inkscape.org/namespaces/inkscape"
   xmlns:sodipodi="http://sodipodi.sourceforge.net/DTD/sodipodi-0.dtd"
   xmlns="http://www.w3.org/2000/svg"
   xmlns:svg="http://www.w3.org/2000/svg"><defs
   id="defs1" /><sodipodi:namedview
   id="namedview1"
   pagecolor="#ffffff"
   bordercolor="#000000"
   borderopacity="0.25"
   inkscape:showpageshadow="2"
   inkscape:pageopacity="0.0"
   inkscape:pagecheckerboard="0"
   inkscape:deskcolor="#d1d1d1"
   inkscape:zoom="34.766667"
   inkscape:cx="15"
   inkscape:cy="15"
   inkscape:window-width="2148"
   inkscape:window-height="1701"
   inkscape:window-x="4542"
   inkscape:window-y="0"
   inkscape:window-maximized="0"
   inkscape:current-layer="Layer_1" />
<path
   d="m 14.289063,6.0195312 c -0.94,0 -1.749688,0.3307032 -2.429688,0.9707032 -0.68,0.64 -1.040312,1.4391406 -1.070312,2.3691406 h -0.07813 -0.0918 c -0.7900004,0 -1.4592972,0.2798438 -2.0292972,0.839844 -0.57,0.56 -0.8496094,1.25125 -0.8496094,2.03125 0,0.8 0.2798437,1.479062 0.8398437,2.039062 0.56,0.56 1.2392969,0.839844 2.0292969,0.839844 0.49,0 0.951094,-0.109844 1.371094,-0.339844 0.12,0.74 0.469062,1.361328 1.039062,1.861328 0.57,0.5 1.249531,0.738282 2.019532,0.738282 0.869999,0 1.610703,-0.309922 2.220703,-0.919922 0.41,0.48 0.921015,0.710937 1.541015,0.710937 0.57,0 1.048985,-0.199609 1.458985,-0.599609 0.4,-0.4 0.599609,-0.890938 0.599609,-1.460938 0.4,-0.27 0.721172,-0.609062 0.951172,-1.039062 0.23,-0.42 0.349609,-0.881094 0.349609,-1.371094 0,-0.79 -0.279609,-1.469531 -0.849609,-2.019531 -0.57,-0.55 -1.250781,-0.8300782 -2.050781,-0.8300782 -0.56,0 -1.069297,0.1494531 -1.529297,0.4394532 0.06,-0.24 0.08008,-0.5090626 0.08008,-0.7890626 0,-0.96 -0.34125,-1.7809375 -1.03125,-2.4609375 -0.69,-0.68 -1.520235,-1.0097656 -2.490234,-1.0097657 z"
   id="path3"
   style="fill:#d5d6da;fill-opacity:1" /><path
   d="m 14.279297,4.6992187 c -1.16,0 -2.180078,0.3600782 -3.080078,1.0800782 -0.9,0.72 -1.4687502,1.6514843 -1.7187502,2.7714844 -0.91,0.1999999 -1.6600001,0.6701562 -2.2500001,1.4101562 -0.5899999,0.7400005 -0.890625,1.5795315 -0.890625,2.5195315 0,1.08 0.3710938,1.999297 1.1210938,2.779297 0.75,0.78 1.6585156,1.199531 2.7285155,1.269531 v 0.0098 h 1.28125 c 0.23,0.55 0.599141,0.96 1.119141,1.25 -0.2,0.310001 -0.300781,0.670313 -0.300781,1.070313 -1e-6,0.58 0.210859,1.08 0.630859,1.5 0.42,0.42 0.92,0.630859 1.5,0.630859 h 0.09961 c -0.07,0.19 -0.09961,0.380313 -0.09961,0.570313 0,0.48 0.169766,0.900234 0.509766,1.240234 0.34,0.35 0.750468,0.519531 1.230468,0.519531 0.48,0 0.890469,-0.179531 1.230469,-0.519531 0.34,-0.35 0.509766,-0.760234 0.509766,-1.240234 0,-0.41 -0.139688,-0.79086 -0.429688,-1.13086 0.62,-0.1 1.168906,-0.368828 1.628906,-0.798828 0.46,-0.43 0.770157,-0.960078 0.910157,-1.580078 0.56,-0.13 1.03039,-0.420625 1.40039,-0.890625 0.37,-0.47 0.560547,-0.999843 0.560547,-1.589843 v -0.03125 C 22.410703,15.159062 22.75,14.699922 23,14.169922 c 0.25,-0.53 0.369141,-1.099219 0.369141,-1.699219 0,-1.11 -0.399454,-2.071562 -1.189454,-2.8515624 -0.799999,-0.79 -1.758906,-1.1796875 -2.878906,-1.1796875 H 19.029297 C 18.759297,7.3494531 18.190781,6.45 17.300781,5.75 c -0.89,-0.7 -1.901484,-1.0507813 -3.021484,-1.0507813 z m 0.0098,1.3203125 c 0.969999,10e-8 1.800234,0.3297657 2.490234,1.0097657 0.69,0.68 1.03125,1.5009375 1.03125,2.4609375 0,0.28 -0.02008,0.5490626 -0.08008,0.7890626 0.46,-0.2900001 0.969297,-0.4394532 1.529297,-0.4394532 0.8,0 1.480781,0.2800782 2.050781,0.8300782 0.57,0.55 0.849609,1.229531 0.849609,2.019531 0,0.49 -0.119609,0.951094 -0.349609,1.371094 -0.23,0.43 -0.551172,0.769062 -0.951172,1.039062 0,0.57 -0.199609,1.060938 -0.599609,1.460938 -0.41,0.4 -0.888985,0.599609 -1.458985,0.599609 -0.62,0 -1.131015,-0.230937 -1.541015,-0.710937 -0.61,0.61 -1.350704,0.919922 -2.220703,0.919922 -0.770001,0 -1.449532,-0.238282 -2.019532,-0.738282 -0.57,-0.5 -0.919062,-1.121328 -1.039062,-1.861328 -0.42,0.23 -0.881094,0.339844 -1.371094,0.339844 -0.79,0 -1.4692969,-0.279844 -2.0292969,-0.839844 -0.56,-0.56 -0.8398437,-1.239062 -0.8398437,-2.039062 0,-0.78 0.2796094,-1.47125 0.8496094,-2.03125 0.57,-0.5600002 1.2392968,-0.839844 2.0292972,-0.839844 h 0.0918 0.07813 c 0.03,-0.93 0.390312,-1.7291406 1.070312,-2.3691406 0.68,-0.64 1.489688,-0.9707032 2.429688,-0.9707032 z"
   style="fill:#969aa5;fill-opacity:1"
   id="path2" />
</svg>
